<svg width="444" xmlns="http://www.w3.org/2000/svg" height="444" fill="none"><g xml:space="preserve" style="fill: rgb(0, 0, 0);"><rect rx="0" ry="0" width="444" height="444" style="fill: rgb(255, 255, 255);" class="fills"/><defs><linearGradient x1="3519.915" y1="3664.228" x2="1561.906" y2="1579.896" id="a" gradientUnits="userSpaceOnUse" gradientTransform="scale(.11968)"><stop offset="0" style="stop-color: rgb(218, 227, 254);"/><stop offset="1" style="stop-color: rgb(233, 239, 253);"/></linearGradient></defs><path d="M350.895 338.446c-8.651 8.916-16.391 14.158-22.317 18.115-57.796 38.591-123.863 27.468-144.289 23.666-32.956-6.134-60.775-10.461-84.676-32.055-54.311-49.068-51.669-151.427-10.169-214.834 4.921-7.519 46.358-68.942 112.568-77.597 1.62-.212 2.828-.332 3.886-.444 10.243-1.085 73.714-6.808 125.468 36.552 7.409 6.206 19.331 17.402 30.387 34.476 40.424 62.433 40.552 159.128-10.858 212.121Z" style="fill: url(&quot;#a&quot;);" class="fills"/><g style="fill: rgb(0, 0, 0);"><g style="opacity: 0.3;"><path d="M268.907 128.552a.973.973 0 0 1 1.375-.082 37.286 37.286 0 0 0 2.445 1.991.974.974 0 0 1 .21 1.347l-.011.015a.975.975 0 0 1-1.363.199 39.126 39.126 0 0 1-2.574-2.096.974.974 0 0 1-.082-1.374Zm8.127 4.683c.919.507 1.868.979 2.822 1.404a.975.975 0 0 1-.792 1.779 39.262 39.262 0 0 1-2.97-1.478.973.973 0 1 1 .94-1.705Zm7.633 3.157c1.006.289 2.037.537 3.065.739a.974.974 0 0 1-.375 1.91 38.75 38.75 0 0 1-3.227-.778.973.973 0 1 1 .537-1.871Zm8.148 1.37c1.046.057 2.107.069 3.154.036a.973.973 0 0 1 .061 1.946 39.112 39.112 0 0 1-3.32-.038.973.973 0 0 1 .105-1.944Zm8.25-.479c1.03-.177 2.068-.4 3.083-.664a.973.973 0 1 1 .49 1.884c-1.068.278-2.16.513-3.244.699a.973.973 0 1 1-.329-1.919Zm7.938-2.293c.968-.4 1.929-.848 2.86-1.329a.974.974 0 0 1 .895 1.729c-.979.507-1.992.977-3.009 1.399a.973.973 0 0 1-.746-1.799Zm23.222-27.702a.972.972 0 0 1 .766 1.143 38.19 38.19 0 0 1-.784 3.227.973.973 0 1 1-1.87-.54c.291-1.008.541-2.039.744-3.065a.973.973 0 0 1 1.144-.765Zm-15.993 23.71a37.19 37.19 0 0 0 2.489-1.932.973.973 0 1 1 1.258 1.485 38.481 38.481 0 0 1-2.621 2.035.974.974 0 0 1-1.126-1.588Zm13.629-15.563c.49.22.71.796.49 1.287a39.121 39.121 0 0 1-1.484 2.969.974.974 0 0 1-1.703-.943 37.29 37.29 0 0 0 1.41-2.822.975.975 0 0 1 1.287-.491Zm-7.476 10.056a37.43 37.43 0 0 0 1.996-2.441.973.973 0 0 1 1.57 1.15l-.012.017a38.972 38.972 0 0 1-2.1 2.569.974.974 0 0 1-1.454-1.295Z" style="fill: rgb(145, 179, 250);" class="fills"/></g><g style="opacity: 0.3;"><path d="M331.958 100.878a.965.965 0 0 0-.182.552 36.668 36.668 0 0 1-.052 1.516.973.973 0 0 0 1.944.107c.029-.531.048-1.067.055-1.595a.974.974 0 0 0-1.765-.58Z" style="fill: rgb(145, 179, 250);" class="fills"/></g></g><g style="fill: rgb(0, 0, 0);"><g style="opacity: 0.3;"><path d="M320.753 73.396a.975.975 0 0 0 .107 1.258c.357.353.712.719 1.056 1.089a.974.974 0 1 0 1.426-1.326 38.877 38.877 0 0 0-1.112-1.147.973.973 0 0 0-1.477.126Z" style="fill: rgb(145, 179, 250);" class="fills"/></g><g style="opacity: 0.3;"><path d="M264.411 76.671a.974.974 0 0 1 1.525 1.21 38.096 38.096 0 0 0-1.826 2.51.974.974 0 0 1-1.62-1.08 41.062 41.062 0 0 1 1.921-2.64Zm-3.256 6.793a.973.973 0 0 1 .449 1.301 37.297 37.297 0 0 0-1.238 2.846.973.973 0 1 1-1.816-.701c.39-1.011.829-2.019 1.304-2.996a.975.975 0 0 1 1.301-.45Zm6.83-10.713a38.994 38.994 0 0 1 2.454-2.156.974.974 0 0 1 1.222 1.516 36.9 36.9 0 0 0-2.33 2.047.974.974 0 0 1-1.346-1.407Zm-9.832 18.504a.974.974 0 0 1 .725 1.17 36.686 36.686 0 0 0-.582 3.047.973.973 0 1 1-1.926-.284 38.45 38.45 0 0 1 .613-3.209.975.975 0 0 1 1.17-.724Zm16.632-23.694a38.71 38.71 0 0 1 2.867-1.563.974.974 0 0 1 .859 1.747c-.926.455-1.842.955-2.723 1.484a.973.973 0 0 1-1.003-1.668Zm7.773-3.574a39.517 39.517 0 0 1 3.139-.899.972.972 0 0 1 1.175.717.972.972 0 0 1-.717 1.175c-1 .242-2.004.53-2.983.855a.973.973 0 0 1-.614-1.848Zm8.368-1.794c1.08-.11 2.177-.175 3.26-.195a.975.975 0 0 1 .035 1.947 37.363 37.363 0 0 0-3.098.185.974.974 0 0 1-.197-1.937Zm8.56.074c1.078.129 2.163.305 3.225.525a.973.973 0 1 1-.394 1.906 36.654 36.654 0 0 0-3.063-.498.973.973 0 0 1 .232-1.933Zm8.338 1.954c1.021.362 2.04.773 3.028 1.221a.974.974 0 1 1-.804 1.774 36.993 36.993 0 0 0-2.876-1.161.973.973 0 0 1 .652-1.834Zm7.698 3.733a38.983 38.983 0 0 1 2.691 1.849c.43.323.53.934.195 1.363a.974.974 0 0 1-1.363.195 36.36 36.36 0 0 0-2.558-1.758.973.973 0 0 1 1.035-1.649Z" style="fill: rgb(145, 179, 250);" class="fills"/></g><g style="opacity: 0.3;"><path d="M256.139 99.946a.972.972 0 0 0-.181.557c-.005.527.001 1.064.018 1.596a.974.974 0 0 0 1.946-.062 38.453 38.453 0 0 1-.018-1.516.973.973 0 0 0-1.765-.575Z" style="fill: rgb(145, 179, 250);" class="fills"/></g></g><path d="M267.82 111.865a.456.456 0 0 0 .409.335l5.524.373a24.145 24.145 0 0 0 4.773 6.188l-1.038 5.435a.456.456 0 0 0 .221.48l5.762 3.305a.454.454 0 0 0 .525-.052l4.168-3.641a24.12 24.12 0 0 0 7.751.996l3.112 4.58a.453.453 0 0 0 .495.183l6.411-1.737a.456.456 0 0 0 .335-.408l.373-5.525a24.123 24.123 0 0 0 6.188-4.773l5.435 1.038a.454.454 0 0 0 .48-.221l3.305-5.762a.453.453 0 0 0-.052-.525l-3.641-4.168a24.124 24.124 0 0 0 .996-7.751l4.58-3.112a.455.455 0 0 0 .184-.495l-1.738-6.411a.456.456 0 0 0-.408-.335l-5.525-.373a24.123 24.123 0 0 0-4.773-6.188l1.038-5.435a.454.454 0 0 0-.221-.48l-5.761-3.305a.454.454 0 0 0-.526.052l-4.168 3.641a24.12 24.12 0 0 0-7.751-.996l-3.112-4.58a.455.455 0 0 0-.495-.184l-6.411 1.738a.455.455 0 0 0-.334.408l-.373 5.525a24.128 24.128 0 0 0-6.188 4.773l-5.436-1.038a.455.455 0 0 0-.48.221l-3.304 5.761a.454.454 0 0 0 .052.526l3.64 4.168a24.092 24.092 0 0 0-.995 7.751l-4.581 3.112a.455.455 0 0 0-.183.495l1.737 6.411Z" style="fill: rgb(145, 179, 250);" class="fills"/><path d="M290.297 96.393a6.683 6.683 0 0 1 9.44-.164 6.632 6.632 0 0 1 2.038 4.686 6.629 6.629 0 0 1-1.874 4.754 6.683 6.683 0 0 1-9.44.164c-2.409-2.327-2.687-6.042-.792-8.687a6.72 6.72 0 0 1 .628-.753Zm9.92 4.549a5.08 5.08 0 0 0-1.562-3.593 5.124 5.124 0 0 0-7.238.126 5.124 5.124 0 0 0 .126 7.238 5.124 5.124 0 0 0 7.724-.709c.636-.887.97-1.951.95-3.062Z" style="fill: rgb(189, 208, 251);" class="fills"/><path d="M281.91 91.419c-.326.454-.63.927-.912 1.419a16.367 16.367 0 0 0-1.305 2.88l-.011.034a3.598 3.598 0 0 0-.032.096l-.062.188a.392.392 0 0 0 .253.489.388.388 0 0 0 .489-.253 15.766 15.766 0 0 1 1.343-3.047c2.757-4.807 7.696-7.596 12.859-7.837a15.533 15.533 0 0 1 8.486 2.053c.469.268.921.559 1.354.87a15.513 15.513 0 0 1 5.959 8.604 15.533 15.533 0 0 1-1.528 11.87c-4.292 7.483-13.866 10.075-21.345 5.785a15.591 15.591 0 0 1-5.863-5.917.388.388 0 0 0-.529-.15.389.389 0 0 0-.15.53 16.371 16.371 0 0 0 6.155 6.213c7.852 4.504 17.905 1.777 22.408-6.073a16.313 16.313 0 0 0 1.604-12.462 16.286 16.286 0 0 0-6.256-9.033 16.688 16.688 0 0 0-1.421-.913 16.309 16.309 0 0 0-12.462-1.605 16.293 16.293 0 0 0-9.034 6.259Z" style="fill: rgb(189, 208, 251);" class="fills"/><g style="fill: rgb(0, 0, 0);"><g style="opacity: 0.3;"><path d="M228.643 140.695a.6.6 0 0 0 .015.72c.315.402.646.8.984 1.183a.6.6 0 1 0 .901-.796 24.69 24.69 0 0 1-.938-1.128.6.6 0 0 0-.962.021Z" style="fill: rgb(145, 179, 250);" class="fills"/></g><g style="opacity: 0.3;"><path d="M231.852 144.013c.22-.249.6-.273.849-.053a24.848 24.848 0 0 0 2.409 1.877.6.6 0 0 1 .156.836c-.188.252-.562.343-.836.156a26.29 26.29 0 0 1-2.525-1.968c-.233-.205-.269-.552-.053-.848Zc-.026.032-.013.016 0 0Zm5.878 3.393c.901.468 1.84.885 2.79 1.238a.6.6 0 1 1-.419 1.127c-.995-.37-1.98-.807-2.925-1.298a.601.601 0 1 1 .554-1.067Zm5.713 2.121c.988.232 2 .405 3.01.514a.6.6 0 1 1-.129 1.195 25.683 25.683 0 0 1-3.156-.539.602.602 0 0 1 .275-1.17Zm6.06.652a24.924 24.924 0 0 0 3.043-.238.6.6 0 1 1 .168 1.19 25.761 25.761 0 0 1-3.191.25.6.6 0 1 1-.02-1.202Zm6.036-.847c.981-.264 1.954-.59 2.894-.97a.601.601 0 1 1 .451 1.114c-.985.399-2.005.741-3.033 1.017a.602.602 0 1 1-.312-1.161Zm5.647-2.287a24.806 24.806 0 0 0 2.568-1.645.601.601 0 0 1 .71.97 25.861 25.861 0 0 1-2.693 1.726.602.602 0 0 1-.585-1.051Zm4.914-3.597a24.859 24.859 0 0 0 2.087-2.227.601.601 0 1 1 .927.767 26.155 26.155 0 0 1-2.189 2.335.602.602 0 0 1-.825-.875Zm6.17-7.647a.6.6 0 0 1 .283.801 25.919 25.919 0 0 1-1.556 2.799.596.596 0 0 1-.831.181.602.602 0 0 1-.182-.83 24.877 24.877 0 0 0 1.484-2.668.602.602 0 0 1 .802-.283Z" style="fill: rgb(145, 179, 250);" class="fills"/></g></g><g style="fill: rgb(0, 0, 0);"><g style="opacity: 0.3;"><path d="M228.222 109.998a26.208 26.208 0 0 1 2.015-2.418.603.603 0 0 1 .851-.025.604.604 0 0 1 .025.85 24.992 24.992 0 0 0-1.923 2.306.602.602 0 0 1-.968-.713Zc-.003.004-.002.002 0 0Zm-.892 2.416a.6.6 0 0 1 .227.819c-.491.87-.935 1.778-1.319 2.699a.6.6 0 1 1-1.11-.462c.402-.966.867-1.918 1.382-2.829l.035-.055a.602.602 0 0 1 .785-.172Zm5.204-6.989a25.989 25.989 0 0 1 2.541-1.859.602.602 0 0 1 .65 1.012 24.888 24.888 0 0 0-2.424 1.772.6.6 0 1 1-.767-.925Zm-7.696 12.604c.32.089.507.421.418.741-.269.962-.48 1.95-.629 2.937a.602.602 0 0 1-1.189-.18c.156-1.035.378-2.071.659-3.08a.603.603 0 0 1 .741-.418Zm12.983-15.998a26.35 26.35 0 0 1 2.914-1.193.601.601 0 1 1 .387 1.139 24.75 24.75 0 0 0-2.778 1.137.602.602 0 0 1-.523-1.083Zm5.949-2.027a26.243 26.243 0 0 1 3.114-.462.602.602 0 0 1 .104 1.198c-.992.087-1.992.235-2.971.441a.602.602 0 0 1-.247-1.177Zm6.263-.544c1.048.036 2.103.137 3.135.299a.602.602 0 0 1-.186 1.188 24.715 24.715 0 0 0-2.99-.285.6.6 0 1 1 .041-1.202Z" style="fill: rgb(145, 179, 250);" class="fills"/></g><g style="opacity: 0.3;"><path d="M223.27 124.359a.594.594 0 0 0-.112.334c-.014.515-.013 1.032.003 1.537a.602.602 0 0 0 1.202-.038 25.61 25.61 0 0 1-.003-1.467.602.602 0 0 0-1.09-.366Z" style="fill: rgb(145, 179, 250);" class="fills"/></g></g><path d="M231.037 132.767a.305.305 0 0 0 .273.224l3.697.249a16.15 16.15 0 0 0 3.194 4.141l-.694 3.637a.305.305 0 0 0 .147.322l3.856 2.211a.302.302 0 0 0 .351-.035l2.789-2.436c1.706.51 3.458.726 5.187.666l2.082 3.065a.306.306 0 0 0 .332.123l4.289-1.163a.304.304 0 0 0 .225-.273l.249-3.697a16.15 16.15 0 0 0 4.141-3.194l3.637.695a.304.304 0 0 0 .321-.148l2.212-3.855a.307.307 0 0 0-.035-.352l-2.436-2.789c.51-1.706.726-3.458.666-5.187l3.065-2.082a.305.305 0 0 0 .123-.331l-1.163-4.29a.305.305 0 0 0-.273-.224l-3.697-.25a16.15 16.15 0 0 0-3.194-4.141l.695-3.637a.304.304 0 0 0-.148-.321l-3.855-2.211a.305.305 0 0 0-.352.034l-2.789 2.437a16.12 16.12 0 0 0-5.187-.666l-2.082-3.066a.305.305 0 0 0-.332-.122l-4.289 1.162a.305.305 0 0 0-.225.274l-.249 3.696a16.15 16.15 0 0 0-4.141 3.194l-3.637-.694a.305.305 0 0 0-.321.147l-2.212 3.856a.307.307 0 0 0 .035.352l2.436 2.788a16.15 16.15 0 0 0-.666 5.187l-3.065 2.082a.308.308 0 0 0-.123.332l1.163 4.29Z" style="fill: rgb(145, 179, 250);" class="fills"/><path d="M246.02 122.358a4.514 4.514 0 0 1 3.192-1.388 4.518 4.518 0 0 1 3.238 1.276 4.554 4.554 0 0 1 .112 6.431 4.553 4.553 0 0 1-6.43.111 4.514 4.514 0 0 1-1.388-3.192 4.512 4.512 0 0 1 1.276-3.238Zm5.595.753a3.326 3.326 0 0 0-2.382-.939 3.326 3.326 0 0 0-2.348 1.021 3.332 3.332 0 0 0-.939 2.383 3.317 3.317 0 0 0 1.021 2.347 3.349 3.349 0 0 0 5.045-.459 3.352 3.352 0 0 0-.397-4.353Z" style="fill: rgb(189, 208, 251);" class="fills"/><path d="M240.182 118.896a11.386 11.386 0 0 0-1.563 3.077l-.032.099a.602.602 0 0 0 1.146.365c.218-.685.51-1.348.869-1.973l.06-.103a10.025 10.025 0 0 1 3.482-3.528 10.167 10.167 0 0 1 2.503-1.079l.022-.007.066-.018a10.057 10.057 0 0 1 7.685.99 10.051 10.051 0 0 1 4.734 6.133c.708 2.61.356 5.339-.989 7.684a10.069 10.069 0 0 1-6.134 4.735c-2.61.707-5.339.356-7.684-.989a10.1 10.1 0 0 1-3.796-3.831.601.601 0 1 0-1.049.588 11.287 11.287 0 0 0 4.246 4.286 11.256 11.256 0 0 0 8.598 1.107 11.241 11.241 0 0 0 6.862-5.297 11.248 11.248 0 0 0 1.106-8.597 11.23 11.23 0 0 0-4.315-6.232 11.434 11.434 0 0 0-.98-.63c-5.081-2.914-11.496-1.442-14.837 3.22ZM101.317 66.765c-.144-1.758 2.077-2.652 3.212-1.301 11.519 13.719 38.34 53.888 23 116.69-19.246 78.794-6.06 109.948 12.556 130.208 0 0-27.476-11.753-41.869-43.486-35.339-77.911 5.665-170.85 3.101-202.111Z" style="fill: rgb(189, 208, 251);" class="fills"/><path d="M108.217 92.91c.564 9.094.948 18.194.999 27.295a442.897 442.897 0 0 1-.538 27.276c-.495 9.077-1.16 18.143-2.209 27.167-1.009 9.028-2.404 18.004-3.837 27.01-1.381 9.009-2.824 18.077-3.343 27.32-.526 9.223.04 18.658 2.313 27.709.569 2.256 1.182 4.511 1.921 6.707.699 2.21 1.496 4.391 2.331 6.556a99.302 99.302 0 0 0 5.963 12.592c4.594 8.092 10.418 15.479 17.034 21.931a1.761 1.761 0 0 0 2.496-2.485l-.005-.004c-1.564-1.615-3.109-3.246-4.575-4.94-.747-.835-1.455-1.702-2.179-2.555-.691-.88-1.417-1.733-2.08-2.633a92.796 92.796 0 0 1-7.343-11.197c-4.375-7.776-7.611-16.247-9.798-24.89a88.645 88.645 0 0 1-2.151-13.185c-.379-4.446-.417-8.928-.199-13.415.435-8.98 1.789-17.967 3.106-26.985 1.305-9.022 2.554-18.098 3.428-27.21.45-4.555.817-9.117 1.103-13.684.156-2.282.267-4.567.383-6.851.094-2.285.175-4.571.238-6.857.233-9.144.187-18.291-.147-27.424-.379-9.131-.999-18.249-1.97-27.327a.473.473 0 0 0-.941.079Z" style="fill: rgb(255, 255, 255);" class="fills"/><path d="M99.358 290.599c-1.284 2.987-5.2 3.692-7.475 1.37-12.553-12.809-44.769-52.236-37.782-113.754 5.9-51.95 4.163-80.68 2.47-93.667-.358-2.747 2.998-4.354 4.917-2.357 21.172 22.033 84.369 100.195 37.87 208.408Z" style="fill: rgb(145, 179, 250);" class="fills"/><path d="M94.962 290.368a1.269 1.269 0 0 1-1.838-.679c-.261-.751-26.035-75.876-21.094-148.479a1.27 1.27 0 0 1 2.533.172c-4.906 72.075 20.699 146.728 20.958 147.473a1.268 1.268 0 0 1-.559 1.513Z" style="fill: rgb(255, 255, 255);" class="fills"/><defs><linearGradient x1="1822.499" y1="3237.287" x2="2176.027" y2="1721.196" id="b" gradientUnits="userSpaceOnUse" gradientTransform="scale(.11968)"><stop offset="0" style="stop-color: rgb(9, 0, 93);"/><stop offset="1" style="stop-color: rgb(26, 15, 145);"/></linearGradient></defs><path d="m189.818 305.201-7.479 67.075h86.77l-11.301-67.075Z" style="fill: url(&quot;#b&quot;);" class="fills"/><defs><linearGradient x1="1958.381" y1="2310.126" x2="1883.597" y2="3091.964" id="c" gradientUnits="userSpaceOnUse" gradientTransform="scale(.11968)"><stop offset="0" style="stop-color: rgb(9, 0, 93);"/><stop offset="1" style="stop-color: rgb(26, 15, 145);"/></linearGradient></defs><path d="M287.8 386H160.806c-3.45 0-6.041-2.456-5.374-5.094l1.629-6.445c.491-1.938 2.623-3.361 5.155-3.44l122.427-3.82c2.646-.083 4.988 1.322 5.565 3.336l2.937 10.265c.764 2.667-1.84 5.198-5.345 5.198Z" style="fill: url(&quot;#c&quot;);" class="fills"/><defs><linearGradient x1="1943.013" y1="420.896" x2="1881.827" y2="2630.443" id="d" gradientUnits="userSpaceOnUse" gradientTransform="scale(.11968)"><stop offset="0" style="stop-color: rgb(9, 0, 93);"/><stop offset="1" style="stop-color: rgb(26, 15, 145);"/></linearGradient></defs><path d="M80.966 139.941v153.62c0 12.638 10.071 22.972 22.704 23.298 56.109 1.447 200.626 4.955 254.039 4.168 9.18-.136 16.617-7.482 16.882-16.659 1.03-35.689 2.703-121.507-3.488-161.348-1.303-8.391-8.385-14.665-16.872-14.936-47.013-1.504-203.318-6.28-256.705-5.081-9.208.207-16.56 7.728-16.56 16.938Z" style="fill: url(&quot;#d&quot;);" class="fills"/><path d="M90.605 139.193v145.95c0 7.379 5.923 13.391 13.301 13.501l246.119 3.68c7.314.109 13.31-5.776 13.337-13.091l.498-144.646a9.61 9.61 0 0 0-9.376-9.643l-253.213-6.16c-5.848-.143-10.666 4.559-10.666 10.409Z" style="fill: rgb(125, 151, 244);" class="fills"/><path d="M365.605 308.362c-.004 0-.007 0 0 0Zl-275.009-5.567a.47.47 0 1 1 .019-.94l274.999 5.567a.47.47 0 0 1-.009.94ZM220.285 315.161a3.874 3.874 0 0 1-3.869-3.869 3.874 3.874 0 0 1 3.869-3.87 3.874 3.874 0 0 1 3.87 3.87 3.874 3.874 0 0 1-3.87 3.869Zm0-6.799a2.933 2.933 0 0 0-2.929 2.93 2.932 2.932 0 0 0 2.929 2.929 2.933 2.933 0 0 0 2.93-2.929 2.933 2.933 0 0 0-2.93-2.93Z" style="fill: rgb(145, 179, 250);" class="fills"/><path d="M229.169 372.823a.47.47 0 0 1-.007-.94l5.246-.077a.47.47 0 1 1 .014.94l-5.253.077Zc.005 0 .002 0 0 0Z" style="fill: rgb(255, 255, 255);" class="fills"/><path d="M160.134 382.503c-.025 0-.05-.002 0 0Zc-.331-.047-.506-.288-.465-.544l.748-4.688a5.284 5.284 0 0 1 5.15-4.458l55.644-.814a.47.47 0 0 1 .014.94l-55.644.814a4.345 4.345 0 0 0-4.235 3.667l-.749 4.687a.469.469 0 0 1-.463.396Z" style="fill: rgb(145, 179, 250);" class="fills"/><path d="M300.897 155.721a5.512 5.512 0 0 1-5.506-5.506 5.512 5.512 0 0 1 5.506-5.506 5.512 5.512 0 0 1 5.506 5.506 5.512 5.512 0 0 1-5.506 5.506Zm0-9.385a3.883 3.883 0 0 0-3.878 3.879 3.883 3.883 0 0 0 3.878 3.879 3.883 3.883 0 0 0 3.879-3.879 3.883 3.883 0 0 0-3.879-3.879ZM319.173 155.721a5.512 5.512 0 0 1-5.506-5.506 5.512 5.512 0 0 1 5.506-5.506 5.512 5.512 0 0 1 5.506 5.506 5.512 5.512 0 0 1-5.506 5.506Zm0-9.385a3.883 3.883 0 0 0-3.879 3.879 3.883 3.883 0 0 0 3.879 3.879 3.883 3.883 0 0 0 3.879-3.879 3.883 3.883 0 0 0-3.879-3.879ZM337.449 155.721a5.512 5.512 0 0 1-5.506-5.506 5.512 5.512 0 0 1 5.506-5.506 5.512 5.512 0 0 1 5.506 5.506 5.512 5.512 0 0 1-5.506 5.506Zm0-9.385a3.883 3.883 0 0 0-3.879 3.879 3.883 3.883 0 0 0 3.879 3.879 3.883 3.883 0 0 0 3.878-3.879 3.883 3.883 0 0 0-3.878-3.879ZM252.121 270.877l-142.311.96c-4.081.027-7.361-3.719-7.223-8.249l2.719-89.051c.124-4.057 3.13-7.272 6.785-7.255l138.551.649c3.736.018 6.749 3.396 6.73 7.546l-.422 90.031c-.014 2.956-2.168 5.351-4.829 5.369ZM255.264 285.144h-150.57c-1.05 0-1.902-.986-1.902-2.202v-4.023c0-1.228.867-2.219 1.927-2.202l150.57 2.31c1.041.016 1.877.997 1.877 2.202v1.713c0 1.217-.852 2.202-1.902 2.202Z" style="fill: rgb(189, 208, 251);" class="fills"/><path d="m348.554 294.873-.141-.002-244.786-4.413c-5.028-.091-9.052-4.255-8.969-9.283l2.223-135.913a10.199 10.199 0 0 1 3.156-7.239c1.989-1.91 4.606-2.939 7.361-2.858l239.901 5.823a9.014 9.014 0 0 1 8.847 9.064v137.225a7.543 7.543 0 0 1-2.273 5.419 7.54 7.54 0 0 1-5.319 2.177Zm-241.41-158.084c-2.242 0-4.358.85-5.98 2.408a8.582 8.582 0 0 0-2.656 6.093l-2.223 135.912c-.068 4.132 3.239 7.555 7.371 7.629l244.787 4.413a5.931 5.931 0 0 0 4.289-1.709 5.921 5.921 0 0 0 1.786-4.257V150.052a7.395 7.395 0 0 0-7.259-7.437l-239.901-5.824a15.268 15.268 0 0 0-.214-.002Z" style="fill: rgb(189, 208, 251);" class="fills"/><path d="M342.139 210.627Zl-69.947-1.351c-3.257-.063-5.907-2.764-5.907-6.022v-30.076c0-4.337 3.529-7.865 7.866-7.865h67.988c4.337 0 7.866 3.528 7.866 7.865v29.584c0 4.337-3.529 7.865-7.866 7.865Zm-67.988-44.094a6.653 6.653 0 0 0-6.645 6.645v30.076c0 2.598 2.113 4.752 4.71 4.802l69.929 1.351a6.653 6.653 0 0 0 6.639-6.645v-29.584a6.652 6.652 0 0 0-6.645-6.644l-67.988-.001Z" style="fill: rgb(189, 208, 251);" class="fills"/><g style="opacity: 0.4;"><path d="M346.717 285.431h-77.144a2.678 2.678 0 0 1-2.678-2.677v-3.647c0-1.5 1.233-2.707 2.733-2.677l77.144 1.583a2.676 2.676 0 0 1 2.622 2.676v2.064a2.677 2.677 0 0 1-2.677 2.678Z" style="fill: rgb(255, 255, 255);" class="fills"/></g><path d="M345.45 272.432c-.022 0-.046 0 0 0Zl-74.883-1.089c-2.476-.036-4.49-2.08-4.49-4.556V245.26a4.52 4.52 0 0 1 1.359-3.246 4.52 4.52 0 0 1 3.267-1.31l74.814 1.139c2.475.037 4.487 2.082 4.487 4.556v21.476c0 1.23-.482 2.382-1.358 3.246a4.52 4.52 0 0 1-3.196 1.311Zm-74.818-30.508c-.881 0-1.71.34-2.34.959a3.316 3.316 0 0 0-.995 2.377v21.527a3.35 3.35 0 0 0 3.288 3.336l74.814 1.088c.897.031 1.75-.328 2.391-.959a3.313 3.313 0 0 0 .994-2.377v-21.476a3.35 3.35 0 0 0-3.285-3.336l-74.867-1.139Zc.035 0 .017 0 0 0ZM344.245 237.519c-.024 0-.047 0 0 0Zl-72.344-1.122c-2.373-.037-4.303-1.998-4.303-4.37v-16.751c0-1.186.467-2.296 1.315-3.125a4.322 4.322 0 0 1 3.153-1.245l72.274 1.618c2.356.053 4.273 2.013 4.273 4.37v16.254a4.339 4.339 0 0 1-1.304 3.115 4.34 4.34 0 0 1-3.064 1.256Zm-72.279-25.393c-.827 0-1.606.317-2.2.898a3.125 3.125 0 0 0-.948 2.252v16.751a3.165 3.165 0 0 0 3.102 3.15l72.274 1.121a3.12 3.12 0 0 0 2.258-.905c.607-.597.94-1.394.94-2.245v-16.254a3.168 3.168 0 0 0-3.079-3.15l-72.347-1.618Zc.049 0 .024 0 0 0ZM108.396 141.857l174.936 4.782a3.52 3.52 0 0 1 3.425 3.519v8.979a3.52 3.52 0 0 1-3.547 3.52l-176.506-1.302a3.521 3.521 0 0 1-3.495-3.521v-10.93a5.048 5.048 0 0 1 5.187-5.047Z" style="fill: rgb(189, 208, 251);" class="fills"/><defs><linearGradient x1="878.645" y1="1279.317" x2="2381.994" y2="1279.317" id="e" gradientUnits="userSpaceOnUse" gradientTransform="scale(.11968)"><stop offset="0" style="stop-color: rgb(218, 227, 254);"/><stop offset="1" style="stop-color: rgb(233, 239, 253);"/></linearGradient></defs><path d="M281.032 159.6c-.009 0-.019 0 0 0Zl-171.869-.735c-2.249-.01-4.01-1.152-4.01-2.599v-7.059c0-.522.227-1.021.655-1.443.757-.746 2.061-1.176 3.486-1.155l171.84 2.725c2.243.036 3.935 1.152 3.935 2.598v5.07c0 .517-.223 1.012-.644 1.432-.734.731-2.001 1.166-3.393 1.166Zm-171.839-11.771c-1.043 0-2.029.312-2.529.805-.193.189-.29.382-.29.573v7.059c0 .645 1.195 1.371 2.795 1.378l171.84.736h.022c1.045 0 2.038-.317 2.533-.811.189-.188.284-.379.284-.567v-5.07c0-.631-1.122-1.352-2.733-1.378l-171.922-2.725Zc.055 0 .027 0 0 0Z" style="fill: url(&quot;#e&quot;);" class="fills"/><defs><linearGradient x1="1091.547" y1="1032.006" x2="556.258" y2="1969.416" id="f" gradientUnits="userSpaceOnUse" gradientTransform="scale(.11968)"><stop offset="0" style="stop-color: rgb(79, 82, 255);"/><stop offset="1" style="stop-color: rgb(64, 66, 226);"/></linearGradient></defs><path d="m113.639 156.87-12.704 12.934a1.305 1.305 0 0 0 .092 1.913l.095.08a1.213 1.213 0 0 0 1.714-.155l11.633-14.03-.83-.742Z" style="fill: url(&quot;#f&quot;);" class="fills"/><g style="opacity: 0.2;"><defs><linearGradient x1="2465.006" y1="2025.634" x2="2605.547" y2="2025.634" id="g" gradientUnits="userSpaceOnUse" gradientTransform="rotate(-25.514 7.396 603.367) scale(.11968)"><stop offset="0" style="stop-color: rgb(83, 216, 255);"/><stop offset="1" style="stop-color: rgb(56, 64, 247);"/></linearGradient></defs><path d="M126.689 146.51c1.965 4.116.159 9.074-4.032 11.075-4.192 2-9.182.285-11.147-3.831-1.964-4.116-.159-9.075 4.033-11.075s9.182-.285 11.146 3.831Z" style="fill: url(&quot;#g&quot;);" class="fills"/></g><defs><linearGradient x1="1114.678" y1="1045.214" x2="579.388" y2="1982.624" id="h" gradientUnits="userSpaceOnUse" gradientTransform="scale(.11968)"><stop offset="0" style="stop-color: rgb(79, 82, 255);"/><stop offset="1" style="stop-color: rgb(64, 66, 226);"/></linearGradient></defs><path d="M115.142 141.839c-4.664 2.226-6.673 7.743-4.488 12.323 2.186 4.58 7.739 6.489 12.404 4.263 4.664-2.226 6.673-7.743 4.487-12.324-2.186-4.58-7.739-6.488-12.403-4.262Zm7.334 15.368c-3.979 1.899-8.716.27-10.581-3.637-1.865-3.907-.151-8.614 3.828-10.513 3.979-1.899 8.717-.271 10.581 3.636 1.865 3.908.151 8.615-3.828 10.514Z" style="fill: url(&quot;#h&quot;);" class="fills"/><defs><linearGradient x1="2293.174" y1="1364.864" x2="1426.263" y2="2680.528" id="i" gradientUnits="userSpaceOnUse" gradientTransform="scale(.11968)"><stop offset="0" style="stop-color: rgb(255, 146, 142);"/><stop offset="1" style="stop-color: rgb(254, 112, 98);"/></linearGradient></defs><path d="M270.334 224.635h-43.881c-10.452 0-18.956-8.504-18.956-18.957v-5.616c0-10.453 8.504-18.957 18.956-18.957h43.881c10.452 0 18.956 8.504 18.956 18.957v5.616c0 10.453-8.504 18.957-18.956 18.957Zm-43.881-36.509c-6.581 0-11.935 5.355-11.935 11.936v5.616c0 6.582 5.354 11.936 11.935 11.936h43.881c6.581 0 11.935-5.354 11.935-11.936v-5.616c0-6.582-5.354-11.936-11.935-11.936h-43.881Z" style="fill: url(&quot;#i&quot;);" class="fills"/><defs><linearGradient x1="1552.605" y1="1716.807" x2="1244.281" y2="3207.037" id="j" gradientUnits="userSpaceOnUse" gradientTransform="scale(.11968)"><stop offset="0" style="stop-color: rgb(79, 82, 255);"/><stop offset="1" style="stop-color: rgb(64, 66, 226);"/></linearGradient></defs><path d="M208.287 224.635h-43.881c-10.452 0-18.956-8.504-18.956-18.957v-5.616c0-10.453 8.504-18.957 18.956-18.957h43.881c10.452 0 18.956 8.504 18.956 18.957v5.616c0 10.453-8.504 18.957-18.956 18.957Zm3.123-36.094a11.88 11.88 0 0 0-3.123-.415h-43.881c-6.581 0-11.935 5.354-11.935 11.936v5.616c0 6.582 5.354 11.936 11.935 11.936h43.881c6.581 0 11.935-5.355 11.935-11.936v-5.616c0-5.501-3.741-10.145-8.812-11.521Z" style="fill: url(&quot;#j&quot;);" class="fills"/><defs><linearGradient x1="2257.748" y1="1341.521" x2="1390.838" y2="2657.183" id="k" gradientUnits="userSpaceOnUse" gradientTransform="scale(.11968)"><stop offset="0" style="stop-color: rgb(255, 146, 142);"/><stop offset="1" style="stop-color: rgb(254, 112, 98);"/></linearGradient></defs><path d="M216.023 194.27c2.04-3.661 5.95-6.144 10.43-6.144h43.881c4.48 0 8.39 2.483 10.431 6.144h7.619c-2.454-7.629-9.617-13.165-18.05-13.165h-43.881c-8.433 0-15.596 5.536-18.05 13.165h7.62Z" style="fill: url(&quot;#k&quot;);" class="fills"/><defs><linearGradient x1="-2352.874" y1="52.016" x2="-2028.894" y2="-375.739" id="l" gradientUnits="userSpaceOnUse" gradientTransform="matrix(-.11968 0 0 .11968 -254.876 0)"><stop offset="0" style="stop-color: rgb(254, 187, 186);"/><stop offset="1" style="stop-color: rgb(255, 146, 142);"/></linearGradient></defs><path d="M204.421 249.466c.124.393-1.308.991-2.151-.616-.029-.77-.498-4.071-.037-4.698 2.451-3.342 7.204-7.532 7.204-7.532.804.792.142 1.571.142 1.571l-2.306 2.402c.482.872 1.071 1.607 1.346 2.662a3.232 3.232 0 0 1-.322 2.378c-.405.729-.957 1.677-1.479 2.419-.988 1.403-2.397 1.414-2.397 1.414Z" style="fill: url(&quot;#l&quot;);" class="fills"/><defs><linearGradient x1="1795.376" y1="1990.586" x2="1516.956" y2="2198.137" id="m" gradientUnits="userSpaceOnUse" gradientTransform="scale(.11968)"><stop offset="0" style="stop-color: rgb(254, 187, 186);"/><stop offset="1" style="stop-color: rgb(255, 146, 142);"/></linearGradient></defs><path d="m206.265 242.151-2.102 1.782-.659 1.773 1.873 2.079s.63-3.519 1.098-4.281c.468-.761.226-1.13-.21-1.353Z" style="fill: url(&quot;#m&quot;);" class="fills"/><defs><linearGradient x1="8603.598" y1="3145.948" x2="8175.282" y2="3611.835" id="n" gradientUnits="userSpaceOnUse" gradientTransform="matrix(.11968 0 0 .11968 -850.303 0)"><stop offset="0" style="stop-color: rgb(79, 82, 255);"/><stop offset="1" style="stop-color: rgb(64, 66, 226);"/></linearGradient></defs><path d="M163.146 380.65s-.531 3.005-.791 5.98a2.05 2.05 0 0 0 1.96 2.221c3.962.164 12.436.485 15.477.35a.668.668 0 0 0 .587-.914 1.492 1.492 0 0 0-.764-.804l-13.997-6.434-2.472-.399Z" style="fill: url(&quot;#n&quot;);" class="fills"/><defs><linearGradient x1="8464.572" y1="3180.55" x2="8502.617" y2="3180.55" id="o" gradientUnits="userSpaceOnUse" gradientTransform="matrix(.11968 0 0 .11968 -850.303 0)"><stop offset="0" style="stop-color: rgb(254, 187, 186);"/><stop offset="1" style="stop-color: rgb(255, 146, 142);"/></linearGradient></defs><path d="m162.711 378.884.426 3.594s2.453 1.142 4.127-.143l-1.015-4.006-3.538.555Z" style="fill: url(&quot;#o&quot;);" class="fills"/><defs><linearGradient x1="8637.322" y1="2619.079" x2="8272.867" y2="3113.052" id="p" gradientUnits="userSpaceOnUse" gradientTransform="matrix(.11968 0 0 .11968 -850.303 0)"><stop offset="0" style="stop-color: rgb(79, 82, 255);"/><stop offset="1" style="stop-color: rgb(64, 66, 226);"/></linearGradient></defs><path d="M163.031 311.303c-.184.939-.988 46.845 3.919 67.417a.7.7 0 0 1-.41.812c-.753.307-2.228.753-3.996.812a1.2 1.2 0 0 1-1.193-.863c-1.403-4.773-8.124-28.687-9.001-51.532-.98-25.527 0-.869 0-.869l.574-15.779 10.107.002Z" style="fill: url(&quot;#p&quot;);" class="fills"/><defs><linearGradient x1="8507.511" y1="3057.613" x2="8079.198" y2="3523.498" id="q" gradientUnits="userSpaceOnUse" gradientTransform="matrix(.11968 0 0 .11968 -850.303 0)"><stop offset="0" style="stop-color: rgb(79, 82, 255);"/><stop offset="1" style="stop-color: rgb(64, 66, 226);"/></linearGradient></defs><path d="M147.044 382.218s-.845 1.517-1.663 5.548a1.25 1.25 0 0 0 1.1 1.498c1.308.128 3.322.294 4.935.283a1.246 1.246 0 0 0 1.234-1.391c-.178-1.472-.735-3.886-2.455-5.768l-3.151-.17Z" style="fill: url(&quot;#q&quot;);" class="fills"/><defs><linearGradient x1="8327.458" y1="3178.6" x2="8360.307" y2="3178.6" id="r" gradientUnits="userSpaceOnUse" gradientTransform="matrix(.11968 0 0 .11968 -850.303 0)"><stop offset="0" style="stop-color: rgb(254, 187, 186);"/><stop offset="1" style="stop-color: rgb(255, 146, 142);"/></linearGradient></defs><path d="m146.302 377.594.996 5.436s.986.733 2.935.202l-.476-5.849-3.455.211Z" style="fill: url(&quot;#r&quot;);" class="fills"/><defs><linearGradient x1="8572.368" y1="2571.155" x2="8207.912" y2="3065.128" id="s" gradientUnits="userSpaceOnUse" gradientTransform="matrix(.11968 0 0 .11968 -850.303 0)"><stop offset="0" style="stop-color: rgb(79, 82, 255);"/><stop offset="1" style="stop-color: rgb(64, 66, 226);"/></linearGradient></defs><path d="M143.609 312.711c-4.013 24.221.871 59.863 2.518 66.839.101.428.446.755.878.827.736.121 1.946.221 3.139-.126.411-.119.7-.49.717-.918.221-5.64-.177-40.264 3.563-53.947a3.11 3.11 0 0 1 1.199-1.715l7.258-5.16.556-8.34-19.828 2.54Z" style="fill: url(&quot;#s&quot;);" class="fills"/><defs><linearGradient x1="501.437" y1="13688.542" x2="756.385" y2="13324.816" id="t" gradientUnits="userSpaceOnUse" gradientTransform="matrix(.11968 0 0 .11968 -850.303 0)"><stop offset="0" style="stop-color: rgb(255, 146, 142);"/><stop offset="1" style="stop-color: rgb(254, 112, 98);"/></linearGradient></defs><path d="M169.182 266.818c-12.027-.198-25.297 3.158-25.297 3.158-3.585 20.919-.627 45.047-.627 45.047 9.311 2.442 19.814-1.493 19.814-1.493 1.548-8.744 8.768-33.35 8.768-33.35 5.876-.73 10.717-2.425 14.704-4.667-3.041-3.524-4.475-8.009-5.097-10.661-4.252 1.322-8.555 2.028-12.265 1.966Z" style="fill: url(&quot;#t&quot;);" class="fills"/><defs><linearGradient x1="-2219.798" y1="152.81" x2="-1895.819" y2="-274.944" id="u" gradientUnits="userSpaceOnUse" gradientTransform="matrix(-.11968 0 0 .11968 -254.876 0)"><stop offset="0" style="stop-color: rgb(254, 187, 186);"/><stop offset="1" style="stop-color: rgb(255, 146, 142);"/></linearGradient></defs><path d="M204.708 249.103c-1.182-1.427-2.677-.752-2.677-.752-1.77 7.476-11.05 13.538-20.584 16.501.622 2.652 2.056 7.137 5.097 10.661 15.823-8.896 18.164-26.41 18.164-26.41Z" style="fill: url(&quot;#u&quot;);" class="fills"/><defs><linearGradient x1="389.756" y1="13610.289" x2="644.703" y2="13246.564" id="v" gradientUnits="userSpaceOnUse" gradientTransform="matrix(.11968 0 0 .11968 -850.303 0)"><stop offset="0" style="stop-color: rgb(255, 146, 142);"/><stop offset="1" style="stop-color: rgb(254, 112, 98);"/></linearGradient></defs><path d="m148.498 281.622-4.613-11.646s-11.234 7.633-13.082 17.311c2.123.156 5.985.709 9.766 2.617.831-4.569 7.929-8.282 7.929-8.282Z" style="fill: url(&quot;#v&quot;);" class="fills"/><defs><linearGradient x1="1217.649" y1="2359.179" x2="1447.978" y2="2037.73" id="w" gradientUnits="userSpaceOnUse" gradientTransform="scale(.11968)"><stop offset="0" style="stop-color: rgb(254, 187, 186);"/><stop offset="1" style="stop-color: rgb(255, 146, 142);"/></linearGradient></defs><path d="m157 257.054-3.827 11.067a.399.399 0 0 0 .182.48c1.043.577 4.801 2.244 9.33-.627.472-.299.793-.787.865-1.341l1.239-9.579H157Z" style="fill: url(&quot;#w&quot;);" class="fills"/><defs><linearGradient x1="561.715" y1="4444.648" x2="525.374" y2="4324.788" id="x" gradientUnits="userSpaceOnUse" gradientTransform="matrix(.08928 -.0797 .0797 .08928 -236.799 -96.121)"><stop offset="0" style="stop-color: rgb(254, 187, 186);"/><stop offset="1" style="stop-color: rgb(255, 146, 142);"/></linearGradient></defs><path d="M165.326 246.806s4.203 7.91 3.664 11.106c-.539 3.195-5.747 2.966-10.295.37l-3.178-8.541 9.809-2.935Z" style="fill: url(&quot;#x&quot;);" class="fills"/><defs><linearGradient x1="-1511.181" y1="2143.026" x2="-1107.309" y2="2059.466" id="y" gradientUnits="userSpaceOnUse" gradientTransform="matrix(-.11968 0 0 .11968 13.153 0)"><stop offset="0" style="stop-color: rgb(9, 0, 93);"/><stop offset="1" style="stop-color: rgb(26, 15, 145);"/></linearGradient></defs><path d="M158.896 254.088a.326.326 0 0 0 .143-.477c-.337-.515-.968-1.564-1.17-2.483 0 0-.755-.483 1.923-1.124 2.678-.642 6.672-1.637 7.512-3.916.818-2.223-1.332-7.812-4.763-3.359a.326.326 0 0 1-.517.004c-.562-.732-2.041-2.251-4.094-1.33-1.921.862-2.137 2.269-2.111 2.979a.324.324 0 0 1-.384.332c-.971-.185-3.302-.345-4.39 2.046-.896 1.97-.314 3.085.217 3.63a.325.325 0 0 1-.139.54c-.639.195-1.463.737-1.38 2.232.114 2.068 2.425 1.886 3.083 1.792a.325.325 0 0 1 .29.102c.564.624 3.107 3.276 5.859 3.596a.33.33 0 0 0 .345-.435l-1.191-3.462a.329.329 0 0 1 .177-.406l.59-.261Z" style="fill: url(&quot;#y&quot;);" class="fills"/><defs><linearGradient x1="524.566" y1="4444.09" x2="491.869" y2="4336.249" id="z" gradientUnits="userSpaceOnUse" gradientTransform="matrix(.08928 -.0797 .0797 .08928 -236.799 -96.121)"><stop offset="0" style="stop-color: rgb(254, 187, 186);"/><stop offset="1" style="stop-color: rgb(255, 146, 142);"/></linearGradient></defs><path d="M159.375 254.579s-2.992-2.053-3.211-.324c-.218 1.729 2.695 2.504 4.138 1.86l-.927-1.536Z" style="fill: url(&quot;#z&quot;);" class="fills"/><defs><linearGradient x1="2087.627" y1="2818.91" x2="2011.695" y2="3259.322" id="A" gradientUnits="userSpaceOnUse" gradientTransform="matrix(.11968 0 0 .11968 -120.431 0)"><stop offset="0" style="stop-color: rgb(254, 187, 186);"/><stop offset="1" style="stop-color: rgb(255, 146, 142);"/></linearGradient></defs><path d="M140.569 289.904s-3.927 17.714-.37 27.673c-4.36 2.022-3.555 1.641-3.555 1.641s-8.626-25.204-5.841-31.931c5.491-.582 8.214.893 9.766 2.617Z" style="fill: url(&quot;#A&quot;);" class="fills"/><defs><linearGradient x1="2145.711" y1="2828.925" x2="2069.778" y2="3269.335" id="B" gradientUnits="userSpaceOnUse" gradientTransform="matrix(.11968 0 0 .11968 -120.431 0)"><stop offset="0" style="stop-color: rgb(254, 187, 186);"/><stop offset="1" style="stop-color: rgb(255, 146, 142);"/></linearGradient></defs><path d="M140.199 317.577s2.247 2.908 2.067 4.066c-.179 1.159-.222 1.631-.222 1.631s-1.129-.773-1.058-1.759c.157 3.131 1.205 6.692.252 6.521-.953-.172-5.887-4.72-4.771-9.567 2.531-1.759 3.24-1.568 3.732-.892Z" style="fill: url(&quot;#B&quot;);" class="fills"/><g style="fill: rgb(0, 0, 0);"><g style="opacity: 0.9;"><path d="M258.574 387.347c-26.328-13.069-46.639-33.628-48.905-76.648 0 0 68.525 22.878 48.905 76.648Z" style="fill: rgb(145, 179, 250);" class="fills"/></g><g style="opacity: 0.9;"><path d="M254.315 377.696a.348.348 0 0 1-.329-.234c-11.966-34.113-35.169-53.851-35.402-54.047a.349.349 0 0 1 .449-.535c.234.197 23.579 20.049 35.612 54.351a.349.349 0 0 1-.33.465Z" style="fill: rgb(189, 208, 251);" class="fills"/></g></g><path d="M255.914 386.284c-18.505 1.708-36.258-2.612-51.759-25.007 0 0 44.466-10.438 51.759 25.007Z" style="fill: rgb(189, 208, 251);" class="fills"/><defs><linearGradient x1="1761.517" y1="3106.705" x2="2053.563" y2="3106.705" id="C" gradientUnits="userSpaceOnUse" gradientTransform="scale(.11968)"><stop offset="0" style="stop-color: rgb(218, 227, 254);"/><stop offset="1" style="stop-color: rgb(233, 239, 253);"/></linearGradient></defs><path d="M245.414 380.37a.348.348 0 0 1-.266-.124c-10.444-12.31-33.809-16.283-34.043-16.322a.348.348 0 0 1-.288-.401.343.343 0 0 1 .401-.287c.237.039 23.855 4.055 34.463 16.559a.35.35 0 0 1-.267.575Z" style="fill: url(&quot;#C&quot;);" class="fills"/><defs><linearGradient x1="1811.486" y1="3801.763" x2="3579.124" y2="823.976" id="D" gradientUnits="userSpaceOnUse" gradientTransform="scale(.11968)"><stop offset="0" style="stop-color: rgb(9, 0, 93);"/><stop offset="1" style="stop-color: rgb(26, 15, 145);"/></linearGradient></defs><path d="M259.137 242.009c-3.783.313-6.695 3.468-6.721 7.264-.161 23.213-.596 103.281.802 131.628a5.695 5.695 0 0 0 5.606 5.416c14.869.22 57.641.689 81.93-.765 5.059-.303 9.012-4.476 9.026-9.544.07-24.363-.04-92.882-3.249-124.215a7.826 7.826 0 0 0-7.15-7.003c-16.213-1.33-59.268-4.519-80.244-2.781Z" style="fill: url(&quot;#D&quot;);" class="fills"/><defs><linearGradient x1="3333.181" y1="959.885" x2="2252.202" y2="3081.05" id="E" gradientUnits="userSpaceOnUse" gradientTransform="scale(.11968)"><stop offset="0" style="stop-color: rgb(255, 146, 142);"/><stop offset="1" style="stop-color: rgb(254, 112, 98);"/></linearGradient></defs><path d="M258.583 256.375c-.472 19.017-1.902 82.281-.672 105.643a6.615 6.615 0 0 0 6.339 6.268c14.067.571 50.143 1.74 70.726-.278a7.436 7.436 0 0 0 6.698-7.139c.698-19.406 2.645-78.324 1.453-101.425a7.309 7.309 0 0 0-6.781-6.91c-15.227-1.093-54.33-3.643-71.829-2.374a6.391 6.391 0 0 0-5.934 6.215Z" style="fill: url(&quot;#E&quot;);" class="fills"/><g style="opacity: 0.09;"><path d="M262.465 260.692c-.417 17.387-1.677 75.227-.567 96.587.162 3.122 2.62 5.605 5.681 5.733 12.604.526 44.928 1.607 63.368-.232 3.321-.331 5.881-3.122 6-6.525.619-17.741 2.344-71.608 1.269-92.729-.172-3.369-2.78-6.077-6.078-6.32-13.644-1.004-48.68-3.348-64.358-2.194-2.943.217-5.243 2.67-5.315 5.68Z" style="fill: rgb(255, 255, 255);" class="fills"/></g><defs><linearGradient x1="2637.345" y1="1451.135" x2="2463.979" y2="2219.379" id="F" gradientUnits="userSpaceOnUse" gradientTransform="scale(.11968)"><stop offset="0" style="stop-color: rgb(79, 82, 255);"/><stop offset="1" style="stop-color: rgb(64, 66, 226);"/></linearGradient></defs><path d="M289.087 245.529Za1.337 1.337 0 0 0 1.29 1.314c3.513.121 13.41.464 17.834.642a1.337 1.337 0 0 0 1.361-1.615l-.031-.146a1.338 1.338 0 0 0-1.21-1.058c-2.991-.22-12.018-.818-17.986-.498a1.336 1.336 0 0 0-1.258 1.361Z" style="fill: url(&quot;#F&quot;);" class="fills"/><g style="opacity: 0.4;"><path d="m325.943 335.622-53.823-.634a7.373 7.373 0 0 1-7.283-7.531l1.255-57.841a7.37 7.37 0 0 1 7.465-7.21l53.45.699a7.371 7.371 0 0 1 7.273 7.483l-.88 57.776a7.37 7.37 0 0 1-7.457 7.258Z" style="fill: rgb(255, 255, 255);" class="fills"/></g><path d="M301.647 318.07c-8.311.149-15.177-6.28-15.321-14.331-.144-8.066 6.488-14.737 14.783-14.885 8.312-.149 15.178 6.281 15.322 14.331v.016c.144 8.051-6.488 14.721-14.784 14.869Zm-.506-28.354c-7.822.14-14.062 6.416-13.927 13.992.136 7.59 6.596 13.64 14.402 13.5 7.822-.14 14.062-6.416 13.926-13.991v-.016c-.135-7.575-6.596-13.624-14.401-13.485Z" style="fill: rgb(255, 255, 255);" class="fills"/><path d="M297.359 310.874a.769.769 0 0 1-.791-.722l-.587-12.891a1.2 1.2 0 0 1 .548-1.061 1.28 1.28 0 0 1 1.218-.107l13.234 5.724c.437.189.721.595.742 1.058.021.464-.226.893-.644 1.119l-11.481 6.202a.79.79 0 0 1-1.059-.292.745.745 0 0 1 .302-1.029l10.95-5.916-12.231-5.29.565 12.414c.019.418-.314.771-.766.791Zc.014-.001.008-.001 0 0Z" style="fill: rgb(255, 255, 255);" class="fills"/></g></svg>