<svg width="756" xmlns="http://www.w3.org/2000/svg" height="756" fill="none"><g xml:space="preserve" style="fill: rgb(0, 0, 0);"><path d="M250.712 153.039c-59.73 32.373-80.782 116.876-55 178.751 25.781 61.874 58.437 76.484 97.968 97.968 39.531 21.484 80.782 60.157 89.376 76.484 8.593 16.329 24.062 38.672 24.062 38.672l-6.875 8.595s-1.719 12.031 2.578 13.75c4.296 1.719 9.453 2.578 9.453 2.578l2.578 8.593s-5.157 6.875-1.719 11.172c3.438 4.297 13.75 7.734 13.75 7.734l8.594 9.454 28.359 9.452s20.626 10.313 36.094 2.578c15.469-7.734 28.36-36.094 29.22-38.672.859-2.577 0-11.17 1.719-13.749 1.718-2.578 5.155-12.891 3.436-18.907-1.718-6.015-10.311-10.312-10.311-10.312l-2.578-11.172s4.296-10.312 1.718-14.61c-2.577-4.297-8.594-6.015-8.594-6.015s1.719-9.453-4.297-15.469c-6.015-6.015-11.172-8.594-11.172-8.594s-16.327-28.359-19.765-45.547c-3.438-17.188-2.578-48.125 6.875-86.797s17.188-124.61-28.359-165.86c-45.547-41.249-94.532-91.092-207.11-30.077Z" style="fill: rgb(42, 107, 204); fill-opacity: 1;" class="fills"/><path d="M534.306 547.492c-1.719-6.015-10.312-10.312-10.312-10.312l-2.578-11.172s4.296-10.312 1.717-14.61c-2.577-4.297-8.594-6.015-8.594-6.015s1.719-9.453-4.297-15.469c-6.015-6.015-11.171-8.593-11.171-8.593s-16.329-28.36-19.764-45.548c-3.439-17.187-2.58-48.125 6.874-86.796 9.452-38.672 17.187-124.61-28.36-165.86-45.548-41.25-94.531-91.093-207.109-30.078-59.73 32.373-80.78 116.876-55 178.751 25.783 61.874 58.437 76.484 97.968 97.968 39.531 21.484 80.782 60.156 89.376 76.484 8.594 16.329 24.063 38.672 24.063 38.672l-6.876 8.595s-1.717 12.03 2.58 13.749c4.296 1.72 9.451 2.578 9.451 2.578l2.579 8.594s-5.156 6.876-1.719 11.173c3.437 4.296 13.749 7.734 13.749 7.734l8.594 9.453 28.36 9.453s20.624 10.313 36.094 2.578c15.469-7.734 28.36-36.094 29.22-38.672.859-2.578 0-11.171 1.717-13.749 1.719-2.58 5.156-12.892 3.438-18.908Zm-57.111-24.89-.966 3.541c-1.615 5.925-10.891 7.801-13.781 1.801-1.896-3.938-3.685-8.344-5.494-12.89-3.272-6.724-6.3-13.592-9.544-20.311-.848-.799-1.609-1.764-2.144-3.055-.485-1.172-1.026-2.51-1.54-3.771-3.755-2.599-5.522-5.747-6.398-10.415-2.287-3.047-4.525-5.92-6.324-8.956-2.979-3.327-10.356-18.13-13.3-17.998-1.139.052-12.603-20.242-13.693-20.421.419.679 16.368 41.484 16.715 42.226.574 1.226.712 2.559.639 3.884.778 1.581 1.005 3.366.693 5.119 2.658 4.546 4.721 9.415 7.107 14.105 5.728 11.269 12.642 27.492 20.491 37.033 6.122 7.44-4.493 18.162-10.663 10.662-9.592-11.66-15.926-26.629-22.85-40.084-6.266-12.185-19.234-24.136-22.722-37.307-.026-.098-.006-.182-.028-.279-1.258-1.085-2.521-2.169-3.564-3.344-5.371-6.045-10.145-12.79-15.399-18.972-.566-.667-.851-1.378-1.157-2.083-1.074-.577-2.105-1.309-3.174-1.9-2.747-1.521-4.822-3.66-6.368-6.099-.81-.446-1.595-.935-2.428-1.345-7.475-3.686-15.052-6.792-22.113-11.281-.243-.154-.448-.344-.687-.504-3.266 3.263-7.806 5.445-13.806 5.445-12.338 0-18.838-8.918-19.688-18.443-.267.006-.489.075-.761.075-3.245 0-6.103-.57-8.782-1.37-4.791-.94-8.493-3.305-11.044-6.595-2.357-2.429-4.156-5.289-5.476-8.374-1.464-2.687-2.451-5.62-3.057-8.651-8.768-1.499-15.56-5.595-20.604-11.145-2.274-1.358-4.332-2.939-6.016-4.842-4.276-3.138-7.368-7.421-9.193-12.285-.247-.34-.381-.749-.618-1.096-4.207-4.511-6.674-10.378-7.427-16.547-6.007-3.31-9.446-9.422-9.971-16.016-2.741-7.105-1.805-15.793 2.881-21.786-1.536-5.759-.957-12.171 2.011-17.289-5.552-4.859-7.694-12.795-6.395-20.044-.343-6.677 2.081-13.495 7.336-17.694-1.84-11.889 2.237-24.793 12.418-31.715 1.489-1.415 3.245-2.57 5.037-3.687.487-7.671 2.464-15.219 6.22-21.804 4.627-10.597 12.785-19.508 24.996-23.586 6.753-4.557 15.128-7.466 25.43-7.466 1.547 0 2.884.312 4.35.432 4.594-4.485 11.006-7.403 19.319-7.403.96 0 1.843.115 2.754.19.656-.037 1.233-.19 1.915-.19 6.845 0 12.325 2.048 16.644 5.228 3.531-.808 7.283-1.316 11.371-1.316 8.929 0 16.436 2.135 22.659 5.671 7.998 2.761 14.379 7.46 19.059 13.489 6.728 1.702 12.351 4.824 16.984 8.843 6.461 3.817 10.647 9.97 12.645 16.883 1.13 2.748 1.768 5.661 2.136 8.623 2.555 1.784 4.563 4.057 6.297 6.516 4.578 3.157 7.862 7.567 9.93 12.554 5.528.284 9.88 2.288 13.128 5.264 3.084 2.032 5.346 4.862 6.915 8.051v.001c1.166 1.881 2.017 3.93 2.6 6.087.027.093.045.184.069.277.811 3.144 1.521 6.227 1.013 9.42.213 2.19-.628 4.549-.837 6.741 2.634 4.252 4.285 9.103 4.672 14.145 1.538 3.567 2.355 7.409 2.236 11.295-.354 11.603-2.179 23.74-6.706 34.467-.925 2.192-2.083 4.127-3.236 6.068 1.153 6.492.33 13.321-2.314 19.298-2.329 6.911-7.006 12.876-14.003 16.182 5.512 7.893 7.867 18.344 5.114 27.622-.78 9.642-6.692 19.019-15.567 23.756.798 2.589.884 5.309.612 8.013.779.866 1.413 1.935 1.632 3.472 2.85 20.005 10.966 38.458 15.355 58.035 4.484 7.841 7.778 16.369 11.223 24.881 1.089 2.186 2.276 4.345 3.484 6.494 2.83 1.56 4.76 4.762 3.748 8.47Z" style="fill: rgb(244, 243, 242);" class="fills"/><path d="M447.834 496.701c-1.629-3.522 1.256 1.523-.424-1.958-.848-.799-1.609-1.764-2.144-3.055-.485-1.172-1.026-2.51-1.54-3.771-.319-.22-.494-.496-.784-.726-4.835 2.415-9.561 4.995-13.983 7.853.068.138.134.278.206.416 4.444 8.743 4.946 9.58 4.946 9.58s13.062-8.521 13.723-8.339Z" style="fill: rgb(42, 107, 204); fill-opacity: 1;" class="fills"/><path d="M534.306 547.492c-1.719-6.015-10.312-10.312-10.312-10.312l-2.578-11.172s4.296-10.312 1.717-14.61c-2.577-4.297-8.594-6.015-8.594-6.015s1.719-9.453-4.297-15.469c-6.015-6.015-11.171-8.593-11.171-8.593s-.987-1.717-2.516-4.538c-.628.056-1.219.198-1.908.098-7.423-1.087-15.247-1.308-23.25-.918-.551.308-1.026.675-1.721.864-3.85 1.041-7.699 2.305-11.525 3.712.201.738.42 1.472.589 2.22 1.409 2.466 2.606 5.061 3.819 7.646 1.069-2.317 3.138-4.176 6.392-4.326 3.403-.156 6.541-1.553 10.048-.888 4.43-.862 8.005 3.16 8.24 7.451.037.123.11.22.142.345 2.316 8.618-2.073 16.989-5.737 24.441-1.041 2.114-2.599 3.23-4.293 3.639-.027.506-.01 1.001-.157 1.535l-.965 3.542c-1.224 4.489-6.837 6.635-10.747 4.81-1.02.656-2.212 1.121-3.701 1.172.072 3.826-2.332 7.707-7.257 7.707a7.483 7.483 0 0 1-3.321-.748c-1.099 4.877-6.637 8.535-10.97 5.071-1.637 2.148-4.251 3.58-7.595 2.923-6.136-1.204-12.61-4.912-16.525-9.855-4.831-6.101-1.769-12.264 3.257-16.931.373-.346.778-.474 1.167-.728.702-.929 1.556-1.75 2.733-2.226-2.013-4.012-3.99-8.025-5.97-11.949-6.905 8.375-13.006 18.979-18.309 26.742-.072.102-.16.157-.232.255a591.434 591.434 0 0 0 8.36 12.529l-6.876 8.594s-1.718 12.031 2.579 13.749c4.297 1.72 9.451 2.578 9.451 2.578l2.58 8.595s-5.157 6.875-1.719 11.172c3.436 4.297 13.748 7.734 13.748 7.734l8.594 9.454 28.36 9.452s20.625 10.313 36.094 2.578c15.469-7.734 28.36-36.094 29.22-38.672.859-2.577 0-11.17 1.718-13.749 1.719-2.581 5.156-12.893 3.438-18.909Z" style="fill: rgb(42, 107, 204); fill-opacity: 1;" class="fills"/><path d="M423.609 517.091a235.295 235.295 0 0 1-2.223-4.22c-3.664 3.407-6.88 7.12-9.105 11.164-3.804 6.919-2.274 16.292 6.199 18.36 2.103.513 3.724-2.713 1.402-3.489-10.933-3.654-4.817-13.316 3.727-21.815ZM451.645 492.107a178.975 178.975 0 0 0-11.67 6.955c-2.842 1.838-5.89 3.862-8.929 6.036.592 1.27 1.195 2.533 1.807 3.792 3.649-2.932 6.803-5.187 8.279-6.17 3.903-2.602 7.964-4.964 12.122-7.134a320.232 320.232 0 0 1-1.609-3.479ZM476.688 482.896c-5.131.711-10.357 2.467-15.49 4.669.528 1.183 1.072 2.359 1.597 3.541 3.046-1.31 6.126-2.546 9.27-3.597 5.304-1.776 15.104-3.071 15.068 5.173-.002.444.746.531.916.157 3.296-7.29-5.493-10.755-11.361-9.943ZM448.447 484.37c-6.32 2.708-14.107 6.721-21.521 11.763.241.528.484 1.052.725 1.581 7.048-5.149 14.613-9.459 20.978-12.861-.062-.162-.124-.322-.182-.483Z" style="fill: rgb(93, 93, 93);" class="fills"/><path d="M406.087 552.383c-.672-2.001-1.449-3.969-2.142-5.978a40.603 40.603 0 0 1-1.533-5.842c-1.217-10.166 4.259-19.302 12.261-27.134-.344-.641-.689-1.281-1.043-1.919-6.337 5.711-11.381 12.181-13.418 19.078-.754-.181-1.544.117-1.748 1.162-1.439 7.337 1.633 15.89 6.35 21.922.281-.488.703-.921 1.273-1.289ZM515.12 508.05c-1.417-2.874-2.886-5.722-4.491-8.496-.039-.066-.175-.014-.142.062 1.355 3.073 2.636 6.152 3.907 9.234.139-.356.386-.639.726-.8ZM526.591 537.321c-2.054-6.761-4.41-13.435-7.16-19.935-.01.073-.058.117-.075.186-.117.916-.258 1.83-.437 2.741 2.199 5.901 4.213 11.854 5.975 17.902.294-.704.986-.984 1.697-.894ZM531.494 556.097a254.032 254.032 0 0 0-2.447-9.998c.063.646.111 1.293.144 1.943.03.177.054.358.082.535.026.154-.024.263-.033.397a28.405 28.405 0 0 1-.354 5.521c.15.667.307 1.33.436 2.005.267 1.398 2.49 1.043 2.172-.403ZM491.879 611.405c19.953-8.308 38.336-28.834 39.706-50.812.006-.101-.156-.088-.183-.006-7.106 21.363-19.298 40.331-41.37 48.946-20.193 7.88-40.232 3.981-57.83-6.165-1.011-.584-2.632.601-1.509 1.507 16.216 13.09 41.563 14.703 61.186 6.53ZM418.68 579.888a5.705 5.705 0 0 1 1.378-.121 261.118 261.118 0 0 0-6.684-12.506c-.789-.041-1.555-.167-2.252-.421a262.248 262.248 0 0 0 6.179 13.807c.322-.35.768-.621 1.379-.759Z" style="fill: rgb(93, 93, 93);" class="fills"/><path d="M429.519 601.841a39.453 39.453 0 0 0 4.121 2.859c.921.558 2.377-.562 1.32-1.324-2.184-1.576-5.186-3.896-7.914-4.255-.064-.009-.171.05-.13.13.575 1.107 1.642 1.825 2.603 2.59ZM472.112 508.845c-10.282-24.051-20.068-47.73-26.059-73.295-5.954-25.403-14.149-58.377 5.92-79.587.472-.499-.351-1.003-.791-.61-20.395 18.209-12.827 51.017-7.822 74.199 5.879 27.232 14.685 55.106 28.631 79.347.033.057.149.013.121-.054ZM327.657 418.951c56.454 10.68 73.754 69.83 104.02 110.421.037.051.132.001.094-.056-16.36-24.642-28.002-52.581-46.721-75.627-14.272-17.569-33.832-33.505-57.029-36.238-1.038-.123-1.484 1.288-.364 1.5ZM446.873 479.41a8450.15 8450.15 0 0 0-26.663-70.547c-10.779-28.135-24.54-58.875-12.979-88.991.271-.701-1.056-1.039-1.326-.396-11.673 27.799.061 56.959 10.22 83.252 13.122 33.958 26.313 67.887 39.91 101.658.028.07.156.036.128-.04-1.561-4.254-3.171-8.49-4.745-12.739-1.795-3.965-3.433-7.985-4.545-12.197Z" style="fill: rgb(93, 93, 93);" class="fills"/><path d="M419.208 363.788c-6.767-24.789 22.527-39.273 23.898-62.572.572-9.726-6.465-20.504-16.004-21.02 6.351-7.682.683-18.947-8.349-21.269-1.002-.257-1.77 1.299-.667 1.661 9.136 2.995 11.487 11.315 8.441 19.623-2.011-.023-4.12.374-6.294 1.369-1.154.527-.105 2.059.954 1.7 10.752-3.644 19.619 5.386 20.359 15.735.68 9.486-4.725 18.311-9.865 25.804-7.964 11.604-17.597 24.219-12.603 39.008.026.073.151.037.13-.039Z" style="fill: rgb(93, 93, 93);" class="fills"/><path d="M445.111 364.666c15.293-2.747 29.938-18.326 23.33-34.603 7.119-12.837 10.978-27.317 10.785-42.199-.121-9.442-2.158-21.236-7.782-29.549 6.727-14.877-6.497-31.813-20.769-35.238-.695-.165-1.166.244-1.282.738-3.753-6.295-8.658-11.911-13.674-16.111-5.793-4.851-12.308-8.412-19.198-10.73a.848.848 0 0 0 .099-.606c-4.145-20.816-24.422-38.041-44.262-43.25-20.828-5.467-43.629.653-59.016 15.615-.084.082.059.168.135.104 15.991-13.482 37.882-19.395 58.274-13.706 9.967 2.781 18.953 8.226 26.295 15.488 7.54 7.459 11.604 16.03 15.794 25.531-11.445-3.267-23.786-3.177-35.56.287-.113.033-.049.179.058.149 12.068-3.423 24.756-3.113 36.367.777.074.035.152.058.232.082 6.358 2.159 12.392 5.376 17.809 9.68 11.878 9.437 22.129 25.294 20.812 40.812l-.052-.006c-.3-.01-.337.417-.043.472l.028.007c-.339 3.389-1.208 6.758-2.765 10.037-.596 1.257 1.394 1.983 2.007.874 1.831-3.304 2.865-6.759 3.261-10.267 18.331 5.255 21.766 27.767 20.686 44.525-1.135 17.581-8.031 34.361-19.256 47.881-1.192 1.435 1.129 2.981 2.186 1.686a88.906 88.906 0 0 0 8.521-12.479c-.496 15.504-6.485 28.99-23.391 32.324-1.07.212-.686 1.865.371 1.675Zm10.941-116.457c.656-7.865-1.871-15.957-5.979-23.222.045.017.074.045.123.058 8.585 2.35 15.815 7.445 19.312 15.884 2.384 5.754 1.888 10.966 1.59 16.848-3.528-4.983-8.413-8.619-15.046-9.568ZM479.235 518.228c.586.275 1.807-.294 1.374-1.065-.607-1.085-1.704-1.739-2.71-2.45a28.71 28.71 0 0 0-3.286-2.026c-.102-.054-.222.06-.16.159a24.558 24.558 0 0 0 2.303 3.084c.748.863 1.436 1.809 2.479 2.298ZM504.328 623.271c18.407-8.988 30.655-31.029 26.187-51.368-.097-.442-.817-.432-.81.052.29 19.308-7.717 38.518-25.395 48.008-17.205 9.235-37.955 5.682-52.81-6.156-1.456-1.16-3.737.797-2.175 2.181 14.681 13.005 37.419 15.868 55.003 7.283Z" style="fill: rgb(93, 93, 93);" class="fills"/><path d="M379.724 220.01c20.151-1.822 36.708 13.006 36.41 33.484 0 .118.194.1.203-.014 1.624-20.761-15.769-37.686-36.692-34.698-.863.124-.816 1.309.079 1.228ZM370.524 390.379c.885.294 1.746-.842.747-1.302-16.263-7.486-33.228-18.027-35.434-37.648-2.076-18.471 15.16-36.945 33.824-27.49.084.043.158-.073.071-.124-9.634-5.617-19.728-3.31-26.805 3.04-28.136-5.347-42.569-37.979-24.253-61.129 18.208-23.014 54.178-16.788 65.542 9.802.04.093.211.047.172-.053-10.679-27.554-47.485-34.523-66.707-11.594-19.395 23.134-5.908 59.364 23.807 64.316a28.486 28.486 0 0 0-7.775 16.724c-2.292 22.039 17.772 39.153 36.811 45.458ZM297.128 379.521c1.254.106 1.803-1.679.442-1.813-15.994-1.563-30.216-11.075-37.43-25.557-6.71-13.471-6.432-28.237-2.741-42.489.056-.215-.282-.242-.352-.062-11.751 30.027 6.445 67.063 40.081 69.921Z" style="fill: rgb(93, 93, 93);" class="fills"/><path d="M275.606 383.043c.137 13.865 12.828 24.725 26.291 24.885 1.271.016 1.518-1.938.181-2.062-14.124-1.312-22.359-9.41-26.021-22.687a70.56 70.56 0 0 0 8.96 2.117c.1.016.184-.004.275-.008 2.142 8.389 9.775 14.254 18.383 15.436-5.246 19.732 21.635 35.045 36.516 21.216.834-.775-.453-1.75-1.26-1.26-8.093 4.905-17.664 7.156-25.938.901-6.779-5.125-8.849-12.778-8.76-20.801 3.329.377 6.778.091 10.101-1.059 1.117-.387.479-1.868-.585-1.515-15.529 5.149-27.367-5.889-28.551-21.067-.01-.123-.224-.137-.245-.014a20.3 20.3 0 0 0-.087 5.924c-39.02-5.255-62.997-44.742-53.095-82.106.034-.131-.184-.158-.222-.039-11.457 35.974 9.76 71.479 44.057 82.139Z" style="fill: rgb(93, 93, 93);" class="fills"/><path d="M230.045 336.551c.695.494 2.194-.304 1.419-1.104-4.984-5.139-8.879-10.424-10.125-17.664-1.077-6.254.319-11.607 2.028-17.42 1.146 3.346 3.042 6.374 5.717 8.623.638.537 1.862-.222 1.284-.999-3.682-4.949-6.652-9.725-6.485-16.177.165-6.38 3.123-11.174 6.795-16.001 1.906 7.163 6.214 13.777 13.216 18.535.791.538 1.966-.399 1.139-1.143-18.488-16.603-17.266-43.848 3.424-57.144l.002.002c.161.295.44.458.745.527-.518 8.424 1.253 16.964 5.967 23.583.498.7 1.943.196 1.586-.708-3.393-8.546-5.555-16.98-4.932-25.466.044-.022.08-.049.123-.072.08-.041.008-.151-.069-.122l-.036.014c.38-4.862 1.669-9.742 4.189-14.672 7.249-14.178 22.01-21.801 37.451-22.843.129-.01.163-.208.019-.216-15.263-.886-30.477 7.345-38.324 20.478-2.911 4.872-4.811 10.722-5.612 16.759-9.313-19.45-4.094-43.554 10.898-58.851 17.776-18.136 43.59-20.958 67.463-17.13.077.012.143-.103.052-.13-22.984-6.968-51.068-1.772-68.515 15.225-9.82 9.567-15.787 22.758-16.736 36.22-13.987 6.677-19.582 21.933-16.916 36.041-10.477 9.054-10.977 26.771-.839 36.51-3.121 5.425-3.71 12.466-1.819 18.547-7.813 10.696-3.547 29.388 6.891 36.798Zm-2.394-93.086c.041-.051.076-.102.119-.152.047-.058-.029-.129-.089-.088-.022.016-.041.034-.064.051-2.047-12.809 3.983-25.296 15.073-34.119-.551 9.014 1.131 18.128 5.494 26.345-8.038 4.194-13.668 11.261-16.512 19.253-2.107-3.734-3.396-7.525-4.021-11.29Zm-1.641 2.124c.894 4.161 2.472 8.211 4.815 11.882-1.565 5.783-1.723 11.917-.294 17.726-1.817 1.184-3.313 2.705-4.542 4.423-7.937-11.315-7.83-23.116.021-34.031ZM351.453 217.607c.938-8.2 4.604-15.882 12.764-19.108 7.819-3.089 16.858-1.013 22.82 4.842.047.047.154-.025.101-.079-13.174-13.78-38.197-6.348-37.8 14.23.02 1.081 1.993 1.178 2.115.115ZM290.127 260.06c2.095-14.934 14.55-21.523 28.117-17.387-.622 5.543.389 11.27 3.215 16.223.526.92 2.381.2 1.927-.861-4.376-10.25-3.683-22.37 4.539-30.643 8.541-8.591 22.345-9.337 32.513-3.388.058.035.14-.054.076-.097-9.884-6.736-23.314-6.798-32.772.915-5.001 4.078-8.155 9.896-9.249 16.08-13.186-6.265-28.839 4.596-28.564 19.148 0 .103.184.111.198.01ZM443.674 523.434c-15.626-36.991-30.851-74.152-46.447-111.158-.064-.152-.342-.076-.277.087 14.762 37.288 29.9 74.426 44.631 111.726.457 1.159 2.603.553 2.093-.655ZM435.385 542.98c-.891-6.979-4.609-13.868-6.915-20.47-.032-.092-.22-.067-.197.037 1.447 6.743 1.858 14.552 4.676 20.884.478 1.072 2.607.894 2.436-.451ZM421.176 502.414c.044.117.259.059.213-.067-16.122-44.344-34.949-94.239-79.184-117.746-.794-.421-1.524.71-.686 1.195 43.49 25.129 62.592 71.845 79.657 116.618Z" style="fill: rgb(93, 93, 93);" class="fills"/><path d="M326.7 400.425c21.257 1.53 39.771 11.623 51.678 29.503.049.074.185.004.132-.078-11.221-17.509-30.803-29.371-51.738-30.231-.498-.019-.593.769-.072.806Z" style="fill: rgb(93, 93, 93);" class="fills"/><path d="M346.509 405.117c.124-.193-.185-.296-.314-.185-9.548 8.264-21.197 9.591-30.775.514-.605-.573-1.933.297-1.284 1 8.431 9.127 25.191 9.833 32.373-1.329ZM338.003 385.312c.126.078.325-.082.18-.181-21.881-14.928-64.888-27.26-57.481-61.641 3.148.246 6.414-.047 9.739-1.16.146-.048.098-.239-.05-.231-22.047 1.282-37.283-14.941-31.433-36.834.276-1.036-1.512-1.493-1.895-.566-6.905 16.681 5.382 36.238 22.061 38.652-8.481 34.555 36.86 48.344 58.879 61.961Z" style="fill: rgb(93, 93, 93);" class="fills"/><path d="M266.932 294.616c.04.035.129-.021.084-.066-15.042-15.519-7.956-39.393 11.976-45.972 1.591-.524.674-2.47-.816-2.113-22.529 5.395-28.073 33.372-11.244 48.151ZM458.487 523.301c-9.467-21.36-18.971-42.527-26.781-64.575-.066-.189-.36-.117-.294.091 6.949 22.106 14.829 44.292 25.185 65.059.558 1.117 2.466.725 1.89-.575ZM461.693 529.596c-.672-1.15-1.276-2.381-2.18-3.365-.097-.106-.341-.106-.304.093.21 1.152.75 2.206 1.215 3.274.482 1.107.882 2.317 1.627 3.275.324.415 1.316.352 1.122-.344-.297-1.062-.925-1.985-1.48-2.933Z" style="fill: rgb(93, 93, 93);" class="fills"/><path d="M532.122 562.628c7.41-8.124 2.126-23.627-6.087-29.971a15.033 15.033 0 0 0-.562-1.696c-.013-.035-.008-.061-.025-.096-.017-.037-.039-.074-.056-.111-.31-.767-.644-1.526-.967-2.28-.526-1.231-1.142-2.512-1.862-3.714 2.401-3.948 1.604-9.56-.399-13.563-1.211-2.424-3.969-6.223-7.059-6.783 1.874-10.102-5.805-24.817-16.756-24.909-2.985-7.466-7.266-14.46-10.187-21.979-3.984-10.258-6.884-20.844-8.55-31.72-.732-4.767-1.236-9.621-1.569-14.505 2.64-53.545 26.848-109.36 15.973-162.515-12.625-61.706-64.106-113.726-126.37-125.112-60.424-11.048-125.187 17.293-160.353 67.121-37.106 52.576-34.35 125.164.237 178.261 23.474 36.036 59.695 53.15 96.186 73.178 45.254 24.84 82.965 63.448 102.91 111.47.737 1.773 2.782 2.081 4.328 1.472 11.126 2.147 24.197-1.055 35.341-6.578 15.126-4.73 29.396-15.862 39.054-26.86 6.692-7.624 20.455-27.346 14.777-38.441.335.158.668.318.997.487 1.632 1.836 2.847 3.994 3.576 6.704.279 1.032 2.253.707 2.105-.39a12.538 12.538 0 0 0-.78-2.901c.265.255.538.5.785.776 4.228 4.731 4.24 9.771 3.222 15.634-.309 1.78 1.894 3.241 3.478 3.005.231.479.518.923.948 1.317.371.34.918.296 1.279.031 1.234 1.228 2.472 2.455 3.224 4.21 1.578 3.685.723 6.492-.299 10.13-.263.934.305 1.995 1.102 2.662.183.732.395 1.459.633 2.18.117.659.254 1.306.401 1.921.534 2.237.916 4.601 2.331 6.466.593.782 2.028 1.063 2.76.455 1.644 3.138 2.974 6.511 3.456 9.838.761 5.262-1.234 9.579-1.587 14.668-.04.575.134 1.112.434 1.567-1.161 2.562-1.424 5.451-1.743 8.342-.522 4.724-.851 9.409-.619 14.159.142 2.91 4.801 3.508 5.371.5 1.186-6.271 2.549-15.364.614-22.194.103-.08.214-.133.308-.236Zm-45.316-48.638a74.663 74.663 0 0 0 8.597-22.855c.205-1.034-1.347-1.165-1.674-.293-13.554 36.054-44.97 57.18-83.461 54.156-.13-.01-.251.003-.377.004-13.38-31.45-32.08-59.649-58.051-82.37-28.319-24.774-63.605-37.543-94.382-58.506-54.954-37.43-79.175-111.377-57.943-174.354 21.104-62.599 88.883-104.963 154.226-99.652 67.888 5.519 127.636 64.069 136.423 131.389 4.774 36.57-5.231 74.19-11.298 111.311-5.628 17.193-8.509 34.605-6.753 53.227 1.497 15.888 5.635 35.476 14.861 50.032-9.074-2.219-18.606-1.601-26.831 3.197-1.022.597.077 1.679.973 1.277 8.252-3.708 17.01-5.583 26.001-4.248 2.52 3.94 5.394 7.526 8.719 10.535.715.647 1.486.82 2.182.713 1.468 7.44-4.559 17.848-11.212 26.437Z" style="fill: rgb(93, 93, 93);" class="fills"/><path d="M509.579 498.816c-15.792 41.259-51.156 69.135-96.292 68.393-1.627-.027-1.051 2.33.382 2.37 43.222 1.192 86.11-27.669 96.056-70.712.017-.075-.116-.129-.146-.051Z" style="fill: rgb(93, 93, 93);" class="fills"/><path d="M513.643 507.339c-5.482 20.265-16.37 38.361-32.909 51.536-18.173 14.478-39.33 19.625-62.042 21.275-.133.01-.089.176.021.19 44.633 5.408 87.005-30.343 97.066-72.43.299-1.249-1.771-1.92-2.136-.571Z" style="fill: rgb(93, 93, 93);" class="fills"/><path d="M518.504 518.285c-11.977 43.259-51.034 72.637-95.635 74.414-.132.006-.084.187.029.189 45.73.881 85.245-29.896 97.559-73.656.331-1.175-1.609-2.188-1.953-.947Z" style="fill: rgb(93, 93, 93);" class="fills"/><path d="M524.58 531.022c-.171-1.212-2.118-1.294-2.017.065 1.598 21.387-15.687 42.33-32.034 54.281-17.526 12.815-38.14 17.392-59.534 17.548-.051.001-.043.078.003.084 22.347 3.188 45.708-4.334 63.322-18.167 14.979-11.765 33.131-33.429 30.26-53.811Z" style="fill: rgb(93, 93, 93);" class="fills"/><path d="M530.373 542.888c-.228-.959-1.812-1.101-1.678.053 2.194 18.744-9.072 35.209-22.272 47.508-12.539 11.685-27.512 18.446-43.733 23.373-.571.173-.244 1.063.288.987 17.228-2.521 33.493-11.793 46.04-23.638 12.51-11.81 25.677-30.088 21.355-48.283ZM412.838 567.241c-2.796-.777-5.533-1.723-7.438-4.047-2.245-2.741-2.352-5.994-.524-8.946.62-1-.593-2.521-1.679-1.756-7.323 5.146 2.236 18.093 9.751 15.439.381-.134.199-.604-.11-.69ZM510.904 490.37c-.919-2.922-3.048-5.622-5.791-7.01-1.151-.583-2.071.988-1.039 1.745 2.153 1.579 3.923 3.139 4.893 5.716.998 2.654.272 5.149.653 7.808.008.055.089.111.14.069 2.203-1.879 1.937-5.81 1.144-8.328ZM520.531 510.055c-1.251-2.565-4.06-5.279-7.009-5.491-.277-.02-.294.352-.125.489 2.12 1.731 4.072 2.916 5.165 5.601 1.236 3.03.691 5.937-.644 8.801-.494 1.059 1.355 2.354 2.009 1.289 1.97-3.214 2.272-7.264.604-10.689Z" style="fill: rgb(93, 93, 93);" class="fills"/><path d="M524.222 530.018c-.346-.154-.689.213-.438.532 4.84 6.15 7.477 11.676 4.62 19.551-.49 1.347 1.68 2.527 2.295 1.111 3.11-7.168 1.334-17.729-6.477-21.194ZM425.419 590.932c-2.998-.89-5.846-1.844-7.408-4.826-1.456-2.779-.648-5.349-.771-8.256-.005-.115-.181-.215-.277-.138-2.816 2.289-2.031 7.373-.496 10.183 1.727 3.164 5.293 5.847 9.031 5.605 1.686-.108 1.201-2.189-.079-2.568Z" style="fill: rgb(93, 93, 93);" class="fills"/><path d="M433.966 602.926c-1.764-1.8-3.696-3.42-5.358-5.324-1.395-1.598-2.482-3.614-4.074-5.004-.031-.027-.102-.021-.102.032-.002 2.134 1.362 4.329 2.422 6.115 1.409 2.373 3.128 4.65 5.357 6.309 1.624 1.209 3.124-.73 1.755-2.128ZM331.414 341.401c-4.875-.005-9.11.046-12.753-3.852-3.373-3.607-4.16-8.675-3.052-13.362.018-.078-.11-.125-.145-.051-2.309 4.945-1.508 10.779 2.15 14.889 3.222 3.619 9.625 6.336 14.33 4.184 1.002-.459.484-1.807-.53-1.808ZM408.058 450.596c-9.668-27.021-29.298-50.228-53.712-65.129-.054-.032-.101.051-.051.086 23.948 16.331 41.239 38.758 51.992 65.582.444 1.109 2.213.698 1.771-.539ZM427.962 449.838c-13.032-29.828-29.141-58.476-43.494-87.688-.04-.083-.182-.051-.138.041 14.254 29.204 26.999 59.432 42.529 87.982.342.629 1.44.436 1.103-.335ZM420.481 374.547c-.037-.114-.214-.07-.177.054 8.718 28.96 17.053 58.182 26.896 86.781.179.519 1.177.446 1.003-.163-8.332-29.127-18.257-57.895-27.722-86.672ZM474.22 520.112c-7.529-16.311-15.236-32.532-22.991-48.74-.017-.035-.076-.021-.059.019 7.305 16.37 14.653 32.716 22.185 48.985.243.525 1.135.321.865-.264ZM472.307 523.413c-7.995-18.297-16.299-36.469-24.411-54.719-.015-.036-.076-.023-.058.018 7.793 18.339 15.399 36.768 23.308 55.055.31.716 1.507.439 1.161-.354ZM468.388 528.814c-3.673-7.338-7.793-14.516-11.721-21.724-.073-.135-.308-.094-.236.071 3.232 7.432 6.322 14.996 9.813 22.306.622 1.301 2.856.766 2.144-.653ZM446.768 539.443c-10.714-24.302-21.424-48.538-32.611-72.628-.07-.155-.327-.1-.255.078 10.035 24.522 20.503 48.793 31.015 73.113.495 1.142 2.405.696 1.851-.563ZM442.259 541.531c-7.826-19.223-16.469-38.166-24.852-57.153-.064-.145-.3-.092-.236.072 6.601 16.905 13.069 33.913 20.009 50.692-10.126-19.703-21.004-39.046-31.618-58.481-.074-.136-.316-.088-.237.071 10.805 21.467 21.305 43.148 32.808 64.253.351.645 1.201.742 1.641.428.109.258.212.518.321.776.568 1.339 2.773.836 2.164-.658ZM409.135 262.019c-8.092-12.492-29.99-20.563-37.591-3.048-.225.516.634 1.137.975.627 4.22-6.325 12.578-9.641 20.003-7.987 9.184 2.046 15.811 10.564 18.986 18.961 5.842 15.453 2.376 30.544-5.079 44.648-.086.162.182.33.3.193 12.271-14.324 12.457-37.881 2.406-53.394ZM456.893 301.811c.174-.066.34-.169.481-.354 13.156-17.227 2.986-43.643-18.977-45.733-.278-.026-.284.321-.04.39 19.894 5.524 28.555 26.21 16.946 43.635-.025.039-.027.082-.047.122-1.483-1.653-3.114-3.211-5.024-4.562-.09-.064-.197.02-.133.119 6.097 9.458 11.335 18.404 10.974 30.091-.327 10.594-4.993 19.79-12.077 27.46-1.1 1.192 1.028 2.894 2.157 1.779 13.244-13.082 17.28-37.677 5.74-52.947Z" style="fill: rgb(93, 93, 93);" class="fills"/><path d="M440.95 313.039c-.095-.126-.34-.048-.255.12 9.502 18.887 4.997 40.063-13.818 50.889-.071.041-.102.097-.157.144-1.219-.956-2.538-1.829-4.032-2.543-.146-.069-.218.104-.12.204 10.35 10.616 14.363 23.769 5.523 36.93-.605.901.8 2.106 1.479 1.218 7.561-9.898 7.83-25.214-.853-34.028 18.43-10.539 25.354-35.459 12.233-52.934ZM351.561 397.251c-16.014-.778-32.559-5.714-34.972-23.881-.031-.237-.438-.324-.468-.043-2.077 19.187 21.332 25.675 35.862 26.544 1.777.106 1.17-2.543-.422-2.62ZM371.917 428.684c-10.527-5.607-24.22-6.923-28.212-19.966-.042-.136-.302-.159-.308.01-.467 12.679 18.628 18.858 28.081 21.731 1.177.359 1.332-1.299.439-1.775ZM403.302 472.016c-6.089-13.71-13.767-27.313-23.88-38.464-.099-.109-.281-.014-.186.12 8.835 12.409 17.171 24.64 23.713 38.452.101.213.461.133.353-.108ZM347.192 151.212c-13.032-6.906-30.455-6.084-41.892 3.668-.393.337.095.962.524.699 12.913-7.939 26.878-9.516 40.628-2.546 1.283.651 1.926-1.191.74-1.821ZM404.682 172.933a.07.07 0 0 0-.034.137c14.939 5.938 24.465 16.061 27.267 32.143.202 1.164 2.043 1.26 1.952-.063-1.024-14.949-13.997-30.359-29.185-32.217ZM302.767 365.52c-9.7.139-18.612-1.749-25.613-9.012-6.767-7.016-9.573-16.846-8.266-26.431.005-.038-.056-.055-.064-.014-3.964 20.415 12.739 41.436 34.556 37.552 1.308-.233.448-2.111-.613-2.095Z" style="fill: rgb(93, 93, 93);" class="fills"/><path d="M316.152 378.586c-4.479.999-8.27 2.289-12.888.941-4.26-1.243-7.729-4.161-10.166-7.811-.079-.116-.282-.041-.219.102 3.734 8.546 15.876 14.93 24.299 8.535.934-.71-.043-1.986-1.026-1.767ZM332.761 395.221c-2.842 2.842-6.693 4.462-10.746 3.558-3.459-.772-5.542-3.02-7.402-5.697 3.051.444 6.129.012 8.717-1.745 1.004-.68-.074-2.031-1.049-1.805-7.169 1.662-13.498 2.256-19.407-3.151-.045-.041-.114.015-.074.064 2.524 3.086 6.665 5.646 10.96 6.504 2.179 9.12 15.07 9.952 20.759 3.721.889-.975-.843-2.364-1.758-1.449ZM494.792 607.921c-10.772 6.188-23.637 9.483-43.293 5.886 0 0 28.127 25.875 56.168 5.273 28.041-20.6 24.034-43.777 22.032-49.499.001-.001-8.011 22.889-34.907 38.34ZM426.864 238.013c-2.45-21.634-23.308-38.318-46.418-32.339-.056.013-.014.089.035.08 27.179-4.857 49.93 18.289 43.774 45.309-.2.879 1.466 1.545 1.702.591a38.409 38.409 0 0 0 .955-13.233c3.569 1.381 7 3.162 9.763 5.856 3.397 3.31 4.795 7.144 6.251 11.505.226.676 1.275.546 1.227-.2-.543-8.43-8.977-16.658-17.289-17.569Z" style="fill: rgb(93, 93, 93);" class="fills"/><path d="M418.588 251.634c-.091-.006-.07.129.004.146 18.794 3.966 30.124 22.013 22.226 40.368-.37.862 1.104 1.638 1.49.722 7.678-18.189-3.236-39.796-23.72-41.236ZM301.129 306.283c-9.109-5.043-16.184-12.264-17.683-23.01-1.528-10.948 3.598-21.936 12.075-28.752.043-.034-.01-.101-.054-.072-19.053 13.056-17.799 44.518 5.141 53.116.944.353 1.356-.82.521-1.282Z" style="fill: rgb(93, 93, 93);" class="fills"/><path d="M347.138 374.625c-21.7 2.443-34.132-16.638-30.202-36.336h.013c1.203-.09.793-1.851-.284-1.761-11.992 1.017-16.637-12.143-15.648-21.993.724-7.197 4.173-13.771 9.331-18.772.041-.04-.034-.115-.077-.08-7.778 6.269-11.935 15.912-10.418 25.93 1.32 8.715 7.146 17.088 16.598 16.686-8.06 20.211 10.758 39.793 31.024 38.423 1.437-.097.941-2.24-.337-2.097ZM374.349 392.211c-.123-.07-.212.102-.111.187 10.855 9.11 19.177 19.206 23.879 32.705.07.2.454.174.389-.064-3.691-13.334-11.992-25.892-24.157-32.828ZM253.696 336.616c-16.889-9.75-19.764-31.197-6.372-45.284.145-.153-.13-.366-.279-.23-14.89 13.607-11.714 37.401 6.093 46.889.964.514 1.426-.874.558-1.375Z" style="fill: rgb(93, 93, 93);" class="fills"/><path d="M324.394 368.068c-15.755-1.918-25.737-13.846-26.131-29.453 4.268 3.823 10.047 6.09 16.509 5.632 1.356-.096.883-1.997-.318-1.97-15.177.339-25.38-12.818-21.949-27.586.02-.087-.132-.148-.165-.058-3.39 9.002-.49 18.136 5.777 23.849-1.857 15.884 10.282 30.015 26.057 31.713 1.498.161 1.6-1.96.22-2.127ZM262.293 357.467c-14.577-2.392-20.852-14.785-19.172-28.603.01-.076-.111-.13-.145-.05-5.973 13.861 5.26 28.494 19.116 30.596 1.369.209 1.449-1.738.201-1.943ZM412.841 212.46c-.06.006-.035.08 0 0Zc10.778.761 21.159 4.98 27.629 13.944 6.546 9.07 6.325 20.049 3.251 30.294-.292.969 1.201 1.834 1.651.8 9.348-21.542-9.286-47.258-32.531-45.038ZM463.494 275.326c-.109-.067-.196.095-.101.17 16.176 12.934 15.151 33.292.236 46.5-.915.81.231 2.323 1.249 1.665 17.46-11.292 15.557-37.774-1.384-48.335ZM478.355 516.616c-9.308-20.146-18.368-39.92-24.998-61.168-4.209-13.487-7.653-27.214-10.536-41.057 15.275-10.415 20.961-36.77 9.496-51.76-.051-.066-.156-.027-.128.06 3.318 10.3 6.111 19.506 2.744 30.332-1.982 6.372-5.523 11.193-9.772 15.765 3.946-11.096 2.8-24.221-3.955-33.893-.06-.086-.211-.033-.164.076 5.293 12.276 5.792 23.85 1.058 35.838a599.709 599.709 0 0 1-4.02-22.148c-.014-.09-.155-.096-.148.004a307.596 307.596 0 0 0 2.702 25.779c-.016.041-.032.082-.051.122-.135.277-.004.553.195.785 5.339 35.617 16.934 71.485 34.389 102.234 1.011 1.783 4.212 1.249 3.188-.969ZM439.272 541.714c-15.013-25.78-28.943-52.793-46.279-77.116-13.705-19.23-32.662-38.808-56.816-43.371-.471-.09-.611.574-.183.741 24.767 9.648 42.66 26.701 57.199 48.654 15.474 23.365 28.68 48.409 42.723 72.652 1.385 2.388 4.895 1.082 3.356-1.56ZM465.721 531.007c-14.157-27.361-28.446-54.662-43.405-81.597-.049-.088-.208-.06-.157.047 12.937 27.756 26.575 55.177 40.336 82.53.969 1.93 4.326 1.143 3.226-.98ZM454.04 537.667c-7.859-14.016-16.178-27.579-23.013-42.162-6.811-14.533-12.694-29.432-17.768-44.657-.074-.223-.498-.194-.43.069 7.976 30.517 20.168 62.083 38.33 88.087 1.033 1.481 3.902.484 2.881-1.337Z" style="fill: rgb(93, 93, 93);" class="fills"/><path d="M405.279 477.992c-8.727-17.561-22.137-33.953-37.421-46.214-.091-.072-.181.045-.101.123 14.494 14.235 26.083 29.179 36.573 46.531.315.522 1.249.165.949-.44ZM401.072 447.22c-.032-.074-.149-.047-.118.036 4.596 11.876 8.789 24.115 14.23 35.633.298.63 1.307.419 1.043-.317-4.296-12.024-10.001-23.675-15.155-35.352ZM451.922 500.73c-14.499-24.205-30.535-47.629-46.963-70.559-.073-.103-.216-.013-.15.098 14.304 24.311 29.217 48.466 45.468 71.534.791 1.123 2.37.136 1.645-1.073ZM448.293 486.65c-14.117-34.887-30.305-69.068-45.738-103.389-.048-.108-.228-.068-.177.054 14.669 34.609 28.726 69.673 44.696 103.706.345.736 1.563.478 1.219-.371ZM421.054 399.828c-.023-.062-.123-.038-.098.03 13.511 38.276 25.579 77.404 40.928 114.991.303.744 1.442.472 1.181-.358-12.211-38.741-27.943-76.568-42.011-114.663ZM436.997 410.672c-.014-.076-.14-.082-.128.003 3.695 25.612 10.194 50.932 20.443 74.741.335.777 1.598.493 1.26-.383-9.338-24.202-16.91-48.808-21.575-74.361Z" style="fill: rgb(93, 93, 93);" class="fills"/><path d="M427.029 460.656c-13.485-30.997-31.529-62.989-54.275-88.162-.054-.06-.152-.008-.101.065 9.676 13.795 19.929 27.105 28.68 41.538 9.169 15.12 16.991 30.891 24.26 46.996.395.876 1.864.545 1.436-.437ZM421.326 439.698c-13.174-23.075-26.661-45.994-40.295-68.8-.024-.041-.098-.012-.072.033 13.11 23.098 26.394 46.122 39.966 68.952.131.222.542.062.401-.185Z" style="fill: rgb(93, 93, 93);" class="fills"/><path d="M420.755 453.136c-5.352-11.193-12.305-21.817-18.613-32.504-.066-.11-.267-.033-.201.094 5.711 10.988 11.043 22.477 17.684 32.935.388.612 1.479.204 1.13-.525ZM454.948 612.105c-4.909-.24-9.44-.672-13.903-2.944-2.558-1.302-4.748-3.576-7.23-5.054-.938-2.203-2.499-4.156-4.039-5.964-.936-1.098-1.805-2.241-2.775-3.261.194-.974-.389-2.194-1.307-2.518-3.605-1.271-7.313-.896-9.35-4.893-1.483-2.913-.712-5.788-.202-8.735.846.029 1.641-.451 1.454-1.532-.37-2.135-2.246-3.923-3.516-5.62-.039-.053-.078-.101-.117-.154.174-.073.352-.126.522-.213 1.829-.93.824-3.757-.704-4.378-4.626-1.875-9.385-1.668-11.377-7.306-1.636-4.629.557-8.665.756-13.207.008-.194-.161-.407-.372-.386-7.186.746-8.11 10.924-5.848 16.135 2.09 4.817 8.189 10.11 13.911 10.016.121.214.235.424.362.642.808 1.392 1.593 3.242 2.698 4.581-3.304 2.609-3.109 8.654-1.349 12.125 1.976 3.896 7.445 8.122 12.1 7.065.603 1.22 1.36 2.391 2.026 3.594 1.314 2.377 2.817 5.015 5.021 6.656.078.057.17.095.259.138 1.513 3.179 5.146 6.041 7.511 7.622 4.771 3.189 10.796 5.31 16.583 4.509 4.794-.662 3.046-6.714-1.114-6.918Z" style="fill: rgb(93, 93, 93);" class="fills"/><path d="M417.557 569.029c-.082-.144-.326-.107-.256.078 1.273 3.385 2.562 7.197 4.538 10.24a.374.374 0 0 0 .675-.314c-1.054-3.447-3.188-6.876-4.957-10.004ZM404.177 551.69c.066-.747.123-1.487.15-2.237.052-1.501-2.373-2.28-2.603-.567a138.135 138.135 0 0 0-.469 4.003c-.018.179.017.354.074.523.001.117-.027.232-.021.349.028.457.459.662.844.618.539.299 1.201.307 1.623-.255.213-.279.421-.56.624-.845.399-.55.205-1.189-.222-1.589ZM425.61 578.558c-.566-1.417-1.452-2.716-2.218-4.033-.853-1.47-1.657-3-2.695-4.349-.072-.094-.226-.039-.182.084.56 1.594 1.409 3.088 2.175 4.59.692 1.363 1.308 2.796 2.19 4.047.273.384.925.146.73-.339ZM428.133 577.596c-1.762-2.838-3.823-5.521-5.706-8.282-.031-.046-.097-.005-.067.045 1.758 2.842 3.374 5.815 5.254 8.577a.31.31 0 0 0 .519-.34ZM432.35 578.017c-1.89-3.21-4.419-6.071-6.547-9.126-.071-.103-.224-.01-.15.099 2.064 3.094 3.799 6.49 6.094 9.422.31.397.868.053.603-.395ZM435.27 576.77c-1.744-2.862-3.818-5.515-5.65-8.318-.06-.093-.194-.01-.134.088 1.753 2.856 3.267 5.866 5.112 8.668a.402.402 0 0 0 .672-.438ZM438.33 575.858c-1.643-2.558-3.61-4.905-5.345-7.401-.072-.101-.222-.011-.152.099 1.63 2.563 3.035 5.282 4.758 7.783.347.504 1.084.056.739-.481ZM443.077 575.909c-1.725-3.047-3.739-5.93-5.716-8.817-.097-.143-.37-.046-.274.126 1.706 3.036 3.391 6.108 5.351 8.988.227.332.866.104.639-.297ZM447.054 575.199c-1.526-2.912-3.483-5.641-5.26-8.405-.076-.117-.295-.035-.219.102 1.593 2.858 3.073 5.858 4.914 8.566.201.295.755.099.565-.263ZM451.391 572.91a91.745 91.745 0 0 0-5.715-7.433c-.107-.126-.292-.019-.201.13a90.894 90.894 0 0 0 5.245 7.742c.332.44 1.003.043.671-.439ZM455.162 569.553c-1.447-2.305-3.171-4.458-4.789-6.644-.133-.18-.393-.022-.269.174 1.454 2.295 2.842 4.676 4.47 6.853.291.391.857.047.588-.383ZM460.133 567.931c-1.688-2.343-3.745-4.46-5.636-6.641-.115-.133-.336-.012-.218.142 1.738 2.289 3.381 4.723 5.318 6.849.287.317.817.04.536-.35ZM464.846 564.924c-1.462-2.305-3.07-4.512-4.678-6.717-.253-.347-.765-.038-.52.34 1.482 2.29 2.967 4.581 4.594 6.771.298.402.885.047.604-.394ZM473.331 558.987c-1.152-1.889-2.604-3.616-3.931-5.385-.298-.397-.903-.039-.604.394 1.251 1.822 2.426 3.745 3.845 5.439.365.435 1.002.064.69-.448ZM482.187 553.083c-1.136-1.636-2.498-3.122-3.777-4.647-.394-.469-1.17-.025-.756.493 1.244 1.558 2.433 3.185 3.81 4.625.394.411 1.094.064.723-.471ZM493.189 544.653c-1.89-2.224-4.095-4.229-6.142-6.311-.341-.347-.925.142-.588.526 1.927 2.19 3.767 4.526 5.848 6.572.52.513 1.377-.205.882-.787ZM497.166 539.869c-1.698-2.53-4.046-4.769-6.043-7.073-.47-.541-1.374-.038-.89.582 1.916 2.45 3.705 5.211 5.904 7.411.63.628 1.506-.209 1.029-.92ZM500.099 535.881c-1.214-2.644-3.018-5.12-4.524-7.609-.255-.42-1.016-.131-.766.355 1.33 2.581 2.494 5.39 4.106 7.806.418.629 1.539.222 1.184-.552ZM503.962 531.638c-1.284-2.736-3.103-5.373-4.751-7.906-.174-.267-.632-.094-.492.229 1.196 2.761 2.398 5.7 3.966 8.271.429.701 1.663.229 1.277-.594ZM506.073 526.995c-1.062-2.591-2.685-5.058-4.028-7.517-.27-.492-1.138-.336-.866.264 1.177 2.591 2.199 5.384 3.652 7.829.416.699 1.57.229 1.242-.576ZM507.686 523.232c-.932-2.441-2.357-4.779-3.539-7.11-.305-.601-1.337-.393-1.024.313 1.058 2.376 1.969 4.939 3.264 7.193.415.722 1.657.543 1.299-.396ZM507.535 516.527c-.641-1.12-1.239-2.28-1.964-3.347-.137-.202-.446-.072-.365.169.423 1.26 1.009 2.475 1.53 3.697.474 1.112.855 2.311 1.575 3.288.29.394 1.209.312 1.026-.314-.366-1.255-1.155-2.363-1.802-3.493ZM510.141 515.482l-2.368-3.624c-.179-.274-.664-.095-.51.237l1.803 3.887c.375.812 1.609.318 1.075-.5ZM508.432 506.81c-.292-.549-1.182-.393-.945.287.804 2.311 1.477 4.941 2.768 7.027.395.637 1.719.414 1.483-.454-.65-2.383-2.152-4.688-3.306-6.86ZM512.626 507.779c.465-.072.844-.446.547-.985-1.127-2.046-2.109-4.182-3.151-6.273-.244-.489-1.048-.333-.827.251.146.385.298.769.448 1.154-.339-.093-.734.121-.567.574.279.757.534 1.54.785 2.332-.242-.459-.485-.918-.686-1.364-.206-.457-.944-.296-.747.227.882 2.361 1.369 5.297 2.828 7.375.268.382.865.349 1.054-.011.415.547 1.643.633 1.396-.308-.263-1.008-.654-1.994-1.08-2.972ZM514.543 505.66c-.095-.199-.198-.394-.299-.591a.816.816 0 0 0-.02-.463c-.95-2.833-2.112-5.581-3.275-8.332-.181-.427-1.032-.407-.88.143.339 1.223.685 2.445 1.041 3.662-.173-.259-.319-.54-.496-.795-.103-.148-.338-.054-.273.128a73.252 73.252 0 0 0 2.792 6.679c.405.855 1.871.509 1.41-.431ZM435.539 602.669c-1.263-2.128-3.004-4.061-4.536-6.006-1.207-1.533-2.342-3.365-4.021-4.405-.051-.033-.13.014-.115.076.441 1.873 1.895 3.529 2.968 5.091.15.219.301.449.449.671-.27-.358-.541-.715-.802-1.072-1.409-1.931-2.802-3.862-4.318-5.71-.188-.228-.674-.094-.493.229 1.042 1.861 2.179 3.649 3.325 5.446 1.262 1.975 2.425 4.18 4.003 5.916.442.486 1.516.258 1.131-.526-.164-.333-.358-.652-.549-.974.525.73 1.041 1.471 1.632 2.13.724.806 1.922.136 1.326-.866ZM437.945 601.367c-.701-1.536-1.784-2.895-2.728-4.291-1.045-1.542-2.026-3.2-3.315-4.553-.151-.159-.463-.093-.364.17.584 1.549 1.539 2.97 2.382 4.39.945 1.593 1.793 3.346 2.987 4.767.403.483 1.365.229 1.038-.483ZM440.728 601.709c-1.808-3.563-4.544-6.71-6.663-10.1-.154-.246-.514-.029-.353.23 2.09 3.343 3.711 7.156 6.087 10.302.345.458 1.239.179.929-.432ZM444.184 603c-2.216-3.894-4.793-7.665-7.382-11.32-.105-.148-.391-.053-.292.136 2.07 3.932 4.256 7.925 6.707 11.633.338.511 1.31.154.967-.449ZM447.277 603.632c-2.13-3.78-4.548-7.409-6.849-11.088-.111-.177-.444-.05-.329.153 2.145 3.757 4.188 7.594 6.504 11.248.229.364.91.108.674-.313ZM450.356 601.345c-2.289-3.574-4.951-6.928-7.498-10.319-.134-.177-.395-.019-.269.175 2.296 3.561 4.52 7.213 7.077 10.593.344.454 1.01.053.69-.449ZM454.18 600.378c-2.254-3.876-4.96-7.573-7.522-11.253-.129-.184-.384-.022-.268.176 2.262 3.873 4.479 7.882 7.051 11.559.356.507 1.055.062.739-.482ZM457.652 598.486c-2.138-3.379-4.773-6.498-7.205-9.669-.084-.111-.248-.012-.167.109 2.18 3.341 4.245 6.854 6.717 9.987.335.425.96.053.655-.427ZM463.648 599.773c-2.764-3.897-5.552-7.788-8.436-11.596-.126-.166-.369-.02-.252.165 2.558 4.027 5.23 7.991 7.915 11.935.358.525 1.161.044.773-.504ZM467.482 598.162a83.425 83.425 0 0 0-8.339-11.344c-.098-.112-.351-.051-.256.119a83.142 83.142 0 0 0 7.992 11.62c.317.384.877.053.603-.395ZM470.586 593.771c-1.972-3.088-4.019-6.12-6.068-9.156-.094-.139-.294-.016-.203.131 1.942 3.107 3.879 6.21 5.901 9.266.168.255.541.027.37-.241ZM475.248 590.661c-1.861-2.778-3.887-5.433-5.818-8.162-.048-.068-.15-.008-.102.064 1.872 2.767 3.641 5.598 5.584 8.317.161.225.497.023.336-.219ZM479.792 584.253c-1.538-2.357-3.174-4.641-4.802-6.936-.225-.318-.694-.034-.471.305 1.542 2.354 3.07 4.712 4.701 7.003.275.385.842.043.572-.372ZM506.647 567.511c-1.707-2.737-3.901-5.253-5.846-7.828-.066-.087-.2-.009-.134.088 1.822 2.657 3.51 5.53 5.56 8.013.22.266.613.038.42-.273ZM509.776 565.004c-2.29-3.568-4.893-6.96-7.351-10.414-.144-.203-.451-.02-.302.198 2.397 3.493 4.687 7.103 7.249 10.479.201.265.592.03.404-.263ZM512.258 559.743c-2.044-3.605-4.512-7.001-6.797-10.457a.13.13 0 0 0-.218.142c2.133 3.518 4.137 7.187 6.504 10.552.184.262.694.085.511-.237ZM515.166 556.557c-2.532-3.97-5.433-7.733-8.198-11.542-.253-.35-.759-.041-.52.339 2.5 3.983 4.907 8.076 7.644 11.904.517.723 1.573.081 1.074-.701ZM516.843 552.693c-2.073-3.516-4.488-7.005-6.93-10.275-.256-.343-.933-.128-.693.321 1.948 3.639 4.098 7.326 6.43 10.73.565.824 1.71.1 1.193-.776ZM518.9 549.962c-1.962-3.708-4.771-7.118-7.236-10.505-.297-.409-.867-.051-.604.394 2.091 3.542 4.083 7.447 6.654 10.661.448.561 1.6.233 1.186-.55ZM519.29 545.998c-1.292-3.27-3.74-6.311-5.703-9.208-.24-.354-.89-.124-.675.313 1.541 3.13 2.972 6.722 5.157 9.461.48.603 1.551.268 1.221-.566ZM521.728 544.309c-1.425-3.743-4.09-7.185-6.07-10.66-.245-.43-1.025-.292-.767.234 1.78 3.63 3.135 7.74 5.451 11.069.516.743 1.735.275 1.386-.643ZM522.571 539.926c-.592-1.594-1.713-3.025-2.611-4.466l-3-4.81c-.233-.376-.914-.121-.692.323l2.523 5.03c.761 1.518 1.402 3.2 2.449 4.542.525.673 1.667.285 1.331-.619ZM524.901 533.417c-1.991-3.633-4.053-7.236-6.317-10.706-.254-.388-.902-.135-.711.33a120.82 120.82 0 0 0 2.421 5.509c-.959-1.481-1.904-2.97-2.869-4.447-.159-.244-.599-.082-.456.212 1.52 3.141 3.042 6.28 4.618 9.395-1.348-2.078-2.877-4.082-4.136-6.145-.231-.379-.934-.11-.693.322 1.834 3.292 3.17 7.109 5.441 10.124.539.715 1.836.293 1.423-.661-.175-.402-.409-.783-.611-1.176.778.52 2.047.062 1.516-1.005l-.264-.528c.571-.09 1.013-.54.638-1.224ZM477.055 615.083c-.67-1.35-1.554-2.456-2.435-3.654-.078-.105-.248-.041-.2.093.467 1.345.845 2.629 1.553 3.89.343.611 1.447.407 1.082-.329ZM474.6 614.542a17.04 17.04 0 0 0-1.786-2.402c-.245-.273-.77-.146-.602.279.376.95.884 1.883 1.431 2.749.42.668 1.391.077.957-.626ZM472.237 614.762l-1.128-2.479c-.161-.353-.695-.232-.57.173l.793 2.581c.18.586 1.183.34.905-.275ZM479.484 613.08c-.683-1.13-1.389-2.245-2.085-3.365-.081-.13-.31-.043-.238.11.56 1.185 1.11 2.374 1.685 3.552.232.473.938.199.638-.297ZM483.128 612.817c-.711-1.487-1.752-2.827-2.694-4.174-.228-.327-.857-.111-.638.297.771 1.436 1.497 2.971 2.492 4.266.316.411 1.107.169.84-.389ZM485.505 611.281c-.602-1.112-1.269-2.175-1.935-3.248-.192-.307-.768-.086-.566.261.633 1.095 1.256 2.186 1.954 3.241.191.288.734.091.547-.254ZM489.699 609.544a2004.63 2004.63 0 0 1-1.935-2.83c-.275-.401-.862-.043-.588.384l1.851 2.884c.298.464 1.001.045.672-.438ZM492.514 607.783l-.574-1.285c-.222-.496-1.064-.259-.787.239l.692 1.25c.211.378.878.264.669-.204ZM497.713 604.735a69.61 69.61 0 0 0-1.604-2.204c-.504-.674-1.534-.064-1.024.667.519.746 1.04 1.489 1.587 2.216.515.682 1.557.067 1.041-.679ZM504.064 598.701l-1.251-1.911c-.446-.682-1.475-.067-.991.646l1.285 1.89c.444.653 1.41.069.957-.625ZM510.449 596.975a49.173 49.173 0 0 0-1.551-1.923c-.255-.301-.758-.012-.487.319.526.64 1.06 1.265 1.617 1.878.225.248.647.025.421-.274ZM515.612 593.756a206.03 206.03 0 0 0-2.952-4.903c-.452-.738-1.491-.091-1.041.679.934 1.595 1.865 3.189 2.843 4.757.389.624 1.559.175 1.15-.533ZM517.293 589.924c-.835-1.466-1.77-2.854-2.723-4.246-.408-.596-1.549-.193-1.149.534.809 1.47 1.614 2.93 2.542 4.33.465.703 1.804.213 1.33-.618ZM520.086 587.408c-.582-1.759-1.924-3.399-2.99-4.892-.412-.577-1.497-.213-1.131.524.816 1.649 1.631 3.58 2.899 4.934.522.559 1.511.305 1.222-.566ZM522.046 585.489c-.762-1.984-2.151-3.778-3.307-5.546-.437-.669-1.679-.216-1.258.584.984 1.871 1.878 3.944 3.235 5.579.532.644 1.683.3 1.33-.617ZM524.025 583.264a244.35 244.35 0 0 0-3.079-5.219c-.435-.72-1.734-.226-1.313.61a226.647 226.647 0 0 0 2.66 5.135c.55 1.025 2.362.578 1.732-.526ZM524.245 578.208c-.38-.855-1.778-.549-1.398.424.513 1.315.895 2.804 1.72 3.956.386.54 1.394.376 1.273-.389-.218-1.383-1.03-2.716-1.595-3.991ZM528.569 573.719c-.59-1.401-1.345-2.729-2.049-4.073-.497-.947-2.097-.658-1.634.497.083.204.164.412.246.619-.526-.65-1.746-.37-1.345.584.415.988.787 2.079 1.215 3.141-.555-.151-1.21.243-.967 1.001.479 1.494.948 2.991 1.475 4.468.403 1.128 2.214.699 1.772-.537-.258-.723-.549-1.433-.826-2.148.074.105.13.228.209.33.471.608 1.789.496 1.577-.483-.161-.743-.464-1.474-.807-2.196.722.181 1.528-.271 1.134-1.203ZM529.346 569.073c-.622-.791-1.378-1.373-2.171-1.984-.687-.53-1.659.197-1.074.958.603.783 1.185 1.553 1.964 2.167.814.641 1.986-.244 1.281-1.141Z" style="fill: rgb(93, 93, 93);" class="fills"/></g></svg>