<svg width="530" xmlns="http://www.w3.org/2000/svg" height="412" fill="none"><rect rx="20" ry="20" x="133" width="397" height="313" style="fill: rgb(234, 234, 234); fill-opacity: 1;" class="fills"/><g xml:space="preserve" style="fill: rgb(0, 0, 0);"><path d="m152.532 100.85-8.209-17.135-16.781 7.991c-3.96-5.36-9.008-9.902-14.953-13.412l6.232-17.595-17.904-6.344-6.224 17.583c-6.817-1.026-13.62-.667-20.05 1.012l-8.029-16.811-17.126 8.168 7.98 16.799c-5.327 3.976-9.882 9.031-13.387 14.95l-17.572-6.227-6.36 17.91 17.58 6.227c-1.029 6.86-.666 13.66.984 20.049l-16.787 8.065 8.171 17.126 16.835-8.002c3.94 5.366 9.002 9.902 14.928 13.393l-6.232 17.599 17.909 6.344 6.234-17.586c6.814 1.032 13.621.698 20.037-1.007l8.021 16.809 17.168-8.165-8.002-16.834c5.357-3.928 9.886-8.971 13.365-14.947l17.622 6.244 6.342-17.894-17.619-6.25c1.034-6.807.699-13.604-.987-20.052l16.814-8.008Zm-45.765 27.522c-3.829 10.801-15.666 16.444-26.439 12.623-10.779-3.822-16.468-15.667-12.636-26.466 3.824-10.803 15.702-16.437 26.471-12.625 10.792 3.824 16.421 15.667 12.604 26.468ZM131.113 304.513l-5.306-11.076-10.847 5.166c-2.559-3.465-5.822-6.401-9.665-8.669l4.029-11.373-11.572-4.101-4.023 11.365c-4.407-.663-8.803-.431-12.96.655l-5.19-10.866-11.069 5.279 5.158 10.858a33.009 33.009 0 0 0-8.652 9.663l-11.358-4.025-4.111 11.576 11.363 4.025c-.665 4.434-.431 8.829.636 12.959l-10.851 5.213 5.282 11.069 10.881-5.172c2.547 3.468 5.818 6.4 9.649 8.657l-4.029 11.374 11.576 4.101 4.03-11.366c4.404.666 8.804.451 12.951-.652l5.184 10.865 11.096-5.278-5.171-10.88c3.462-2.539 6.389-5.799 8.638-9.661l11.389 4.036 4.1-11.566-11.388-4.04c.668-4.399.452-8.793-.638-12.961l10.868-5.175Zm-29.581 17.789c-2.474 6.981-10.125 10.628-17.088 8.158-6.967-2.47-10.644-10.126-8.168-17.106 2.472-6.983 10.149-10.624 17.11-8.16 6.975 2.472 10.613 10.126 8.146 17.108ZM390.189 94.188l-5.306-11.075-10.847 5.165c-2.559-3.464-5.822-6.4-9.665-8.669l4.029-11.372-11.572-4.101-4.023 11.365c-4.407-.663-8.804-.431-12.96.654l-5.19-10.866-11.069 5.279 5.158 10.859a33.009 33.009 0 0 0-8.652 9.663l-11.358-4.025-4.111 11.575 11.363 4.026c-.665 4.433-.43 8.829.636 12.958l-10.85 5.213 5.281 11.07 10.882-5.173c2.546 3.469 5.818 6.401 9.648 8.657l-4.028 11.375 11.575 4.101 4.03-11.367c4.404.667 8.804.451 12.951-.651l5.184 10.864 11.096-5.277-5.171-10.88c3.462-2.54 6.39-5.799 8.638-9.662l11.39 4.036 4.099-11.566-11.388-4.039c.668-4.4.452-8.793-.638-12.961l10.868-5.176Zm-29.581 17.789c-2.474 6.981-10.125 10.629-17.088 8.159-6.967-2.47-10.644-10.127-8.168-17.106 2.472-6.983 10.149-10.625 17.11-8.161 6.975 2.472 10.613 10.127 8.146 17.108Z" style="fill: rgb(42, 107, 204); fill-opacity: 0.5;" class="fills"/><path d="M61.608 109.015a6.564 6.564 0 0 0 6.564 6.564h144.942a6.564 6.564 0 0 0 6.564-6.564V87.678a6.563 6.563 0 0 0-6.564-6.563H68.172a6.563 6.563 0 0 0-6.564 6.563v21.337Z" style="fill: rgb(42, 64, 66);" class="fills"/><path d="M210.926 84.231a5.377 5.377 0 0 1 5.377 5.377v17.478a5.377 5.377 0 0 1-5.377 5.377H97.067V84.231h113.859ZM91.531 89.063a7.495 7.495 0 0 0-11.716 9.322l-3.238 2.847c-.549-.252-1.185-.198-1.631.194l-6.711 5.901c-.626.55-.64 1.556-.033 2.247.608.69 1.607.805 2.233.255l6.711-5.9c.446-.393.581-1.018.401-1.594l3.238-2.847a7.495 7.495 0 0 0 10.746-10.425Zm-5.671 11.039a6.124 6.124 0 0 1-6.118-6.118 6.125 6.125 0 0 1 6.118-6.118 6.125 6.125 0 0 1 6.117 6.118 6.124 6.124 0 0 1-6.117 6.118Z" style="fill: rgb(255, 255, 255);" class="fills"/><path d="M177.599 98.347a3.61 3.61 0 1 0 7.219 0 3.61 3.61 0 0 0-7.219 0ZM153.076 98.347a3.61 3.61 0 1 0 7.219 0 3.61 3.61 0 0 0-7.219 0ZM128.553 98.347a3.61 3.61 0 1 0 7.219 0 3.61 3.61 0 0 0-7.219 0Z" style="fill: rgb(42, 64, 66);" class="fills"/><path d="M175.351 319.064c0-6.866 4.588-12.431 10.246-12.431h47.872c5.661 0 10.247 5.565 10.247 12.431v3.766h-68.365v-3.766Z" style="fill: rgb(17, 21, 21);" class="fills"/><path d="M243.716 322.83v15.3c0 6.864-4.586 12.43-10.247 12.43h-47.872c-5.658 0-10.246-5.566-10.246-12.43v-15.3h68.365Z" style="fill: rgb(32, 44, 45);" class="fills"/><path d="M86.58 304.467c0 6.864 5.564 12.43 12.429 12.43h221.048c6.865 0 12.429-5.566 12.429-12.43V155.671c0-6.864-5.564-12.429-12.429-12.429H99.009c-6.865 0-12.429 5.565-12.429 12.429v148.796ZM175.425 339.578h68.217l32.511 21.962h-133.24Z" style="fill: rgb(42, 64, 66);" class="fills"/><path d="M321.977 153.266c.516 0 .934.418.934.933v145.836a.934.934 0 0 1-.934.934L94.928 153.266h227.049Z" style="fill: rgb(255, 255, 255);" class="fills"/><path d="M94.083 153.266h.845l227.049 147.703H94.083a.933.933 0 0 1-.932-.934V154.199c0-.515.417-.933.932-.933Z" style="fill: rgb(234, 234, 234);" class="fills"/><path d="M278.376 116.726c1.572-11.01 8.953-13.521 8.953-13.521l.039-.047h5.508c12.472 0 14.967 17.876 14.967 17.876h-.02.005v96.068h-66.6l-1.472-106.026 38.62 5.65Z" style="fill: rgb(141, 184, 191);" class="fills"/><path d="M242.924 279.246H124.682V117.864c.182-1.307 2.217-13.449 14.86-14.711H277.91v.005h9.458l-.039.047s-9.246 3.144-9.246 17.829h-.227l-.011 3.558v157.564l-.015.123c-.182 1.308-2.217 13.45-14.861 14.711h-4.562c-16.346-1.456-15.483-17.744-15.483-17.744Z" style="fill: rgb(170, 223, 237);" class="fills"/><path d="M243.009 279.246H94.922s2.495 17.876 14.967 17.876l151.866.001s-18.821.805-18.746-17.877Z" style="fill: rgb(141, 184, 191);" class="fills"/><rect rx="0" ry="0" x="190.069" y="122.295" width="74.572" height="4.143" style="fill: rgb(242, 250, 253); fill-opacity: 1;" class="fills"/><rect rx="0" ry="0" x="176.752" y="134.507" width="74.572" height="4.143" style="fill: rgb(242, 250, 253); fill-opacity: 1;" class="fills"/><rect rx="0" ry="0" x="151.23" y="134.507" width="16.572" height="4.143" style="fill: rgb(242, 250, 253); fill-opacity: 1;" class="fills"/><rect rx="0" ry="0" x="165.014" y="146.72" width="74.572" height="4.143" style="fill: rgb(242, 250, 253); fill-opacity: 1;" class="fills"/><rect rx="0" ry="0" x="190.069" y="158.932" width="74.572" height="4.143" style="fill: rgb(242, 250, 253); fill-opacity: 1;" class="fills"/><rect rx="0" ry="0" x="158.933" y="158.932" width="25.203" height="4.143" style="fill: rgb(242, 250, 253); fill-opacity: 1;" class="fills"/><rect rx="0" ry="0" x="139.093" y="219.188" width="32.286" height="5.308" style="fill: rgb(242, 250, 253); fill-opacity: 1;" class="fills"/><rect rx="0" ry="0" x="139.892" y="256.634" width="74.572" height="4.143" style="fill: rgb(242, 250, 253); fill-opacity: 1;" class="fills"/><rect rx="0" ry="0" x="220.398" y="256.634" width="25.203" height="4.143" style="fill: rgb(242, 250, 253); fill-opacity: 1;" class="fills"/><rect rx="0" ry="0" x="190.069" y="268.846" width="74.572" height="4.143" style="fill: rgb(242, 250, 253); fill-opacity: 1;" class="fills"/><path d="M204.071 309.814a4.542 4.542 0 1 0 9.084 0 4.542 4.542 0 0 0-9.084 0Z" style="fill: rgb(183, 183, 183);" class="fills"/><circle cx="330.348" cy="311.581" style="fill: rgb(42, 64, 66);" r="38.129" class="fills"/><path d="M330.348 273.452c21.058 0 38.129 17.071 38.129 38.129 0 21.058-17.071 38.129-38.129 38.129-21.058 0-38.13-17.071-38.13-38.129 0-21.058 17.072-38.129 38.13-38.129Zm0-3.672a41.534 41.534 0 0 0-16.272 3.287 41.662 41.662 0 0 0-13.286 8.956 41.665 41.665 0 0 0-8.957 13.286 41.54 41.54 0 0 0-3.286 16.272 41.536 41.536 0 0 0 3.286 16.272 41.665 41.665 0 0 0 8.957 13.286 41.665 41.665 0 0 0 13.286 8.957 41.536 41.536 0 0 0 16.272 3.286 41.558 41.558 0 0 0 16.272-3.286 41.65 41.65 0 0 0 13.285-8.957 41.649 41.649 0 0 0 8.957-13.286 41.537 41.537 0 0 0 3.287-16.272 41.54 41.54 0 0 0-3.287-16.272 41.649 41.649 0 0 0-8.957-13.286 41.647 41.647 0 0 0-13.285-8.956 41.54 41.54 0 0 0-16.272-3.287Z" style="fill: rgb(32, 44, 45);" class="fills"/><path d="m315.479 328.82-2.617-4.511a1.957 1.957 0 0 0-2.675-.711l-7.392 4.291c-.004-3.151 1.615-6.218 4.539-7.911a9.092 9.092 0 0 1 7.181-.844 3.887 3.887 0 0 0 1.287-.884l11.078-11.527.003.003 7.816-8.136a3.9 3.9 0 0 0 .88-1.448c-1.233-3.974.381-8.411 4.134-10.588a9.125 9.125 0 0 1 9.123-.018l-7.394 4.293a1.957 1.957 0 0 0-.712 2.674l2.617 4.51a1.96 1.96 0 0 0 2.677.712l7.392-4.293c.002 3.151-1.618 6.217-4.542 7.911a9.09 9.09 0 0 1-7.179.847c-.47.2-.909.49-1.287.881L329.33 315.6l-.003-.004-7.818 8.138c-.409.427-.7.922-.878 1.448 1.23 3.973-.383 8.41-4.136 10.587-2.921 1.693-6.386 1.579-9.12.015l7.392-4.292a1.95 1.95 0 0 0 .712-2.672Z" style="fill: rgb(224, 224, 234);" class="fills"/><path d="m304.01 287.833 3.198-3.198 5.377 2.184 2.182 5.38 21.249 21.249c.963.963 1.03 2.462.148 3.343-.882.881-2.38.817-3.343-.149l-21.253-21.249-5.377-2.181-2.181-5.379Z" style="fill: rgb(102, 102, 100);" class="fills"/><path d="M348.755 337.373c1.448 1.449 3.694 1.547 5.016.222l3.198-3.196c1.324-1.325 1.226-3.569-.222-5.017l-16.587-16.586c-1.448-1.448-3.695-1.547-5.018-.224l-3.196 3.198c-1.325 1.323-1.224 3.57.222 5.016l16.587 16.587Z" style="fill: rgb(244, 122, 88);" class="fills"/><path d="M352.691 330.119c1.157 1.159 2.309 1.883 2.575 1.617l.641-.639c.264-.263-.462-1.417-1.618-2.575l-13.269-13.27c-1.158-1.154-2.311-1.881-2.577-1.616l-.639.64c-.265.264.46 1.419 1.618 2.575l13.269 13.268ZM347.896 334.916c1.158 1.157 2.311 1.88 2.574 1.616l.64-.64c.265-.265-.459-1.417-1.616-2.575l-13.271-13.269c-1.155-1.156-2.309-1.88-2.573-1.617l-.641.641c-.263.265.461 1.418 1.616 2.573l13.271 13.271ZM350.293 332.519c1.158 1.155 2.31 1.88 2.576 1.616l.639-.64c.263-.264-.46-1.416-1.615-2.576l-13.273-13.266c-1.155-1.159-2.307-1.883-2.571-1.62l-.643.641c-.264.264.461 1.418 1.616 2.576l13.271 13.269Z" style="fill: rgb(247, 171, 154);" class="fills"/><path d="M247.182 171.146H192.1l5.233 4.142h49.849Z" style="fill: rgb(242, 250, 253); fill-opacity: 1;" class="fills"/><path d="M170.538 171.241v5.307h31.672l-6.704-5.307ZM232.593 183.358h-27.96l.793 1.983 1.364 2.16h25.803Z" style="fill: rgb(242, 250, 253); fill-opacity: 1;" class="fills"/><path d="M205.464 183.837H192.19v5.308h16.038l-1.747-2.767ZM167.97 194.909v5.308h49.72l-.713-5.308Z" style="fill: rgb(242, 250, 253); fill-opacity: 1;" class="fills"/><path d="M247.438 195.571h-36.317l.557 4.143h35.76ZM190.008 207.506v5.308h22.594l-.163-5.308Z" style="fill: rgb(242, 250, 253); fill-opacity: 1;" class="fills"/><path d="M264.642 207.783h-52.247l.128 4.143h52.119ZM178.981 224.495h30.409l.766-2.053.473-3.254h-31.648ZM210.773 224.139h44.547v-4.143h-43.579l-.37 2.54ZM206.21 236.352h24.122v-4.143h-22.57l-.201.54ZM193.471 248.564h51.706v-4.143h-47.846l-.746.523ZM183.382 231.886v5.308h22.593l-.163-5.308Z" style="fill: rgb(242, 250, 253); fill-opacity: 1;" class="fills"/><path d="m102.286 252.243-4.947-8.065 24.787-15.203 4.947 8.064Z" style="fill: rgb(67, 104, 104);" class="fills"/><path d="M209.512 182.466c-15.414-24.842-48.052-32.483-72.887-17.066-24.846 15.414-32.486 48.049-17.077 72.886 15.415 24.841 48.058 32.482 72.894 17.067 24.835-15.416 32.481-48.049 17.07-72.887Zm-21.856 65.169c-20.578 12.767-47.615 6.442-60.383-14.139-12.766-20.578-6.439-47.615 14.138-60.38 20.579-12.768 47.611-6.443 60.382 14.138 12.767 20.583 6.44 47.615-14.137 60.381Z" style="fill: rgb(67, 104, 104);" class="fills"/><path d="M141.411 173.116c-20.577 12.765-26.903 39.802-14.137 60.38l74.519-46.242c-12.771-20.581-39.803-26.906-60.382-14.138Z" style="fill: rgb(201, 233, 235);" class="fills"/><path d="m201.793 187.254-74.519 46.242c12.768 20.581 39.804 26.906 60.382 14.139 20.577-12.766 26.904-39.798 14.137-60.381Z" style="fill: rgb(181, 213, 214);" class="fills"/><path d="M132.138 202.361a2.914 2.914 0 0 1-2.414-3.188c.056-.545 1.546-13.424 13.074-20.601 16.009-9.979 31.212-3.445 31.854-3.164a2.913 2.913 0 0 1 1.479 3.85 2.906 2.906 0 0 1-3.845 1.487c-.521-.225-13.085-5.522-26.407 2.779-9.13 5.688-10.344 16.16-10.356 16.265a2.918 2.918 0 0 1-3.207 2.596c-.065-.007-.122-.016-.178-.024Z" style="fill: rgb(255, 255, 255);" class="fills"/><path d="M156.788 254.842c-24.652-4.126-41.348-27.537-37.222-52.191 4.126-24.653 27.537-41.352 52.189-37.224 24.649 4.125 41.354 27.539 37.225 52.192-4.124 24.652-27.545 41.348-52.192 37.223Zm14.617-87.324c-23.502-3.934-45.822 11.986-49.754 35.482-3.934 23.5 11.984 45.817 35.488 49.753 23.498 3.932 45.809-11.986 49.743-35.487 3.933-23.495-11.979-45.814-35.477-49.748Z" style="fill: rgb(10, 56, 60);" class="fills"/><path d="M35.23 288.133c-3.668-5.981-2.162-13.58 3.365-16.97l50.112-30.732c5.528-3.392 12.983-1.289 16.652 4.695 3.67 5.982 2.162 13.581-3.365 16.97L51.883 292.83c-5.529 3.389-12.984 1.287-16.653-4.697Z" style="fill: rgb(17, 21, 21);" class="fills"/></g></svg>