<svg width="602" xmlns="http://www.w3.org/2000/svg" height="468" fill="none"><rect rx="20" ry="20" x="11" width="397" height="313" style="fill: rgb(234, 234, 234); fill-opacity: 1;" class="fills"/><g xml:space="preserve" style="fill: rgb(0, 0, 0);"><path d="M53.667 240.573s-6.704-.482-6.087 14.545c.618 15.027 2.152 23.031 2.152 23.031s-.196 3.332-2.779 2.678c-2.583-.654-7.441-3.896-9.841-1.473-2.488 2.514-1.604 6.37 1.697 10.912 3.3 4.541 10.167 14.756 10.785 15.683.606.909.849 2.613-.982 2.45-1.831-.164-14.188-4.349-15.825 1.629-1.636 5.978 9.64 17.12 10.85 18.361 1.21 1.242 1.275 2.026.784 2.777-.49.751-4.512-1.047-8.075-2.092-3.563-1.047-7.879-1.636-8.534 1.892-.655 3.528 4.312 13.852 22.913 24.703l8.948 4.464 8.469-5.398c17.421-12.655 21.329-23.424 20.325-26.868-1.005-3.445-5.24-2.427-8.68-1.03-3.441 1.397-7.262 3.588-7.826 2.889-.563-.698-.577-1.485.502-2.841s11.184-13.57 8.957-19.354c-2.226-5.784-14.103-.385-15.908-.039-1.805.345-1.734-1.375-1.222-2.34.522-.983 6.332-11.833 9.161-16.682 2.83-4.849 3.324-8.773.597-11.026-2.631-2.172-7.14 1.54-9.644 2.449-2.505.908-3.035-2.387-3.035-2.387s.726-8.117-.164-23.131c-.89-15.013-7.674-13.801-7.674-13.801" style="fill: rgb(235, 235, 235);" class="fills"/><path d="M54.197 254.031s.018.106.036.314l.071.922.241 3.549c.206 3.082.47 7.544.774 13.058.613 11.028 1.33 26.27 2.066 43.105.736 16.841 1.415 32.085 1.967 43.116l.664 13.062.177 3.551.038.924c.006.209 0 .315 0 .315s-.017-.106-.036-.313l-.071-.923-.241-3.548c-.206-3.081-.47-7.542-.774-13.057-.613-11.028-1.33-26.272-2.067-43.113-.736-16.836-1.414-32.077-1.965-43.108l-.666-13.063-.176-3.552-.038-.924c-.006-.207 0-.315 0-.315Z" style="fill: rgb(224, 224, 224);" class="fills"/><path d="M43.725 284.164c.017-.017.215.148.557.463.345.312.828.779 1.42 1.362 1.181 1.169 2.769 2.827 4.487 4.688l4.376 4.785 1.332 1.443c.315.34.482.535.466.553-.016.017-.215-.147-.56-.459a42.484 42.484 0 0 1-1.414-1.37c-1.169-1.181-2.735-2.859-4.453-4.719l-4.409-4.751-1.339-1.438c-.314-.343-.48-.541-.463-.557ZM57.251 297.163c-.067-.067 3.205-3.491 7.308-7.647 4.105-4.159 7.486-7.474 7.553-7.408.068.067-3.204 3.49-7.309 7.648-4.103 4.156-7.485 7.473-7.552 7.407ZM57.214 323.071c-.01-.02.212-.161.624-.396l1.75-.981c1.477-.83 3.513-1.981 5.713-3.334a160.363 160.363 0 0 0 5.565-3.575l1.669-1.112c.397-.26.622-.396.637-.376.014.019-.186.19-.558.484-.373.294-.921.707-1.609 1.203a87.944 87.944 0 0 1-5.525 3.669 89.119 89.119 0 0 1-5.778 3.254c-.756.385-1.371.689-1.803.886-.431.199-.674.299-.685.278ZM42.39 314.004c.012-.02.232.084.619.29.387.206.942.514 1.622.901 1.363.773 3.233 1.862 5.287 3.083a322.506 322.506 0 0 1 5.236 3.169c.665.414 1.2.753 1.566.995.366.241.563.384.551.405-.012.02-.232-.084-.619-.291a76.257 76.257 0 0 1-1.622-.9 319.692 319.692 0 0 1-5.287-3.084 323.365 323.365 0 0 1-5.235-3.169 72.834 72.834 0 0 1-1.567-.994c-.367-.241-.563-.385-.551-.405ZM39.449 336.873c.013-.021.292.116.788.38l2.083 1.148c1.75.982 4.158 2.359 6.806 3.898a554.443 554.443 0 0 1 6.756 3.986l2.027 1.242c.475.3.732.475.72.495-.012.021-.291-.116-.787-.38l-2.083-1.147a543.34 543.34 0 0 1-6.807-3.9 523.064 523.064 0 0 1-6.755-3.985l-2.028-1.242c-.475-.299-.732-.475-.72-.495ZM58.246 347.627c-.012-.021.266-.204.777-.52l2.176-1.324a272.728 272.728 0 0 0 7.111-4.46 266.857 266.857 0 0 0 6.96-4.695l2.091-1.451c.496-.34.777-.52.791-.501.014.019-.24.235-.712.608a79.75 79.75 0 0 1-2.029 1.542 143.122 143.122 0 0 1-6.915 4.785 144.657 144.657 0 0 1-7.175 4.382c-.936.53-1.699.952-2.232 1.23-.532.28-.832.425-.843.404ZM71.694 363.057H46.938l8.08 61.111h8.596Z" style="fill: rgb(224, 224, 224);" class="fills"/><path d="M48.223 370.569c-.009.006.028.087.133.217.105.13.299.3.597.427.587.255 1.617.276 2.614-.321 1-.551 1.871-1.633 3.21-2.111 1.329-.507 2.975-.417 4.552.09 1.597.493 2.983 1.301 4.239 2.053 1.259.748 2.412 1.415 3.447 1.847 1.027.449 1.922.656 2.542.735.31.041.553.054.718.049.165 0 .251-.007.251-.021.014-.081-1.401-.068-3.395-1.023-.999-.456-2.122-1.139-3.371-1.906-1.243-.767-2.663-1.609-4.311-2.119-1.629-.523-3.38-.618-4.805-.052-.712.271-1.31.696-1.808 1.117-.506.418-.959.812-1.417 1.097-.906.585-1.857.609-2.411.418-.57-.197-.753-.531-.785-.497ZM49.126 381.824c.033.021.196-.252.584-.656a5.503 5.503 0 0 1 1.977-1.252c.929-.357 2.122-.568 3.443-.519 1.326.046 2.77.337 4.307.587 1.534.257 3.054.373 4.411.183a12.168 12.168 0 0 0 3.471-.99 11.078 11.078 0 0 0 2.087-1.24c.457-.346.674-.578.661-.594-.046-.067-1.002.788-2.862 1.572-.928.383-2.083.734-3.401.883-1.318.163-2.777.043-4.302-.212-1.525-.247-2.993-.533-4.36-.56-1.371-.03-2.605.219-3.561.626-.965.397-1.617.973-1.987 1.412-.178.229-.308.411-.374.549-.074.132-.106.205-.094.211ZM68.89 387.851c.009-.019-.22-.174-.683-.354-.46-.182-1.163-.369-2.051-.44-.887-.07-1.949-.012-3.102.178-1.154.186-2.392.505-3.691.781-1.299.273-2.552.457-3.687.416-1.134-.039-2.143-.287-2.926-.633-1.593-.698-2.16-1.715-2.221-1.651-.015.009.098.264.419.645.319.381.876.867 1.681 1.264.804.395 1.85.684 3.031.745 1.184.065 2.472-.116 3.786-.392 1.314-.28 2.542-.607 3.672-.81 1.128-.207 2.16-.292 3.022-.26 1.737.059 2.725.584 2.75.511ZM51.314 396.325c.012.065.883-.55 2.403-.242.745.134 1.578.512 2.515.937.932.434 2.057.807 3.263.899 2.432.233 4.596-.552 5.922-1.372a8.372 8.372 0 0 0 1.474-1.132c.301-.32.456-.504.436-.524-.054-.059-.705.672-2.053 1.409-1.326.733-3.414 1.441-5.743 1.216-2.344-.134-4.143-1.53-5.768-1.714-.793-.119-1.455-.005-1.867.162-.418.163-.594.347-.582.361ZM52.693 408.055c-.001.047.83.041 2.063-.41 1.244-.415 2.785-1.369 4.584-2.082.902-.344 1.807-.555 2.63-.55a4.843 4.843 0 0 1 2.115.482c1.137.565 1.466 1.369 1.529 1.318.018-.008-.032-.209-.235-.521-.2-.311-.579-.716-1.16-1.049-.58-.331-1.358-.577-2.244-.603-.888-.025-1.845.19-2.78.546-1.864.742-3.355 1.723-4.544 2.194-1.173.505-1.968.61-1.958.675ZM53.906 413.512c-.013.051.58.264 1.568.509.986.245 2.372.506 3.918.66 1.547.15 2.956.163 3.972.114 1.016-.048 1.64-.141 1.637-.193-.007-.122-2.509-.015-5.569-.322-3.062-.294-5.495-.886-5.526-.768ZM555.593 110.456l-45.572-16.352-45.129 16.132c-5.761 2.719-10.815 4.347-10.815 9.709v26.7c0 18.542 4.863 36.916 14.867 53.138 8.418 13.651 21.453 27.706 41.52 36.64 18.447-5.987 32.216-21.948 40.634-35.599 10.005-16.222 14.866-34.596 14.866-53.138v-24.009c0-7.648-4.056-11.382-10.371-13.221Z" style="fill: rgb(245, 245, 245);" class="fills"/><path d="M510.464 220.928c-15.877-7.068-26.19-18.426-32.85-29.226-7.915-12.834-11.762-27.371-11.762-42.041v-18.729c0-4.242 2.562-8.216 7.648-10.589l36.53-13.647-.008-12.592-45.13 16.132c-4.737 2.067-10.815 4.347-10.815 9.709v26.7c0 18.542 4.863 36.916 14.867 53.138 8.418 13.651 21.453 27.706 41.52 36.64v-15.495Z" style="fill: rgb(235, 235, 235);" class="fills"/><path d="M510.464 236.423c3.196-1.069 6.133-2.301 8.953-3.836 7.566-4.118 14.02-9.773 18.945-14.891 5.51-5.726 9.615-11.913 13.179-17.692 10.004-16.222 14.866-34.596 14.423-53.65l.028-22.044c-.028-10.977-5.662-11.786-10.399-13.854l-45.572-16.352.008 12.592 36.955 13.867c5.087 2.372 7.648 6.346 7.648 10.589v18.73c0 14.67-3.847 29.207-11.761 42.041-6.661 10.8-16.53 21.937-32.407 29.005v15.495Z" style="fill: rgb(224, 224, 224);" class="fills"/><path d="m522.111 148.46.05-3.603c0-6.519-5.308-11.823-11.832-11.823-6.524 0-11.832 5.304-11.832 11.804l-.051 3.671c-3.193.472-5.646 3.214-5.646 6.535v21.255a6.62 6.62 0 0 0 6.622 6.616h22.084a6.618 6.618 0 0 0 6.621-6.616v-21.255c0-3.449-2.644-6.278-6.016-6.584Zm-8.627 22.549h-5.776l.902-4.168a3.512 3.512 0 0 1-1.668-2.987 3.52 3.52 0 0 1 3.522-3.519 3.52 3.52 0 0 1 3.521 3.519 3.514 3.514 0 0 1-1.559 2.921c.409 1.616 1.058 4.234 1.058 4.234Zm6.077-22.58h-18.565l.05-3.572c0-5.115 4.164-9.276 9.283-9.276s9.283 4.161 9.283 9.257l-.051 3.591Z" style="fill: rgb(224, 224, 224);" class="fills"/><path d="M473.237 148.2c-.1.015-.417-1.391-.683-3.698-.274-2.306-.476-5.518-.37-9.065.05-1.773.168-3.461.329-4.988.147-1.527.427-2.959 1.019-4.03.579-1.077 1.387-1.718 1.996-2.004.618-.287 1.003-.273 1.009-.23.077.1-1.54.418-2.502 2.487-.475 1.001-.685 2.331-.791 3.843a100.132 100.132 0 0 0-.263 4.945c-.104 3.51.006 6.691.135 8.994.12 2.303.238 3.731.121 3.746ZM473.906 159.823c-.219.004-.42-1.093-.447-2.45-.026-1.358.13-2.463.35-2.467.22-.004.42 1.093.447 2.451.028 1.357-.13 2.462-.35 2.466Z" style="fill: rgb(255, 255, 255);" class="fills"/><path d="M576.008 424.222c0 .116-122.521.209-273.624.209-151.155 0-273.65-.094-273.65-.209 0-.115 122.495-.208 273.65-.208 151.103-.001 273.624.093 273.624.208Z" style="fill: rgb(38, 50, 56);" class="fills"/><path d="M478.354 116.768h-348.3c-6.004 0-10.872 4.863-10.872 10.862v245.808c0 6 4.868 10.864 10.872 10.864h133.677s8.504 26.272-17.857 39.866h124.995s-29.761-10.195-22.109-39.866h129.595c6.004 0 10.871-4.864 10.871-10.863V127.631c0-6-4.867-10.863-10.872-10.863Z" style="fill: rgb(69, 90, 100);" class="fills"/><path d="M308.855 358.45c4.738 6.766-2.677 14.175-9.451 9.442a2.405 2.405 0 0 1-.582-.583c-4.725-6.764 2.681-14.164 9.45-9.441.223.156.426.358.583.582Z" style="fill: rgb(38, 50, 56);" class="fills"/><path d="M483.229 339.333H125.18V129.048c0-4.295 3.485-7.777 7.783-7.777h342.482c4.299 0 7.784 3.483 7.784 7.777v210.285Z" style="fill: rgb(255, 255, 255);" class="fills"/><path d="M483.229 139.391H125.18v-10.778a7.345 7.345 0 0 1 7.347-7.342h344.67a6.03 6.03 0 0 1 6.033 6.028l-.001 12.092Z" style="fill: rgb(235, 235, 235);" class="fills"/><ellipse cx="136.582" cy="130.711" rx="2.516" ry="2.513" style="fill: rgb(224, 224, 224);" class="fills"/><ellipse cx="144.08" cy="130.711" rx="2.515" ry="2.513" style="fill: rgb(224, 224, 224);" class="fills"/><ellipse cx="151.21" cy="130.711" rx="2.515" ry="2.513" style="fill: rgb(224, 224, 224);" class="fills"/><path d="M416.084 384.336c0 .116-49.563.209-110.689.209-61.146 0-110.699-.093-110.699-.209 0-.115 49.553-.208 110.699-.208 61.125 0 110.689.093 110.689.208Z" style="fill: rgb(38, 50, 56);" class="fills"/><path d="m359.506 170.076-54.593-20.092-54.064 19.822c-6.901 3.341-12.955 5.341-12.955 11.931v32.808c0 22.784 5.824 45.362 17.809 65.295 10.085 16.773 25.701 34.044 49.741 45.021 22.099-7.356 38.593-26.968 48.678-43.741 11.985-19.933 17.809-42.51 17.809-65.295v-29.503c0-9.397-4.859-13.986-12.425-16.246Z" style="fill: rgb(42, 107, 204); fill-opacity: 1;" class="fills"/><g style="fill: rgb(0, 0, 0);"><g style="opacity: 0.8;"><path d="m359.506 170.076-54.593-20.092-54.064 19.822c-6.901 3.341-12.955 5.341-12.955 11.931v32.808c0 22.784 5.824 45.362 17.809 65.295 10.085 16.773 25.701 34.044 49.741 45.021 22.099-7.356 38.593-26.968 48.678-43.741 11.985-19.933 17.809-42.51 17.809-65.295v-29.503c0-9.397-4.859-13.986-12.425-16.246Z" style="fill: rgb(255, 255, 255);" class="fills"/></g></g><path d="M338.251 253.13h-10.032v-54.555c0-12.841-10.455-23.288-23.307-23.288-12.851 0-23.307 10.447-23.307 23.288v54.555h-10.031v-54.555c0-18.368 14.956-33.312 33.339-33.312s33.339 14.944 33.339 33.312l-.001 54.555Z" style="fill: rgb(42, 107, 204); fill-opacity: 1;" class="fills"/><path d="M338.251 253.13h-10.032v-54.555c0-12.841-10.455-23.288-23.307-23.288-12.851 0-23.307 10.447-23.307 23.288v54.555h-10.031v-54.555c0-18.368 14.956-33.312 33.339-33.312s33.339 14.944 33.339 33.312l-.001 54.555Z" class="fills" style="opacity: 0.4;"/><path d="M345.177 286.463h-80.529a4.662 4.662 0 0 1-4.664-4.66v-48.281a4.662 4.662 0 0 1 4.664-4.66h80.528a4.663 4.663 0 0 1 4.665 4.66v48.281a4.662 4.662 0 0 1-4.664 4.66Z" style="fill: rgb(42, 107, 204); fill-opacity: 1;" class="fills"/><path d="M312.424 250.158c0-4.144-3.363-7.504-7.511-7.504s-7.511 3.36-7.511 7.504c0 3.431 2.317 6.29 5.463 7.186v11.22h4.097v-11.22c3.144-.896 5.462-3.755 5.462-7.186Z" class="fills" style="opacity: 0.5;"/><path d="M264.776 281.001c-.207 0-.374-9.606-.374-21.454 0-11.851.167-21.455.374-21.455.206 0 .373 9.604.373 21.455 0 11.848-.167 21.454-.373 21.454ZM299.031 259.778c-.024.037-.352-.117-.88-.499-.53-.38-1.235-1.028-1.936-1.972-1.401-1.835-2.682-5.169-1.851-8.769.873-3.593 3.514-5.999 5.59-7.012 1.051-.529 1.971-.793 2.615-.894.644-.104 1.006-.095 1.012-.051.031.141-1.425.277-3.373 1.408-1.918 1.082-4.314 3.403-5.117 6.721-.771 3.324.33 6.472 1.558 8.298 1.233 1.884 2.473 2.658 2.382 2.77Z" style="fill: rgb(250, 250, 250);" class="fills"/><path d="M372.404 312.138s.216-.301.65-.873l.366-.48c.123-.186.234-.404.368-.634.263-.462.591-.986.825-1.649.129-.325.282-.663.412-1.03l.328-1.19c.134-.411.204-.858.275-1.325.06-.467.188-.946.203-1.458.22-2.037.085-4.413-.323-7.036-.814-5.261-3.047-11.459-6.465-18.194-3.413-6.749-8.113-14.009-13.887-21.577-5.777-7.57-12.722-15.389-20.706-23.239-7.993-7.841-17.042-15.72-27.184-23.185a213.93 213.93 0 0 0-16.071-10.745c-5.637-3.412-11.58-6.593-17.848-9.351-6.269-2.723-12.884-5.096-19.861-6.22-3.476-.536-7.063-.794-10.59-.261-1.76.27-3.489.75-5.116 1.48-1.603.782-3.076 1.823-4.294 3.138-1.17 1.359-2.043 2.938-2.639 4.617-.539 1.7-.827 3.47-.893 5.248-.134 3.564.532 7.096 1.459 10.487 1.91 6.8 5.023 13.099 8.445 19.013 3.455 5.91 7.295 11.45 11.331 16.659a213.558 213.558 0 0 0 12.515 14.732c8.579 9.22 17.442 17.307 26.149 24.349 8.717 7.033 17.281 13.037 25.466 17.91 8.181 4.871 15.935 8.709 23.034 11.329 7.086 2.628 13.501 4.139 18.825 4.347 2.653.106 5.032-.031 7.03-.48.508-.073.97-.254 1.428-.367.455-.123.891-.244 1.285-.424l1.146-.461c.351-.172.669-.362.977-.526.632-.308 1.116-.694 1.546-1.007.212-.159.417-.294.587-.438l.436-.417c.517-.494.791-.742.791-.742Zs-.252.267-.764.774l-.43.427c-.169.147-.372.285-.583.448-.428.32-.911.713-1.542 1.029-.309.169-.628.364-.98.539l-1.147.474c-.396.183-.833.308-1.291.435-.459.117-.924.302-1.434.379-2.008.466-4.398.616-7.064.522-5.349-.184-11.79-1.677-18.9-4.289-7.123-2.605-14.899-6.432-23.104-11.294-8.208-4.864-16.795-10.863-25.532-17.894-8.728-7.04-17.612-15.129-26.213-24.357a213.384 213.384 0 0 1-12.549-14.751c-4.047-5.217-7.899-10.768-11.369-16.696-3.435-5.934-6.563-12.254-8.491-19.107-.935-3.42-1.611-6.987-1.476-10.614.068-1.81.36-3.619.915-5.366.612-1.727 1.513-3.358 2.723-4.762 1.259-1.361 2.781-2.435 4.428-3.237 1.673-.751 3.441-1.239 5.231-1.515 3.591-.542 7.213-.278 10.718.262 7.032 1.136 13.671 3.522 19.96 6.256 6.288 2.769 12.245 5.961 17.891 9.384a214.107 214.107 0 0 1 16.092 10.776c10.153 7.487 19.205 15.385 27.198 23.248 7.985 7.872 14.927 15.713 20.698 23.307 5.768 7.591 10.459 14.875 13.861 21.651 3.407 6.76 5.625 12.984 6.418 18.274.397 2.636.519 5.025.286 7.072-.019.515-.149.997-.214 1.467-.074.469-.148.917-.285 1.33l-.34 1.194c-.134.369-.291.708-.424 1.034-.242.663-.578 1.187-.847 1.648-.138.228-.252.446-.379.63l-.376.476c-.448.564-.685.846-.685.846Z" style="fill: rgb(42, 107, 204); fill-opacity: 1;" class="fills"/><path d="M398.099 250.166s-.04-.367-.096-1.082l-.047-.602c-.032-.22-.095-.458-.147-.718-.112-.519-.216-1.129-.483-1.778-.12-.328-.231-.683-.379-1.044l-.548-1.106c-.174-.396-.419-.775-.677-1.171-.267-.389-.491-.831-.821-1.224-1.193-1.665-2.876-3.349-4.928-5.035-4.113-3.386-9.907-6.525-16.946-9.277-7.043-2.767-15.387-5.059-24.738-6.866-9.354-1.807-19.745-3.023-30.935-3.571-11.188-.535-23.19-.396-35.732.779a213.825 213.825 0 0 0-19.151 2.67c-6.48 1.203-13.035 2.782-19.55 4.894-6.492 2.137-13.009 4.766-18.964 8.568-2.952 1.912-5.8 4.105-8.077 6.849-1.132 1.372-2.103 2.879-2.831 4.508-.675 1.648-1.082 3.405-1.114 5.197.031 1.791.432 3.55 1.106 5.201a19.828 19.828 0 0 0 2.829 4.511c2.273 2.748 5.124 4.941 8.076 6.855 5.955 3.804 12.475 6.434 18.968 8.572 6.516 2.112 13.073 3.693 19.554 4.896a214.252 214.252 0 0 0 19.154 2.67c12.545 1.174 24.547 1.314 35.736.778 11.19-.548 21.582-1.764 30.936-3.571 9.35-1.807 17.694-4.099 24.737-6.866 7.037-2.752 12.832-5.891 16.944-9.277 2.051-1.686 3.734-3.37 4.927-5.035.329-.392.554-.835.82-1.224.258-.395.503-.774.677-1.17l.548-1.106c.147-.36.258-.715.379-1.043.266-.65.37-1.259.482-1.779.052-.26.116-.497.147-.718l.047-.601c.057-.716.097-1.084.097-1.084Zs-.011.368-.053 1.086l-.037.605c-.028.221-.088.46-.138.723-.106.522-.203 1.138-.464 1.793-.118.331-.227.689-.373 1.053l-.542 1.116c-.172.4-.415.785-.672 1.183-.265.393-.488.841-.817 1.237-1.189 1.683-2.872 3.384-4.924 5.088-4.114 3.42-9.916 6.589-16.962 9.369-7.051 2.794-15.405 5.11-24.766 6.939-9.366 1.828-19.77 3.063-30.974 3.627-11.205.552-23.223.425-35.789-.741a213.728 213.728 0 0 1-19.192-2.661c-6.495-1.201-13.069-2.782-19.608-4.898-6.517-2.144-13.062-4.779-19.066-8.612-2.976-1.929-5.857-4.142-8.172-6.939a20.25 20.25 0 0 1-2.893-4.613c-.694-1.696-1.109-3.512-1.14-5.365.032-1.853.453-3.668 1.148-5.361.748-1.673 1.742-3.213 2.894-4.61 2.318-2.792 5.198-5.004 8.174-6.932 6.004-3.83 12.547-6.464 19.062-8.607 6.537-2.116 13.11-3.695 19.604-4.896a214.005 214.005 0 0 1 19.188-2.661c12.564-1.166 24.581-1.293 35.785-.742 11.204.564 21.608 1.798 30.973 3.626 9.362 1.828 17.715 4.144 24.767 6.939 7.047 2.779 12.849 5.948 16.964 9.369 2.052 1.703 3.736 3.404 4.925 5.087.329.397.553.844.818 1.237.257.4.5.784.673 1.184l.542 1.117c.146.365.254.723.373 1.053.261.656.359 1.27.465 1.794.049.262.109.501.137.723l.037.604c.042.719.053 1.086.053 1.086Z" style="fill: rgb(42, 107, 204); fill-opacity: 1;" class="fills"/><path d="M364.055 173.025s-.315-.193-.916-.587l-.505-.331c-.193-.11-.419-.206-.657-.324-.479-.23-1.025-.521-1.703-.709-.333-.106-.682-.235-1.058-.34l-1.211-.245c-.419-.105-.871-.144-1.341-.182-.47-.028-.957-.122-1.47-.102-2.049-.078-4.412.219-7.002.806-5.198 1.174-11.232 3.827-17.72 7.699-6.504 3.867-13.43 9.051-20.587 15.328-7.161 6.28-14.488 13.741-21.777 22.241-7.279 8.506-14.521 18.07-21.277 28.694a213.685 213.685 0 0 0-9.621 16.758c-3.019 5.854-5.786 11.998-8.107 18.437-2.287 6.436-4.201 13.193-4.843 20.224-.295 3.503-.306 7.096.47 10.575.391 1.735.989 3.425 1.83 4.998.89 1.543 2.031 2.94 3.428 4.064 1.437 1.073 3.074 1.833 4.791 2.313 1.735.42 3.522.584 5.302.529 3.567-.112 7.048-1.019 10.37-2.177 6.658-2.373 12.732-5.909 18.402-9.727 5.663-3.852 10.93-8.061 15.852-12.442a213.997 213.997 0 0 0 13.848-13.49c8.615-9.186 16.079-18.578 22.511-27.743 6.421-9.172 11.827-18.123 16.128-26.617 4.299-8.491 7.598-16.484 9.725-23.741 2.135-7.244 3.201-13.743 3.043-19.065-.078-2.653-.378-5.013-.965-6.975-.108-.501-.32-.948-.464-1.397-.154-.446-.305-.872-.512-1.253l-.539-1.11c-.195-.338-.408-.643-.593-.938-.351-.609-.769-1.065-1.112-1.471-.173-.201-.322-.397-.477-.556l-.447-.406c-.53-.481-.796-.738-.796-.738Zs.283.234.826.708l.456.4c.158.158.311.351.487.551.349.404.775.858 1.134 1.466.19.296.406.6.606.939l.551 1.112c.21.381.365.808.523 1.255.149.45.366.901.478 1.403.603 1.97.917 4.341 1.007 7.006.184 5.344-.863 11.867-2.982 19.134-2.11 7.28-5.395 15.295-9.685 23.808-4.291 8.516-9.689 17.488-16.108 26.682-6.428 9.186-13.891 18.599-22.514 27.808a213.657 213.657 0 0 1-13.862 13.525c-4.93 4.393-10.208 8.616-15.888 12.482-5.688 3.833-11.783 7.387-18.493 9.781-3.35 1.168-6.865 2.087-10.496 2.202a20.264 20.264 0 0 1-5.421-.542c-1.766-.492-3.457-1.277-4.942-2.387-1.446-1.16-2.623-2.605-3.537-4.191-.866-1.615-1.475-3.344-1.873-5.11-.789-3.54-.774-7.17-.476-10.701.649-7.088 2.574-13.869 4.872-20.327 2.331-6.459 5.108-12.616 8.137-18.481a213.533 213.533 0 0 1 9.651-16.782c6.776-10.636 14.038-20.204 21.338-28.713 7.311-8.502 14.662-15.962 21.846-22.238 7.181-6.272 14.131-11.45 20.662-15.307 6.515-3.861 12.577-6.501 17.804-7.655 2.605-.578 4.982-.864 7.042-.772.515-.018 1.005.08 1.479.112.474.041.926.085 1.348.193l1.216.256c.377.109.727.243 1.061.352.679.195 1.225.495 1.704.731.237.122.463.221.656.335l.501.341c.594.408.892.624.892.624ZM210.712 288.594a3.455 3.455 0 0 1 0 4.89 3.463 3.463 0 0 1-4.895 0 3.457 3.457 0 0 1 0-4.89 3.464 3.464 0 0 1 4.895 0ZM405.975 181.442a3.459 3.459 0 0 1-3.461 3.458 3.458 3.458 0 1 1 0-6.915 3.458 3.458 0 0 1 3.461 3.457ZM232.567 299.964a.88.88 0 1 1-1.76-.002.88.88 0 0 1 1.76.002ZM251.339 203.067a.88.88 0 1 1-1.758 0 .88.88 0 0 1 1.758 0ZM388.59 250.166a.88.88 0 1 1-1.758 0 .88.88 0 0 1 1.758 0ZM400.813 209.197a.88.88 0 1 1-1.76-.002.88.88 0 0 1 1.76.002ZM542.218 340.404A29.948 29.948 0 0 1 555.026 336c2.093-.215 4.38-.154 6.059 1.113.356.268.704.666.624 1.105-.059.322-.332.557-.593.756-5.212 3.973-13.095 4.474-18.898 1.43ZM542.546 340.043c2.9-2.261 5.817-4.538 8.273-7.273 2.456-2.735 4.452-5.983 5.187-9.584.222-1.092.291-2.34-.411-3.207-6.593 5.146-11.774 11.8-13.049 20.064Z" style="fill: rgb(42, 107, 204); fill-opacity: 1;" class="fills"/><path d="M542.286 340.354c.497-3.604.675-7.309-.153-10.852-.828-3.543-2.757-6.934-5.786-8.955-1.139 2.661-.65 5.727.153 8.508a41.35 41.35 0 0 0 5.737 12.068M535.822 351.928c3.924.477 7.342 2.543 10.271 5.195a19.406 19.406 0 0 1 5.876 10.078c-3.849-.238-7.114-2.95-9.483-5.991-2.368-3.041-4.009-6.378-6.664-9.282ZM534.418 353.779c3.161-7.779 2.015-17.152-2.925-23.944-2.236 7.946-1.415 16.921 2.925 23.944ZM525.877 363.941a18.452 18.452 0 0 1 10.274 2.405 18.43 18.43 0 0 1 7.241 7.669c.218.433.409.984.118 1.372-.252.338-.74.369-1.161.342-3.452-.224-6.511-2.298-9.036-4.662-2.525-2.363-4.724-5.093-7.436-7.126ZM526.149 363.387a32.575 32.575 0 0 0 .326-18.208c-.642-2.343-1.72-4.811-3.889-5.91-.186-.093-.401-.177-.595-.104-.184.069-.291.258-.376.436-.771 1.61-.996 3.439-.916 5.223.079 1.784.45 3.541.819 5.288.683 3.232 1.047 6.706 2.821 9.493.421.662.792 1.376 1.128 2.085.335.709.337.958.646 1.521M503.54 366.753c1.675-6.366-.103-14.084-4.118-19.303-.295-.384-.687-.797-1.17-.752-.739.068-.931 1.053-.898 1.794a34.868 34.868 0 0 0 6.186 18.261ZM501.502 368.145c-7.741 2.013-16.622.057-23.06-4.686a18.69 18.69 0 0 1 12.483-1.531c4.17.953 7.981 2.82 10.577 6.217ZM499.783 363.906c-4.335-7.062-12.647-11.672-20.929-12.092.954 3.365 3.722 5.982 6.845 7.562 3.123 1.581 6.609 2.269 10.046 2.936 1.338.259 3.171.545 4.038 1.594ZM503.11 343.338c-1.174-4.019-2.354-8.073-2.677-12.247-.323-4.173.274-8.531 2.441-12.114 4.049 7.83 4.459 16.979.357 24.78M489.475 336.452c-4.736-8.6-14.398-15.47-24.175-16.432 3.772 9.382 14.057 16.634 24.175 16.432ZM492.454 338.138c-7.062 1.074-13.08 5.582-19.68 8.314-1.412.585-2.935 1.05-4.449.852-1.515-.198-3.01-1.214-3.35-2.703-.282-1.236.281-2.548 1.169-3.454.888-.906 2.06-1.472 3.231-1.959 7.189-2.99 14.899-3.065 22.471-1.252" style="fill: rgb(42, 107, 204); fill-opacity: 1;" class="fills"/><path d="M496.542 343.087c-1.599.457-2.146 1.285-3.412 2.362a36.832 36.832 0 0 1-14.924 7.66c-.57.141-1.318.198-1.6-.317-.247-.449.066-.994.386-1.394 2.295-2.869 5.567-4.83 9.011-6.112 3.445-1.282 6.428-2.826 10.539-2.495M501.154 313.193c-5.743 5.357-13.833 8.107-21.654 7.361-.355-.034-.744-.091-.985-.354-.545-.592.109-1.507.744-2.002 6.366-4.958 14.077-7.014 21.895-5.005Z" style="fill: rgb(42, 107, 204); fill-opacity: 1;" class="fills"/><path d="M495.686 311.194c-7.592-5.687-18.002-7.403-27.02-4.455 3.402 3.351 8.124 5.154 12.875 5.648 4.752.494 9.51-.032 14.145-1.193ZM497.859 297.456c.625-6.348.219-11.361.66-17.739.036-.509.145-1.123.622-1.307.665-.255 1.219.561 1.436 1.238 1.892 5.88.858 12.624-2.709 17.669" style="fill: rgb(42, 107, 204); fill-opacity: 1;" class="fills"/><path d="M498.316 298.158c-4.307-2.661-7.538-6.137-10.526-10.222-2.079-2.843-3.832-6.248-3.359-9.737 2.919-.058 5.694 1.552 7.592 3.767 1.9 2.217 3.028 4.988 3.871 7.781.843 2.795 1.433 5.666 2.422 8.411ZM487.975 295.288a84.903 84.903 0 0 1-25.905-15.262c3.095-1.246 6.638-.501 9.731.747 7.068 2.851 12.843 7.662 16.309 14.446M495.408 301.632c-4.781.522-9.639.862-14.384.069-4.663-.778-9.07-2.625-13.427-4.458-.362-.152-.754-.334-.913-.692-.172-.389.011-.863.328-1.148.315-.285.735-.422 1.145-.536 4.737-1.324 9.85-.705 14.511.866s8.483 3.436 12.74 5.899ZM522.713 313.41c3.262-6.58 3.051-14.258.232-21.04-1.984 3.02-2.226 6.867-1.863 10.461.362 3.595 1.457 7.294 1.529 10.907M535.747 306.842c8.146-.155 16.294 3.313 21.825 9.29-4.066.638-8.253-.409-11.951-2.214-3.698-1.804-6.984-4.335-10.242-6.849M544.51 303.914c3.985-.323 7.819-.816 11.651.357 3.831 1.173 7.317 3.836 8.879 7.523-3.726.42-7.506-.514-10.922-2.061-3.416-1.546-6.523-3.688-9.608-5.819ZM531.535 304.048c3.585-2.348 7.266-4.737 11.441-5.709 4.174-.973 9.011-.254 11.922 2.889-3.379 1.981-7.479 2.215-11.396 2.212-3.918-.003-8.721-.047-12.414 1.258" style="fill: rgb(42, 107, 204); fill-opacity: 1;" class="fills"/><path d="M531.514 304.237c6.128-6.012 8.452-16.815 5.986-25.036-4.817 7.314-6.974 16.337-5.986 25.036ZM514.662 287.2c-1.156-2.685-1.969-5.502-3.006-8.235-1.037-2.734-2.326-5.423-4.286-7.593-1.959-2.17-4.669-3.785-7.59-3.931 1.829 8.275 7.33 15.668 14.732 19.802M517.712 290.75c1.913-2.631 4.122-6.201 6.717-8.164 2.594-1.964 5.971-3.152 9.136-2.398-3.219 5.75-9.302 9.803-15.853 10.562ZM517.102 287.419c1.254-3.183 2.516-6.4 3.024-9.783.507-3.382.198-6.996-1.533-9.947-3.364 6.355-4.447 13.175-1.662 19.802M514.631 267.688c-1.905-6.298-7.678-10.936-13.91-13.064-.786-.269-1.618-.492-2.439-.365s-1.626.687-1.797 1.499c-.228 1.071.658 2.031 1.491 2.744a47.38 47.38 0 0 0 16.655 9.186ZM514.562 262.537c-.242-4.061-.496-8.181-1.818-12.029-1.322-3.848-3.87-7.458-7.577-9.142-.631 4.102 1.181 8.183 3.365 11.712 2.184 3.53 4.817 6.862 6.129 10.799M514.662 265.333c1.575-4.591 1.738-10.421 4.488-14.421 1.924-2.796 5.003-4.699 6.66-7.66 1.101 2.765.764 5.951-.388 8.696-1.151 2.746-3.053 5.108-5.089 7.28-2.035 2.173-3.778 3.807-5.671 6.105Z" style="fill: rgb(42, 107, 204); fill-opacity: 1;" class="fills"/><path d="M514.631 400.521c.123 0 .229-30.624.237-68.39.009-37.78-.083-68.397-.206-68.397-.123 0-.229 30.616-.237 68.397-.008 37.766.084 68.39.206 68.39Z" style="fill: rgb(42, 107, 204); fill-opacity: 1;" class="fills"/><path d="M487.848 308.789c-.009.03.402.182 1.153.433l3.171 1.069c2.674.91 6.347 2.228 10.334 3.861 3.948 1.692 7.671 3.066 9.79 4.901 1.059.906 1.668 1.886 1.968 2.6.304.719.359 1.159.399 1.151.015-.002.01-.112-.013-.321-.036-.206-.088-.515-.225-.893-.258-.755-.85-1.804-1.92-2.772-1.066-.97-2.548-1.843-4.248-2.637a130.803 130.803 0 0 0-5.582-2.439 127.956 127.956 0 0 0-10.405-3.749 86.14 86.14 0 0 0-3.219-.937c-.767-.199-1.194-.296-1.203-.267Z" style="fill: rgb(42, 107, 204); fill-opacity: 1;" class="fills"/><path d="M479.069 287.243c-.01.011.101.13.323.345l.983.923 3.672 3.332 12.219 10.872c4.771 4.243 8.893 8.297 11.75 11.348a136.407 136.407 0 0 1 3.325 3.669l.888 1.013c.205.23.319.346.331.336.012-.009-.078-.144-.262-.392-.185-.246-.456-.612-.825-1.067a81.818 81.818 0 0 0-3.228-3.77c-2.805-3.115-6.905-7.216-11.684-11.467a1615.802 1615.802 0 0 0-12.308-10.777l-3.765-3.227-1.038-.861c-.24-.192-.371-.288-.381-.277Z" style="fill: rgb(42, 107, 204); fill-opacity: 1;" class="fills"/><path d="M501.416 307.029c.125-.055-.871-2.355-1.864-5.262-1.003-2.907-1.474-5.361-1.601-5.34-.115.012.166 2.538 1.182 5.482a35.723 35.723 0 0 0 1.483 3.68c.434.918.746 1.464.8 1.44ZM514.603 325.564c.025.018.286-.286.735-.853l1.884-2.412a817.27 817.27 0 0 1 6.219-7.949 837.631 837.631 0 0 1 6.337-7.858l1.924-2.379c.449-.566.687-.889.663-.909-.023-.02-.305.265-.795.797-.491.532-1.186 1.314-2.033 2.291a242.318 242.318 0 0 0-6.445 7.783 240.942 240.942 0 0 0-6.122 8.036c-.761 1.046-1.365 1.9-1.772 2.499-.406.597-.62.936-.595.954Z" style="fill: rgb(42, 107, 204); fill-opacity: 1;" class="fills"/><path d="M520.476 318.031c.072.078 1.639-1.78 2.46-4.602.606-1.989.632-3.808.558-4.64l-.196.016c.087.355.151.542.187.536.035-.005.037-.203.008-.568l-.196.016c-.072.826-.197 2.582-.786 4.514-.792 2.735-2.154 4.653-2.035 4.728ZM528.058 308.502c.057.062.561-.573 1.717-.997 1.148-.443 2.875-.541 4.77-.379 1.896.139 3.59.477 4.802.775 1.212.3 1.954.535 1.976.474.02-.052-.685-.394-1.892-.776a22.021 22.021 0 0 0-4.853-.914c-1.916-.165-3.734-.018-4.919.53-1.203.532-1.642 1.276-1.601 1.287ZM529.855 306.192c.033.069 1.001-.401 2.632-.957a27.133 27.133 0 0 1 6.565-1.351c2.62-.195 5.003.034 6.696.34 1.697.304 2.724.621 2.747.548.01-.029-.238-.133-.697-.297-.457-.17-1.137-.365-1.988-.557-1.699-.39-4.123-.674-6.79-.475-2.666.207-5.019.855-6.64 1.498-.812.319-1.455.614-1.88.851-.429.233-.659.373-.645.4ZM514.662 296.427c.119.03.977-2.953 1.919-6.661.942-3.709 1.609-6.74 1.49-6.771-.119-.03-.978 2.953-1.919 6.662-.941 3.708-1.608 6.74-1.49 6.77Z" style="fill: rgb(42, 107, 204); fill-opacity: 1;" class="fills"/><path d="M514.54 296.427c.131.042.685-1.95 2.127-3.988 1.404-2.081 3.196-3.125 3.131-3.228-.023-.047-.518.135-1.208.622-.692.481-1.547 1.297-2.285 2.352-1.498 2.12-1.872 4.234-1.765 4.242ZM514.631 384.196c.048.007.138-.736.484-2.036.341-1.301.984-3.145 2.048-5.302 2.117-4.324 5.97-9.806 10.866-15.297 2.426-2.769 4.78-5.382 6.778-7.884 2.001-2.498 3.646-4.878 4.847-6.984 1.204-2.103 1.989-3.908 2.446-5.182.225-.638.39-1.137.481-1.482.097-.343.14-.525.126-.529-.039-.012-.262.701-.767 1.949-.504 1.248-1.326 3.019-2.556 5.087-1.227 2.07-2.885 4.415-4.894 6.886-2.006 2.476-4.362 5.075-6.793 7.849-4.909 5.505-8.753 11.056-10.815 15.451-1.037 2.193-1.641 4.073-1.933 5.397-.142.663-.237 1.179-.271 1.535-.046.353-.062.539-.047.542Z" style="fill: rgb(42, 107, 204); fill-opacity: 1;" class="fills"/><path d="M490.429 356.882c-.014.033.449.267 1.269.711a27.9 27.9 0 0 1 3.29 2.174c1.322 1.012 2.801 2.34 4.32 3.938 1.517 1.601 3.079 3.46 4.674 5.451 3.187 3.996 6.169 7.532 7.954 10.355a42.768 42.768 0 0 1 1.997 3.409c.436.826.666 1.29.698 1.276.014-.007-.027-.13-.117-.359-.095-.228-.222-.571-.426-.993a32.033 32.033 0 0 0-1.887-3.499c-1.734-2.891-4.692-6.476-7.874-10.466-1.598-1.995-3.179-3.858-4.724-5.457-1.548-1.595-3.066-2.915-4.427-3.905a23.15 23.15 0 0 0-3.398-2.075c-.42-.211-.764-.34-.99-.438-.229-.095-.353-.136-.359-.122Z" style="fill: rgb(42, 107, 204); fill-opacity: 1;" class="fills"/><path d="M489.955 365.743c-.006.064 1.024.189 2.681.389 1.651.213 3.951.489 6.359 1.251 2.399.781 4.393 1.97 5.693 2.985 1.312 1.013 1.931 1.852 1.992 1.803.021-.016-.107-.244-.397-.617-.287-.375-.756-.877-1.397-1.428-1.278-1.102-3.292-2.362-5.755-3.164-2.467-.781-4.797-1.007-6.463-1.142-1.673-.121-2.708-.134-2.713-.077Z" style="fill: rgb(42, 107, 204); fill-opacity: 1;" class="fills"/><path d="M505.898 371.198c.139-.08-1.069-1.923-2.006-4.404-.88-2.503-1.086-4.697-1.244-4.672-.057.007-.054.555.044 1.437a15.5 15.5 0 0 0 .782 3.386c.469 1.284 1.083 2.358 1.555 3.105.479.747.819 1.178.869 1.148ZM482.59 333.093c-.005.015.143.092.429.228l1.26.572c.553.236 1.222.536 1.976.934.758.391 1.642.792 2.562 1.345l1.462.831c.508.291 1.009.638 1.543.971 1.078.654 2.158 1.458 3.311 2.28a62.378 62.378 0 0 1 6.912 6.074 62.351 62.351 0 0 1 5.841 7.111c.782 1.18 1.55 2.286 2.167 3.385.315.545.644 1.058.919 1.574l.781 1.489c.521.938.893 1.834 1.258 2.604.371.768.648 1.446.867 2.005l.529 1.278c.126.29.199.441.213.436.015-.005-.03-.165-.129-.466l-.453-1.309a22.353 22.353 0 0 0-.8-2.042c-.344-.783-.699-1.693-1.205-2.646l-.761-1.511c-.268-.524-.591-1.044-.902-1.597-.608-1.115-1.369-2.236-2.149-3.431a59.563 59.563 0 0 0-5.858-7.187 59.62 59.62 0 0 0-6.988-6.095c-1.168-.819-2.263-1.617-3.357-2.262-.542-.33-1.052-.671-1.566-.956l-1.486-.811c-.935-.537-1.834-.922-2.605-1.294a22.965 22.965 0 0 0-2.015-.869l-1.295-.496c-.296-.109-.455-.159-.461-.145Z" style="fill: rgb(42, 107, 204); fill-opacity: 1;" class="fills"/><path d="M501.745 345.916c.04-.006-.174-.75-1.053-1.567-.857-.816-2.422-1.572-4.243-1.626-1.816-.048-3.391.459-4.467.872-1.081.424-1.709.768-1.688.819.025.062.698-.18 1.791-.523 1.089-.333 2.628-.772 4.349-.726 1.715.053 3.195.713 4.054 1.422.877.705 1.187 1.372 1.257 1.329ZM504.608 348.868c.122-.068-.958-1.65-1.204-3.917-.284-2.263.403-4.052.269-4.09-.048-.02-.289.397-.497 1.142-.21.741-.348 1.82-.212 2.999.139 1.178.522 2.197.897 2.87.374.677.705 1.026.747.996Z" style="fill: rgb(42, 107, 204); fill-opacity: 1;" class="fills"/><path d="M535.799 388.584c-.66 11.702-4.19 23.605-9.619 35.638h-23.608c-5.177-11.914-8.463-23.798-9.047-35.638h42.274Z" style="fill: rgb(38, 50, 56);" class="fills"/><path d="M497.352 407.521c0 .122 7.773.222 17.359.222 9.589 0 17.361-.1 17.361-.222s-7.772-.221-17.361-.221c-9.586 0-17.359.098-17.359.221ZM497.879 411.761c0 .122 7.286.221 16.274.221 8.99 0 16.275-.1 16.275-.221 0-.122-7.285-.222-16.275-.222-8.988 0-16.274.1-16.274.222ZM525.8 396.268c-.123 0-.222 2.433-.222 5.432 0 3.001.099 5.434.222 5.434.122 0 .221-2.433.221-5.434 0-3-.099-5.432-.221-5.432Z" style="fill: rgb(250, 250, 250);" class="fills"/><path d="M513.15 396.268c-.122 0-.221 2.519-.221 5.626 0 3.109.099 5.627.221 5.627s.222-2.519.222-5.627c0-3.107-.1-5.626-.222-5.626ZM501.276 396.172c-.122 0-.222 2.57-.222 5.739 0 3.17.1 5.739.222 5.739s.221-2.569.221-5.739c0-3.169-.098-5.739-.221-5.739Z" style="fill: rgb(250, 250, 250);" class="fills"/><path d="M494.275 396.268c0 .121 9.117.221 20.36.221 11.248 0 20.362-.1 20.362-.221 0-.122-9.115-.222-20.362-.222-11.243 0-20.36.1-20.36.222Z" style="fill: rgb(250, 250, 250);" class="fills"/><path d="m87.192 398.068-3.813 19.498-7.467 14.553a2.036 2.036 0 0 0 1.009 2.799 2.026 2.026 0 0 0 1.861-.13c3.587-2.191 16.743-10.316 16.942-11.759.231-1.67 5.39-20.301 5.39-20.301l-13.922-4.66Z" style="fill: rgb(42, 107, 204); fill-opacity: 1;" class="fills"/><path d="m76.921 434.918 19.09-13.197-.181.822a3.066 3.066 0 0 1-1.135 1.785c-1.551 1.178-5.906 4.336-15.855 10.474a2.03 2.03 0 0 1-1.919.116Z" style="fill: rgb(38, 50, 56);" class="fills"/><path d="M93.379 415.983c-.56.229-.88.93-.674 1.499.206.569.916.901 1.481.681.564-.22.974-1.049.705-1.591s-1.123-.886-1.619-.538" style="fill: rgb(235, 235, 235);" class="fills"/><path d="M83.221 427.412c-.122.03-.336-1.082-1.371-1.882-1.012-.831-2.144-.791-2.143-.917-.006-.052.273-.149.741-.113.465.032 1.108.239 1.674.688.563.451.909 1.031 1.044 1.477.14.449.107.742.055.747ZM81.268 429.708c-.111.063-.596-.704-1.538-1.211-.93-.529-1.838-.532-1.842-.66-.035-.112.99-.319 2.054.278 1.07.585 1.438 1.563 1.326 1.593ZM86.527 424.645c-.11.073-.851-1.112-2.245-2.029-1.381-.94-2.758-1.172-2.734-1.303-.009-.111 1.493-.064 2.977.94 1.492.988 2.108 2.359 2.002 2.392ZM88.182 418.815c-.077.105-1.053-.578-2.437-.934-1.381-.376-2.565-.264-2.581-.393-.033-.107 1.208-.429 2.692-.029 1.489.386 2.408 1.28 2.326 1.356ZM89.447 413.12c-.085.099-1.022-.784-2.512-1.04-1.484-.289-2.673.204-2.717.082-.022-.048.243-.245.747-.405.501-.162 1.249-.252 2.049-.106.8.148 1.466.496 1.877.825.415.329.593.607.556.644ZM87.207 411.003c-.025-.005-.011-.276.135-.74a5.211 5.211 0 0 1 1.006-1.795c.289-.314.609-.73 1.207-.867a.823.823 0 0 1 .863.376c.173.3.176.634.115.943-.291 1.228-1.61 2.187-3.036 2.06-1.425-.152-2.512-1.223-2.831-2.407-.06-.302-.07-.658.153-.953.221-.299.645-.343.912-.235.558.212.849.624 1.134.945.551.684.841 1.34.994 1.798.153.461.176.73.151.736-.079.036-.282-1.061-1.381-2.335-.282-.299-.602-.67-1.009-.799-.198-.064-.39-.023-.497.125-.109.14-.121.393-.064.632.275.972 1.27 1.949 2.477 2.059 1.2.118 2.359-.727 2.603-1.713.055-.238.044-.492-.053-.661a.445.445 0 0 0-.472-.215c-.411.07-.754.422-1.037.716-1.13 1.246-1.288 2.368-1.37 2.33Z" style="fill: rgb(38, 50, 56);" class="fills"/><path d="m152.233 399.585 3.25 19.6 7.044 14.761a2.035 2.035 0 0 1-1.089 2.769 2.024 2.024 0 0 1-1.856-.184c-3.523-2.293-16.439-10.792-16.597-12.241-.182-1.676-4.802-20.447-4.802-20.447l14.05-4.258Z" style="fill: rgb(42, 107, 204); fill-opacity: 1;" class="fills"/><path d="m161.438 436.715-18.702-13.742.156.827c.136.716.518 1.36 1.085 1.818 1.516 1.221 5.777 4.504 15.546 10.925.569.374 1.29.439 1.915.172Z" style="fill: rgb(38, 50, 56);" class="fills"/><path d="M145.532 417.314c.553.246.854.956.631 1.518-.223.563-.942.874-1.5.638s-.944-1.076-.66-1.61c.284-.534 1.15-.854 1.634-.491" style="fill: rgb(235, 235, 235);" class="fills"/><path d="M155.357 429.031c.12.033.368-1.072 1.425-1.842 1.035-.802 2.167-.73 2.168-.855.009-.052-.268-.157-.737-.134-.466.018-1.114.207-1.693.641-.576.434-.939 1.004-1.087 1.446-.152.443-.127.737-.076.744ZM157.244 431.381c.109.067.616-.686 1.572-1.166.945-.502 1.853-.479 1.861-.607.038-.11-.982-.346-2.062.219-1.087.554-1.483 1.521-1.371 1.554ZM152.132 426.17c.109.075.883-1.087 2.303-1.964 1.408-.899 2.791-1.092 2.77-1.223.013-.11-1.49-.107-3.002.853-1.521.945-2.176 2.297-2.071 2.334ZM150.645 420.295c.075.107 1.069-.548 2.464-.864 1.391-.335 2.571-.189 2.591-.319.035-.105-1.195-.462-2.691-.105-1.498.342-2.442 1.208-2.364 1.288ZM149.546 414.565c.082.101 1.043-.755 2.539-.967 1.492-.246 2.667.281 2.714.16.024-.047-.235-.251-.735-.426-.496-.176-1.24-.287-2.045-.166-.805.126-1.48.455-1.901.771-.423.318-.609.59-.572.628ZM151.844 412.514c.025-.004.02-.275-.113-.744a5.216 5.216 0 0 0-.953-1.823c-.28-.322-.588-.747-1.182-.901a.82.82 0 0 0-.873.35c-.182.295-.194.629-.142.94.255 1.235 1.547 2.232 2.975 2.147 1.43-.111 2.547-1.15 2.9-2.325.069-.3.088-.655-.126-.957-.212-.304-.635-.361-.905-.261-.564.196-.867.599-1.161.912a5.852 5.852 0 0 0-1.046 1.768c-.167.457-.196.725-.172.732.078.037.312-1.053 1.448-2.295.29-.291.62-.653 1.031-.77.2-.058.39-.011.494.14.104.143.11.396.046.633-.304.964-1.327 1.911-2.537 1.987-1.203.084-2.337-.794-2.551-1.786-.049-.24-.03-.493.071-.66a.444.444 0 0 1 .479-.201c.41.081.742.443 1.015.745 1.094 1.279 1.22 2.405 1.302 2.369Z" style="fill: rgb(38, 50, 56);" class="fills"/><path d="M89.056 270.408c-1.813-2.758-9.333 147.068-8.829 147.928l19.809.285 10.783-80.057 5.864-61.214 9.454 57.518 11.601 84.295 21.648.311-13.38-152.798-28.035-16.052-28.915 19.784Z" style="fill: rgb(38, 50, 56);" class="fills"/><path d="M107.971 169.754s-6.072 1.054-8.387 3.076c-2.315 2.022-4.668 6.671-4.668 6.671l-11.541 7.827 10.16 40.456-8.517 55.908 1.701 4.821 63.664-1.063 1.213-4.387-6.581-50.885 2.891-34.102 2.658-13.693-11.529-5.162s5.28-1.636 5.522-2.547c.242-.91-11.897-7.137-11.897-7.137s-19.153-3.243-24.689.217Z" style="fill: rgb(42, 107, 204); fill-opacity: 1;" class="fills"/><path d="M88.658 257.431c7.18 9.3 16.993 16.155 26.646 22.858 2.036 1.414 4.15 2.863 6.583 3.342 3.486.685 7.311-.919 9.261-3.886 1.396-2.126 1.871-4.806 3.527-6.738 1.121-1.305 2.689-2.151 3.89-3.381 1.04-1.065 1.774-2.383 2.496-3.685l3.947-7.122c-4.798-.02-9.231 2.341-13.56 4.409-4.329 2.067-9.142 3.935-13.819 2.866-6.475-1.48-10.601-8.063-16.823-10.387-3.913-1.461-8.486-1.026-12.054 1.146" class="fills" style="opacity: 0.3;"/><path d="M83.375 187.329s-2.372 3.025-2.898 9.378c-.526 6.352-4.622 39.681-3.244 44.471 1.377 4.79 19.205 24.782 25.143 24.29l2.217-.801 2.122 1.644 9.489-7.107L95.29 232.91l1.124-37.853c-.001-.001-6.424-9.226-13.039-7.728Z" style="fill: rgb(42, 107, 204); fill-opacity: 1;" class="fills"/><path d="M99.584 172.831c.011.017-.192.132-.52.436-.33.302-.781.793-1.277 1.504-.509.704-1.026 1.636-1.662 2.735l-2.32 3.672-.135-.165c1.154-.449 2.564-.456 3.913-.014 1.355.434 2.667 1.211 3.937 2.153 2.536 1.918 4.854 4.593 7.098 7.627 4.475 6.099 8.835 13.636 13.043 21.989l.022.044-.001.053-.296 10.291-1.307 45.832-.433 13.888-.139 3.775-.046.982c-.013.221-.023.334-.031.333-.007 0-.011-.114-.012-.335l.004-.982.061-3.778.299-13.891c.283-11.73.645-27.931 1.185-45.835l.301-10.295.021.097c-4.186-8.333-8.525-15.874-12.952-21.963-2.222-3.031-4.507-5.692-6.994-7.599-1.247-.939-2.53-1.709-3.84-2.14-1.306-.439-2.646-.44-3.753-.024l-.32.12.185-.285 2.361-3.643c.643-1.077 1.186-2.017 1.713-2.713.515-.706.986-1.19 1.332-1.48.348-.291.563-.389.563-.389ZM142.366 177.664c.02.067-1.219.43-3.147 1.201-1.919.773-4.54 1.99-7.045 3.913-2.51 1.919-4.459 4.044-5.871 5.566l-1.667 1.817c-.397.426-.626.653-.649.634-.022-.018.166-.281.526-.74.36-.459.891-1.113 1.568-1.907 1.359-1.576 3.29-3.752 5.839-5.703 2.549-1.956 5.232-3.149 7.193-3.857a27.58 27.58 0 0 1 2.36-.743c.567-.147.886-.207.893-.181Z" style="fill: rgb(38, 50, 56);" class="fills"/><path d="M121.618 212.929c-.028-.003.001-.426.079-1.19a46.85 46.85 0 0 1 .507-3.209c.5-2.697 1.393-6.382 2.571-10.396 1.201-4.008 2.466-7.586 3.569-10.1a36.037 36.037 0 0 1 1.409-2.929c.384-.667.608-1.027.633-1.012.025.014-.15.401-.487 1.086-.322.692-.775 1.7-1.281 2.969-1.028 2.531-2.244 6.109-3.441 10.106-1.175 4.002-2.111 7.663-2.683 10.335a98.746 98.746 0 0 0-.636 3.174c-.127.753-.211 1.169-.24 1.166ZM123.596 190.557c-.104-.05 1.353-3.284 3.253-7.224 1.9-3.94 3.525-7.093 3.628-7.042.105.05-1.351 3.284-3.252 7.224-1.9 3.939-3.524 7.092-3.629 7.042Z" style="fill: rgb(38, 50, 56);" class="fills"/><path d="m125.577 205.564.186-.398c.192.145.48.247.756.251.315.005.444-.098.447-.24.006-.429-1.335-.154-1.323-1.007.006-.391.326-.711.979-.702.289.004.584.077.796.215l-.17.402a1.295 1.295 0 0 0-.635-.189c-.316-.005-.439.111-.441.256-.006.424 1.336.151 1.323.995-.006.384-.329.707-.987.698-.363-.007-.729-.121-.931-.281ZM129.639 205.422l-.007.427-1.78-.026.033-2.298 1.738.025-.007.427-1.209-.018-.007.499 1.068.015-.006.414-1.067-.015-.008.532 1.252.018ZM129.923 204.704c.009-.693.549-1.18 1.266-1.17.397.006.727.155.94.42l-.346.311a.74.74 0 0 0-.575-.278c-.43-.006-.74.291-.747.725-.006.433.295.74.726.746a.735.735 0 0 0 .582-.264l.337.32c-.221.263-.555.403-.955.397-.713-.011-1.238-.514-1.228-1.207ZM134.171 205.226a5.008 5.008 0 0 1-.095-.336c-.031-.075-.053-.152-.079-.228l-.003.219c-.006.437-.196.615-.522.61-.322-.005-.509-.188-.503-.625l.018-1.267-.532-.007-.018 1.286c-.01.676.372 1.056 1.026 1.065.384.006.673-.123.853-.364a2.197 2.197 0 0 1-.145-.353ZM134.291 204.176l-.011.782.023.083c.022.062.049.119.064.185l.068.289c.064.269.075.52.048.751.197-.175.31-.442.315-.796l.019-1.286-.526-.008ZM136.776 206.51l-.434-.647h-.027l-.463-.006-.009.64-.533-.008.033-2.298.996.014c.614.009.993.333.986.849a.746.746 0 0 1-.483.718l.505.746-.571-.008Zm-.473-1.872-.433-.007-.011.801.433.007c.325.005.492-.144.495-.393.003-.254-.159-.404-.484-.408ZM137.76 204.225l.532.008-.033 2.298-.532-.008.033-2.298ZM139.308 204.681l-.736-.01.007-.434 2.003.029-.006.433-.736-.01-.027 1.865-.532-.008.027-1.865Z" style="fill: rgb(255, 255, 255);" class="fills"/><path d="m141.909 205.769-.012.814-.532-.008.012-.82-.869-1.49.565.008.599 1.029.63-1.012.522.008-.915 1.471Z" style="fill: rgb(255, 255, 255);" class="fills"/><path d="M136.164 211.763c-.027.01-.138-.204-.317-.603a19.583 19.583 0 0 1-.667-1.725c-.512-1.476-1.066-3.577-1.37-5.947-.299-2.373-.287-4.545-.162-6.102a20.23 20.23 0 0 1 .214-1.837c.074-.431.128-.667.157-.663.066.008-.028.967-.076 2.515a39.339 39.339 0 0 0 .282 6.034c.3 2.341.802 4.424 1.236 5.911.433 1.488.764 2.393.703 2.417Z" style="fill: rgb(38, 50, 56);" class="fills"/><path d="M123.188 205.379c-.342 2.855-1.258 4.266-1.3 7.14-.009.616-.987 10.338-.412 10.562.675.264 3.251-6.818 3.813-10.348.441-2.766 1.222-6.406 1.685-9.168 1.351-8.06 4.344-12.399 8.539-19.414.795-1.329 3.761-4.945 3.761-4.945-.286-.18-1.463.376-2.286.747-2.366 1.063-6.603 4.446-6.603 4.446s-2.546 4.86-3.406 7.306a103.437 103.437 0 0 0-3.856 14.139M96.681 180.906s-2.587 1.413-2.57 2.55c.016 1.137.888 2.105 1.884 2.656.996.55 2.129.79 3.196 1.187 2.512.936 4.603 2.732 6.495 4.63 3.1 3.112 5.823 6.6 8.09 10.362 1.884 3.129 3.612 6.614 6.768 8.458-2.136-3.817-4.352-7.51-6.487-11.327a73.009 73.009 0 0 0-7.372-10.791c-2.778-3.37-7.305-7.453-10.004-7.725Z" class="fills" style="opacity: 0.3;"/><path d="M87.469 237.244c-.01.001-.022-.071-.035-.21a3.383 3.383 0 0 1 .007-.616 4.873 4.873 0 0 1 .767-2.191c.535-.84 1.5-1.75 2.886-2.09 1.355-.341 3.089-.117 4.445.988l-.311.153c-.122-2.441.032-5.21.477-8.072.408-2.639.89-5.125 1.166-7.409.286-2.282.435-4.35.473-6.091a79.74 79.74 0 0 0 .023-4.124l-.007-1.123c.003-.257.011-.393.026-.394.014-.001.034.133.059.389l.085 1.121c.073.975.125 2.389.11 4.137 0 1.748-.119 3.833-.386 6.131-.257 2.301-.73 4.8-1.135 7.424-.442 2.845-.606 5.572-.512 7.993l.017.427-.328-.274c-1.233-1.026-2.854-1.268-4.129-.971-1.299.293-2.228 1.122-2.769 1.911a5.076 5.076 0 0 0-.838 2.079c-.079.522-.062.811-.091.812Z" style="fill: rgb(38, 50, 56);" class="fills"/><path d="M89.487 256.783c.007-.007.095.069.256.223l.703.685c.625.588 1.542 1.45 2.779 2.454 1.24.998 2.784 2.165 4.675 3.298.945.558 1.971 1.142 3.11 1.564.563.21 1.172.324 1.788.267.602-.049 1.241-.297 1.652-.726l.125-.13.133.103 2.127 1.636-.235-.001 9.48-7.119-.037.299-.168-.21c-2.862-3.558-5.41-7.071-7.782-10.226-2.362-3.162-4.505-5.996-6.36-8.332-1.851-2.339-3.42-4.173-4.546-5.401-.556-.623-1.01-1.083-1.316-1.398-.306-.316-.46-.487-.451-.498.01-.011.185.14.509.438.327.295.801.739 1.377 1.345 1.166 1.198 2.774 3.009 4.658 5.328 1.887 2.317 4.059 5.135 6.437 8.285 2.389 3.143 4.949 6.651 7.799 10.195l.167.209.137.17-.173.129-9.497 7.095-.119.089-.116-.091-2.117-1.649.257-.028c-.534.551-1.228.784-1.907.845-.678.06-1.347-.076-1.937-.302-1.18-.449-2.202-1.047-3.153-1.622-1.895-1.167-3.429-2.364-4.656-3.392a38.12 38.12 0 0 1-2.72-2.542l-.664-.726c-.15-.167-.222-.257-.215-.264ZM97.115 197.817c-.075.026-.381-.927-1.154-2.324-.38-.701-.909-1.491-1.559-2.318a18.587 18.587 0 0 0-2.392-2.439 18.603 18.603 0 0 0-2.832-1.911c-.931-.49-1.805-.867-2.564-1.114-1.514-.509-2.507-.637-2.495-.715.004-.029.253-.014.704.038.452.041 1.098.173 1.88.395.785.216 1.691.573 2.655 1.055a17.302 17.302 0 0 1 2.921 1.93 17.333 17.333 0 0 1 2.427 2.522c.648.86 1.163 1.686 1.517 2.418.36.729.606 1.341.729 1.777.131.435.19.678.163.686Z" style="fill: rgb(38, 50, 56);" class="fills"/><path d="M135.424 209.713c.264.571 1.208.216 1.319-.228.111-.444-.12-.894-.331-1.3a23.99 23.99 0 0 1-2.636-9.281c-.254 3.92.161 7.174 1.648 10.809ZM87.125 236.4c-.708-2.24.36-4.907 2.42-6.041.525-.288 1.119-.487 1.717-.443 1.301.095 2.233 1.25 2.996 2.306a5.485 5.485 0 0 0-4.349.551 5.48 5.48 0 0 0-2.515 3.588" class="fills" style="opacity: 0.3;"/><path d="M149.838 187.899c.055.037-.419.792-1.089 2.06a33.288 33.288 0 0 0-2.184 5.138 33.249 33.249 0 0 0-1.261 5.44c-.204 1.418-.265 2.307-.332 2.305-.048-.001-.092-.897.039-2.34.13-1.441.472-3.426 1.156-5.535.688-2.106 1.58-3.912 2.325-5.154.743-1.243 1.306-1.942 1.346-1.914Z" style="fill: rgb(38, 50, 56);" class="fills"/><path d="M144.532 208.264c-.432.445-.549 4.181-.549 4.181.007 4.511.288 6.491.296 11.003.003 1.863.002 3.753-.496 5.548-.264.953-.663 1.861-1.061 2.765-.503 1.146-1.013 2.3-1.747 3.313-.615.846-1.374 1.576-2.117 2.314a86.294 86.294 0 0 0-9.711 11.513l-1.765 2.585 17.513-16.416.863-2.172.043-.255-1.269-24.379Z" class="fills" style="opacity: 0.3;"/><path d="M150.564 184.383s2.758 1.036 4.197 7.185c1.662 7.101 3.839 18.913 4.173 23.381.281 3.762 3.978 17.512 1.119 23.564s-16.684 24.745-22.14 25.344l-2.276-.576-2.391.409-6.708-7.712.586-2.207s-.759-1.23.034-2.326c.792-1.097 17.898-17.156 17.898-17.156s-.653-.083-.793-1.191c-.241-1.907 1.421-1.838 1.421-1.838l-1.104-16.802 5.984-30.075Z" style="fill: rgb(42, 107, 204); fill-opacity: 1;" class="fills"/><path d="M151.602 236.285c-.074.103-1.335-.8-3.126-1.364-1.785-.583-3.336-.581-3.336-.709-.019-.102 1.595-.297 3.464.311 1.874.592 3.073 1.689 2.998 1.762ZM155.058 233.769c-.079.111-1.752-1.51-4.433-2.204-2.67-.738-4.929-.169-4.942-.304-.013-.046.526-.254 1.448-.37.918-.119 2.225-.096 3.603.27 1.375.371 2.518 1.004 3.254 1.565.74.56 1.103 1.01 1.07 1.043Z" style="fill: rgb(38, 50, 56);" class="fills"/><path d="M145.14 234.212c-.016.04-.285.017-.637-.247a1.358 1.358 0 0 1-.446-.64 1.723 1.723 0 0 1-.01-.951c.057-.216.136-.403.245-.585l-.019.04c.25-.578.777-.686 1.067-.713.316-.02.49.072.48.114-.008.052-.179.055-.435.137-.241.076-.624.26-.73.591l-.004.012-.015.029a2.33 2.33 0 0 0-.187.481c-.151.539.009 1.004.256 1.271.245.271.466.399.435.461Z" style="fill: rgb(38, 50, 56);" class="fills"/><path d="M144.363 207.444c.029-.003.08.329.15.931.071.601.151 1.474.236 2.553.172 2.157.339 5.142.483 8.439l.36 8.442.103 2.558c.02.605.016.94-.013.943-.029.002-.08-.329-.15-.931a74.172 74.172 0 0 1-.236-2.553c-.171-2.158-.338-5.143-.483-8.441l-.36-8.44-.103-2.56c-.018-.604-.015-.94.013-.941ZM145.417 234.097c.009.009-.138.152-.424.415l-1.268 1.144-4.693 4.253a337.006 337.006 0 0 0-6.915 6.543 298.369 298.369 0 0 0-4.04 4.004c-.336.352-.659.722-.859 1.146-.212.423-.242.885-.146 1.372.079.49.265.991.249 1.576-.016.541-.224 1.226-.86 1.489l.079-.328 3.462 3.954 3.399 3.888-.19-.067 2.392-.407.029-.004.026.003c1.048.128 1.918.612 2.826.455.903-.11 1.721-.581 2.441-1.118 1.43-1.114 2.674-2.383 3.832-3.572 2.298-2.411 4.182-4.704 5.73-6.627 1.546-1.925 2.753-3.49 3.589-4.561l.963-1.225c.222-.277.343-.418.353-.411.011.007-.09.163-.294.454l-.908 1.267c-.8 1.098-1.975 2.688-3.496 4.639-1.522 1.948-3.386 4.266-5.679 6.708-1.162 1.209-2.387 2.478-3.857 3.636-.743.558-1.61 1.076-2.625 1.205-1.039.169-2.003-.351-2.915-.446l.054-.002-2.391.412-.114.02-.076-.088-3.402-3.884-3.458-3.957-.195-.223.274-.105c.397-.151.589-.648.602-1.12.02-.47-.151-.97-.239-1.492-.107-.519-.069-1.128.184-1.614.236-.494.589-.886.936-1.248a273.221 273.221 0 0 1 11.055-10.475 218.847 218.847 0 0 1 4.78-4.162l1.315-1.09c.303-.244.465-.367.474-.357ZM145.011 224.468c-.002.115-10.943.051-24.434-.142-13.496-.194-24.433-.444-24.431-.56.001-.115 10.94-.051 24.436.143 13.492.192 24.43.443 24.429.559ZM132.453 231.083c.014.002.007.109-.019.309-.032.2-.061.499-.148.875-.149.755-.443 1.837-.963 3.118-1.013 2.549-3.144 5.909-6.602 8.398-3.461 2.487-7.327 3.439-10.069 3.591-1.38.086-2.5.021-3.265-.079-.384-.037-.677-.104-.877-.138-.199-.039-.301-.065-.3-.08.007-.091 1.697.245 4.418.002 2.696-.224 6.464-1.203 9.848-3.635 3.38-2.433 5.505-5.692 6.575-8.176 1.095-2.499 1.313-4.208 1.402-4.185ZM109.031 264.599c-.071.088-.528-.169-.941-.649-.414-.48-.6-.968-.502-1.026.1-.061.43.305.819.754.387.45.699.831.624.921ZM112.096 262.211c-.093.069-.439-.24-.772-.689-.333-.449-.528-.869-.435-.938.093-.069.438.24.772.689.332.449.527.869.435.938Z" style="fill: rgb(38, 50, 56);" class="fills"/><path d="M129.85 255.78c.053.104-.406.44-.979.824-.575.383-1.061.679-1.138.589-.074-.085.306-.538.905-.936.598-.4 1.161-.579 1.212-.477ZM132.127 258.016c.095.059-.182.669-.763 1.239-.579.572-1.194.84-1.251.743-.063-.1.417-.506.958-1.041.543-.532.956-1.006 1.056-.941ZM134.309 260.684c.083.077-.271.588-.864 1.058-.592.471-1.17.699-1.227.601-.059-.101.402-.478.967-.929.567-.447 1.039-.81 1.124-.73ZM103.168 175.329c.119-.047 1.078 2.363 2.715 5.091 1.624 2.738 3.289 4.726 3.192 4.808-.041.035-.51-.418-1.185-1.228a27.26 27.26 0 0 1-2.366-3.366 27.207 27.207 0 0 1-1.838-3.681c-.392-.977-.567-1.605-.518-1.624ZM151.597 283.063c0 .014-.233.026-.678.036l-1.945.022-7.15.065c-6.037.073-14.375.299-23.585.58-9.213.281-17.557.461-23.598.458-3.021.001-5.465-.021-7.154-.066-.814-.025-1.462-.043-1.944-.057-.444-.018-.677-.034-.677-.049 0-.014.234-.026.678-.036l1.944-.021 7.15-.067c6.037-.073 14.376-.299 23.589-.58 9.21-.28 17.554-.46 23.595-.458 3.02 0 5.464.021 7.153.067l1.944.057c.445.018.678.034.678.049Z" style="fill: rgb(38, 50, 56);" class="fills"/><path d="M134.967 176.643c-.096.083-1.077-1.039-2.617-1.982-1.53-.96-2.971-1.341-2.938-1.463.009-.105 1.557.105 3.159 1.109 1.61.989 2.485 2.281 2.396 2.336Z" style="fill: rgb(42, 107, 204); fill-opacity: 1;" class="fills"/><path d="M129.767 265.266c.301.58 1.033.803 1.687.778.654-.024 1.289-.235 1.943-.272.653-.036 1.388.158 1.719.722.263.447.202 1.033-.054 1.484-.257.451-.68.784-1.127 1.047-2.14 1.255-5.072.972-6.934-.667" style="fill: rgb(183, 136, 118);" class="fills"/><path d="M115.055 275.227a38.687 38.687 0 0 0 6.207 5.025c.494.321 1.055.645 1.637.549.582-.095 1.045-.852.655-1.293.597.478 1.518.5 2.137.05.588-.426.856-1.241.651-1.934-.014-.047.027-.085.072-.068.573.218 1.247.202 1.765-.124.55-.346.867-1.069.658-1.686.595.806 2.023.487 2.481-.403.458-.89.139-2.011-.468-2.807-.607-.797-1.459-1.364-2.223-2.009-.766-.646-1.487-1.441-1.669-2.425" style="fill: rgb(183, 136, 118);" class="fills"/><path d="M123.807 279.839c-.044.098-1.123-.349-2.117-1.359-1.002-1.003-1.438-2.085-1.34-2.128.109-.058.687.885 1.637 1.835.941.958 1.879 1.544 1.82 1.652ZM126.806 277.981c-.059.094-.989-.408-1.904-1.319-.92-.907-1.43-1.831-1.338-1.89.099-.068.744.72 1.632 1.593.882.879 1.678 1.517 1.61 1.616ZM129.425 276.133c-.058.094-.949-.367-1.826-1.223-.881-.851-1.367-1.729-1.275-1.789.098-.069.718.671 1.566 1.49.843.823 1.601 1.421 1.535 1.522Z" style="fill: rgb(170, 101, 80);" class="fills"/><path d="M109.789 257.104s-.239-1.023 2.396-.692c2.635.331 3.813.585 6.774.433 2.961-.154 7.764-.996 7.764-.996l7.728 6.795s-7.904 6.939-10.269 8.175c-2.364 1.236-7.18 4.318-9.92 4.171-2.083-.112-2.27-1.148-2.27-1.148s-2.033-1.397-1.73-2.076c0 0-2.415-.132-1.962-1.983 0 0-1.721-.317-2-1.299-.28-.981 1.02-2.135 1.52-2.63.803-.795 7.837-5.953 7.868-6.098 0 .001-6.01-.595-5.899-2.652Z" style="fill: rgb(183, 136, 118);" class="fills"/><path d="M114.776 264.605c.07.091-1.346 1.3-3.161 2.699-1.817 1.399-3.347 2.458-3.417 2.367-.071-.091 1.344-1.299 3.162-2.699 1.815-1.398 3.345-2.459 3.416-2.367ZM118.498 265.325c.041.034-.29.532-.924 1.259a20.426 20.426 0 0 1-2.745 2.581 20.335 20.335 0 0 1-3.171 2.038c-.86.439-1.424.639-1.446.591-.058-.116 2.075-1.162 4.359-2.959 2.296-1.779 3.829-3.594 3.927-3.51ZM121.822 267.705c.04.028-.315.605-1.047 1.415-.729.809-1.867 1.825-3.298 2.688-1.435.859-2.865 1.388-3.922 1.652-1.059.268-1.735.31-1.742.262-.036-.133 2.647-.566 5.449-2.273 2.819-1.672 4.46-3.838 4.56-3.744ZM131.257 265.496c.019.021-.189.235-.581.603-.395.364-.98.878-1.728 1.482a50.166 50.166 0 0 1-6.183 4.263 52.368 52.368 0 0 1-3.651 1.948c-1.14.562-2.226.995-3.186 1.186-.959.203-1.774.143-2.301.002-.53-.143-.784-.315-.775-.331.009-.085 1.153.529 3.012.041.917-.221 1.958-.666 3.08-1.243a65.407 65.407 0 0 0 3.61-1.963 66.42 66.42 0 0 0 6.213-4.136c1.534-1.144 2.447-1.902 2.49-1.852Z" style="fill: rgb(170, 101, 80);" class="fills"/><path d="M117.101 130.658c-7.72-.712-14.531 5.033-15.109 12.759-.48 6.429-.932 13.385-.94 16.892-.016 7.527 7.501 8.806 7.501 8.806s-.215 2.227-.463 4.99c-.5 5.566 3.701 10.448 9.283 10.784 5.474.33 10.176-3.839 10.501-9.308l1.8-30.3c.442-7.464-5.121-13.935-12.573-14.623Z" style="fill: rgb(183, 136, 118);" class="fills"/><path d="M108.542 169.006s4.755.456 9.86-2.647c0 0-2.523 5.44-10.029 4.654l.169-2.007Z" style="fill: rgb(170, 101, 80);" class="fills"/><path d="M128.942 147.857c.129-.054 5.197-1.455 4.959 3.687-.239 5.143-5.357 3.843-5.36 3.695-.001-.147.401-7.382.401-7.382Z" style="fill: rgb(183, 136, 118);" class="fills"/><path d="M130.205 153.364c.023-.015.086.067.235.144a.898.898 0 0 0 .669.045c.553-.174 1.051-1.016 1.119-1.942a2.953 2.953 0 0 0-.191-1.294c-.14-.384-.371-.658-.643-.719a.458.458 0 0 0-.541.221c-.075.14-.047.244-.075.252-.016.012-.107-.091-.056-.301a.581.581 0 0 1 .218-.313.677.677 0 0 1 .501-.108c.396.045.737.427.9.841.186.416.284.923.245 1.447-.081 1.035-.656 1.981-1.411 2.161a.963.963 0 0 1-.814-.174c-.153-.135-.175-.251-.156-.26Z" style="fill: rgb(170, 101, 80);" class="fills"/><path d="M104.919 147.518c-.028.567.429 1.059 1.022 1.1.591.04 1.095-.386 1.123-.953.028-.567-.43-1.059-1.02-1.1-.594-.041-1.097.386-1.125.953ZM103.895 146.126c.131.142.955-.449 2.112-.429 1.157.003 1.997.61 2.125.471.063-.062-.07-.317-.436-.591-.36-.274-.977-.543-1.698-.55-.721-.007-1.332.25-1.684.516-.36.268-.484.519-.419.583ZM116.517 147.836c-.028.567.429 1.059 1.021 1.099.592.04 1.095-.386 1.123-.953.029-.567-.429-1.059-1.02-1.1-.593-.04-1.095.387-1.124.954ZM115.269 146.505c.132.142.956-.449 2.113-.429 1.157.004 1.998.611 2.125.471.063-.062-.068-.317-.435-.591-.361-.273-.978-.543-1.699-.55-.721-.006-1.331.25-1.684.516-.359.268-.484.52-.42.583ZM110.945 155.022c.007-.066-.711-.201-1.875-.366-.294-.034-.574-.098-.62-.3-.067-.214.062-.531.21-.872l.906-2.236c1.261-3.185 2.176-5.805 2.048-5.855-.129-.05-1.255 2.492-2.515 5.676l-.87 2.25c-.116.334-.314.712-.17 1.157a.737.737 0 0 0 .48.438c.189.061.355.066.501.077 1.172.081 1.9.097 1.905.031ZM113.935 142.317c.134.307 1.277.082 2.644.156 1.367.047 2.486.371 2.648.078.071-.14-.139-.423-.601-.698-.458-.274-1.176-.517-1.995-.554-.82-.035-1.556.143-2.037.375-.484.234-.719.497-.659.643ZM103.462 141.865c.2.266 1.001.004 1.96.006.959-.033 1.769.202 1.96-.071.083-.132-.041-.397-.392-.651-.346-.253-.928-.464-1.587-.453-.659.011-1.234.241-1.571.505-.343.266-.458.534-.37.664Z" style="fill: rgb(38, 50, 56);" class="fills"/><path d="M129.534 147.628c.055.789.015 1.698-.163 2.468-.179.77-.63 1.517-1.342 1.86-1.303.626-2.913-.386-3.473-1.717-.56-1.332-.378-2.843-.225-4.279.21-1.959.346-3.951-.004-5.89-.349-1.939-1.23-3.842-2.756-5.09-1.526-1.248-3.754-1.723-5.536-.879-1.1.52-1.935 1.468-2.963 2.118-.925.585-2.046.923-3.124.738-1.079-.185-2.54-.942-2.357-2.02.427-2.512-1.318-.405-1.203-.832.192-.712 1.64-1.933 2.242-2.374 1.11-.815 2.285-1.205 3.461-1.411 3.262-.572 6.772-.159 9.832 1.109 3.059 1.267 5.746 3.63 6.997 6.694 1.447 3.543 1.221 5.69.733 9.507M113.395 158.443c.012.23-.949.469-2.148.534-1.199.065-2.18-.07-2.193-.3-.012-.231.949-.47 2.148-.534 1.199-.065 2.18.07 2.193.3Z" style="fill: rgb(38, 50, 56);" class="fills"/><path d="M129.522 148.081c-.015.052-.623-.057-1.577-.344-.954-.285-2.243-.764-3.642-1.332l-3.584-1.439c-.919-.357-1.496-.565-1.48-.624.014-.052.623.056 1.577.344.954.284 2.242.763 3.643 1.332l3.582 1.439c.921.357 1.497.564 1.481.624ZM108.105 143.637a1.537 1.537 0 0 1 1.347 1.281 6.496 6.496 0 0 1-.661 3.971 6.496 6.496 0 0 1-4.025 3.201c-.979.259-2.083.265-2.938-.275-1.198-.757-1.568-2.322-1.673-3.735-.076-1.031-.049-2.136.519-3 .724-1.104 2.146-1.529 3.465-1.6 1.319-.073 3.966.157 3.966.157Z" style="fill: rgb(38, 50, 56);" class="fills"/><path d="M114.157 143.823a1.554 1.554 0 0 0-1.399 1.257 6.562 6.562 0 0 0 .552 4.033 6.562 6.562 0 0 0 3.976 3.353c.982.29 2.098.329 2.979-.193 1.234-.731 1.653-2.302 1.8-3.727.107-1.04.111-2.158-.437-3.049-.701-1.136-2.125-1.608-3.457-1.718-1.332-.111-4.014.044-4.014.044Z" style="fill: rgb(38, 50, 56);" class="fills"/><path d="M115.374 144.036c-.003.116-1.98.169-4.417.121-2.437-.049-4.41-.181-4.408-.297.003-.115 1.98-.169 4.417-.121 2.436.048 4.41.182 4.408.297Z" style="fill: rgb(38, 50, 56);" class="fills"/><path d="M129.228 178.167c-.007 0-.015-.042-.023-.125a1.685 1.685 0 0 1 .015-.372c.037-.326.2-.791.497-1.33.293-.541.679-1.176.905-2.004.244-.819.348-1.798.341-2.88.001-1.089-.137-2.26-.217-3.568-.004-.331.034-.711.249-1.037.197-.312.592-.603 1.054-.486a.86.86 0 0 1 .513.393.657.657 0 0 1-.015.692c-.328.418-.836.378-1.214.235a1.822 1.822 0 0 1-.958-2.098c.109-.409.357-.785.714-1.039.182-.127.391-.223.631-.249.232-.028.521.034.708.239.174.191.282.472.169.766-.13.302-.442.397-.668.408-.478.024-.931-.195-1.24-.532-.311-.334-.5-.813-.428-1.297.071-.481.379-.893.781-1.138a1.547 1.547 0 0 1 1.16-.208c.206.054.391.158.543.317.151.151.261.421.185.669-.066.251-.293.418-.488.478a1.343 1.343 0 0 1-.597.051 2.196 2.196 0 0 1-1.009-.449c-.57-.441-.935-1.244-.656-1.972.259-.678.98-1.192 1.732-1.025.361.087.706.346.77.778a.687.687 0 0 1-.22.569.893.893 0 0 1-.52.228c-.384.024-.698-.158-.941-.349a2.115 2.115 0 0 1-.596-.725c-.298-.565-.168-1.348.372-1.716.552-.392 1.393-.074 1.499.589l.018.111-.096.052c-.763.414-1.674-.013-1.948-.698-.147-.35-.082-.744.086-1.036.17-.295.429-.52.724-.639.293-.125.634-.124.91-.005.281.102.522.421.447.735a.464.464 0 0 1-.292.349.566.566 0 0 1-.417-.022c-.257-.106-.38-.361-.429-.565-.142-.836-.071-1.472-.022-1.906.06-.431.127-.652.142-.648.064-.004-.214.93.06 2.506.052.181.152.357.328.422.176.076.38.009.406-.18.084-.413-.585-.668-1.032-.441-.468.19-.863.791-.635 1.318.2.519.975.846 1.501.529l-.079.164c-.044-.374-.639-.618-.974-.347-.365.258-.481.827-.24 1.267.216.427.72.875 1.171.854.221-.019.419-.197.387-.376-.017-.184-.238-.391-.473-.434-.496-.123-1.074.266-1.263.783-.201.513.064 1.146.534 1.508.233.183.522.317.808.36.276.042.598-.055.629-.232.066-.163-.166-.407-.431-.468a1.132 1.132 0 0 0-.838.159c-.309.187-.538.506-.586.843-.052.337.081.696.321.955.237.26.581.417.908.402.347-.009.417-.252.227-.482-.161-.189-.547-.134-.807.06a1.48 1.48 0 0 0-.562.812c-.194.637.173 1.382.722 1.64.265.118.639.088.751-.089.136-.174-.034-.455-.282-.523-.226-.069-.509.092-.656.327-.159.233-.202.536-.201.84.062 1.258.186 2.472.165 3.571-.012 1.101-.139 2.107-.413 2.948-.255.849-.678 1.497-.986 2.015-.314.521-.493.955-.557 1.267-.065.309-.055.48-.074.481Z" style="fill: rgb(224, 224, 224);" class="fills"/><path d="M132.186 153.555c-.051-.386-.138-.775-.342-1.108-.203-.332-.542-.599-.93-.636a1.019 1.019 0 0 0-1.022.649c-.143.397.041.887.38 1.138a.348.348 0 0 0 .022.018c.002.002.004.005.008.006l-.004-.003c.031.022.064.043.09.059.134.085.323.095.458.179.276.17.365.534.352.858-.013.324-.101.645-.077.969.018.235.152.509.388.514.205.004.349-.197.434-.384.319-.697.345-1.498.243-2.259Z" style="fill: rgb(224, 224, 224);" class="fills"/><path d="M108.437 170.326s-1.614 2.365-1.747 3.901c-.087 1.017.591 4.974 1.06 7.533a10.68 10.68 0 0 0 1.686 4.097l1.045 1.53a35.989 35.989 0 0 1 3.755 7.07c2.036 5.143 5.457 13.803 5.576 14.218.171.592 1.521 3.024 1.521 3.024l1.809-21.617 5.458-10.808c.475-.94.741-1.973.779-3.025l.127-3.469a4.862 4.862 0 0 0-1.262-3.451l-.274 3.123-9.052 8.216-10.499-7.059.018-3.283Z" style="fill: rgb(255, 255, 255);" class="fills"/><path d="M118.458 180.736c.049.076-1.013.382-1.892 1.785-.911 1.354-1.6 3.54-2.197 5.98l-.177.705-.081.322-.254-.213c-1.827-1.53-3.231-3.114-4.246-4.238-1.005-1.134-1.606-1.838-1.566-1.875.04-.039.714.598 1.774 1.681 1.068 1.072 2.504 2.615 4.303 4.111l-.334.11.175-.705c.599-2.45 1.346-4.678 2.36-6.047.496-.684 1.026-1.15 1.452-1.363.416-.225.681-.268.683-.253ZM124.92 186.562c.068.047-.764 1.388-2.038 3.31l-.333.502-.01-.61c-.014-.878-.258-1.879-.559-2.94-.479-1.854-.923-3.525-1.609-4.553-.66-1.039-1.344-1.462-1.291-1.526.015-.021.192.066.484.273a4.9 4.9 0 0 1 1.053 1.088c.788 1.043 1.291 2.767 1.768 4.609.297 1.057.544 2.102.53 3.053l-.342-.109c1.33-1.883 2.279-3.143 2.347-3.097ZM120.778 210.224c-.116.007-.631-6.547-1.153-14.637-.521-8.093-.85-14.657-.735-14.665.116-.007.631 6.546 1.153 14.639.522 8.089.851 14.655.735 14.663Z" style="fill: rgb(38, 50, 56);" class="fills"/><path d="M100.552 148.089c-.101.049-.451-.832-.096-1.882.344-1.054 1.152-1.552 1.203-1.452.08.092-.511.662-.806 1.584-.315.915-.183 1.724-.301 1.75ZM113.79 148.543c-.085.07-.614-.612-.609-1.625-.005-1.014.524-1.696.61-1.625.107.058-.201.74-.192 1.625-.01.884.298 1.566.191 1.625Z" style="fill: rgb(224, 224, 224);" class="fills"/></g></svg>