<svg width="473" height="59" viewBox="0 0 473 59" fill="none" xmlns="http://www.w3.org/2000/svg">
<path d="M99.336 13.4C102.248 13.4 104.776 13.88 106.92 14.84C109.096 15.8 110.76 17.176 111.912 18.968C113.064 20.76 113.64 22.888 113.64 25.352C113.64 27.784 113.064 29.912 111.912 31.736C110.76 33.528 109.096 34.904 106.92 35.864C104.776 36.824 102.248 37.304 99.336 37.304H91.752V47H85.512V13.4H99.336ZM99.048 32.024C101.768 32.024 103.832 31.448 105.24 30.296C106.648 29.144 107.352 27.496 107.352 25.352C107.352 23.208 106.648 21.56 105.24 20.408C103.832 19.256 101.768 18.68 99.048 18.68H91.752V32.024H99.048ZM144.258 21.368V47H138.546V43.688C137.554 44.904 136.322 45.816 134.85 46.424C133.41 47.032 131.81 47.336 130.05 47.336C127.554 47.336 125.314 46.792 123.33 45.704C121.378 44.616 119.842 43.08 118.722 41.096C117.634 39.112 117.09 36.808 117.09 34.184C117.09 31.56 117.634 29.272 118.722 27.32C119.842 25.336 121.378 23.8 123.33 22.712C125.314 21.624 127.554 21.08 130.05 21.08C131.714 21.08 133.234 21.368 134.61 21.944C136.018 22.52 137.234 23.368 138.258 24.488V21.368H144.258ZM130.722 42.2C132.93 42.2 134.754 41.464 136.194 39.992C137.634 38.52 138.354 36.584 138.354 34.184C138.354 31.784 137.634 29.848 136.194 28.376C134.754 26.904 132.93 26.168 130.722 26.168C128.514 26.168 126.69 26.904 125.25 28.376C123.842 29.848 123.138 31.784 123.138 34.184C123.138 36.584 123.842 38.52 125.25 39.992C126.69 41.464 128.514 42.2 130.722 42.2ZM166.508 45.608C165.804 46.184 164.94 46.616 163.916 46.904C162.924 47.192 161.868 47.336 160.748 47.336C157.932 47.336 155.756 46.6 154.22 45.128C152.684 43.656 151.916 41.512 151.916 38.696V15.704H157.916V21.56H164.78V26.36H157.916V38.552C157.916 39.8 158.22 40.76 158.828 41.432C159.468 42.072 160.348 42.392 161.468 42.392C162.812 42.392 163.932 42.04 164.828 41.336L166.508 45.608ZM182.816 42.248C185.6 42.248 187.92 41.32 189.776 39.464L192.944 43.16C191.824 44.536 190.384 45.576 188.624 46.28C186.864 46.984 184.88 47.336 182.672 47.336C179.856 47.336 177.376 46.776 175.232 45.656C173.088 44.536 171.424 42.984 170.24 41C169.088 38.984 168.512 36.712 168.512 34.184C168.512 31.688 169.072 29.448 170.192 27.464C171.344 25.448 172.912 23.88 174.896 22.76C176.912 21.64 179.184 21.08 181.712 21.08C184.112 21.08 186.288 21.608 188.24 22.664C190.224 23.688 191.792 25.176 192.944 27.128C194.096 29.048 194.672 31.304 194.672 33.896L175.04 37.736C175.648 39.208 176.624 40.328 177.968 41.096C179.312 41.864 180.928 42.248 182.816 42.248ZM181.712 25.88C179.504 25.88 177.712 26.6 176.336 28.04C174.992 29.48 174.32 31.416 174.32 33.848V33.896L188.816 31.112C188.4 29.544 187.552 28.28 186.272 27.32C185.024 26.36 183.504 25.88 181.712 25.88ZM214.98 21.08C218.212 21.08 220.804 22.024 222.756 23.912C224.708 25.8 225.684 28.6 225.684 32.312V47H219.684V33.08C219.684 30.84 219.156 29.16 218.1 28.04C217.044 26.888 215.54 26.312 213.588 26.312C211.38 26.312 209.636 26.984 208.356 28.328C207.076 29.64 206.436 31.544 206.436 34.04V47H200.436V21.368H206.148V24.68C207.14 23.496 208.388 22.6 209.892 21.992C211.396 21.384 213.092 21.08 214.98 21.08ZM247.695 45.608C246.991 46.184 246.127 46.616 245.103 46.904C244.111 47.192 243.055 47.336 241.935 47.336C239.119 47.336 236.943 46.6 235.407 45.128C233.871 43.656 233.103 41.512 233.103 38.696V15.704H239.103V21.56H245.967V26.36H239.103V38.552C239.103 39.8 239.407 40.76 240.015 41.432C240.655 42.072 241.535 42.392 242.655 42.392C243.999 42.392 245.119 42.04 246.015 41.336L247.695 45.608ZM260.575 47.336C258.495 47.336 256.463 47.064 254.479 46.52C252.495 45.976 250.911 45.288 249.727 44.456L252.031 39.896C253.183 40.664 254.559 41.288 256.159 41.768C257.791 42.216 259.391 42.44 260.959 42.44C264.543 42.44 266.335 41.496 266.335 39.608C266.335 38.712 265.871 38.088 264.943 37.736C264.047 37.384 262.591 37.048 260.575 36.728C258.463 36.408 256.735 36.04 255.391 35.624C254.079 35.208 252.927 34.488 251.935 33.464C250.975 32.408 250.495 30.952 250.495 29.096C250.495 26.664 251.503 24.728 253.519 23.288C255.567 21.816 258.319 21.08 261.775 21.08C263.535 21.08 265.295 21.288 267.055 21.704C268.815 22.088 270.255 22.616 271.375 23.288L269.071 27.848C266.895 26.568 264.447 25.928 261.727 25.928C259.967 25.928 258.623 26.2 257.695 26.744C256.799 27.256 256.351 27.944 256.351 28.808C256.351 29.768 256.831 30.456 257.791 30.872C258.783 31.256 260.303 31.624 262.351 31.976C264.399 32.296 266.079 32.664 267.391 33.08C268.703 33.496 269.823 34.2 270.751 35.192C271.711 36.184 272.191 37.592 272.191 39.416C272.191 41.816 271.151 43.736 269.071 45.176C266.991 46.616 264.159 47.336 260.575 47.336Z" fill="#008BC7"/>
<path d="M314.606 13.16C318.382 13.16 321.326 14.248 323.438 16.424C325.582 18.6 326.654 21.768 326.654 25.928V47H324.206V26.024C324.206 22.504 323.326 19.864 321.566 18.104C319.838 16.312 317.406 15.416 314.27 15.416C311.07 15.416 308.574 16.36 306.782 18.248C305.022 20.104 304.142 22.968 304.142 26.84V47H301.694V26.024C301.694 22.504 300.83 19.864 299.102 18.104C297.406 16.312 295.006 15.416 291.902 15.416C288.67 15.416 286.158 16.36 284.366 18.248C282.606 20.104 281.726 22.968 281.726 26.84V47H279.278V13.4H281.678V19.544C282.574 17.432 283.934 15.848 285.758 14.792C287.614 13.704 289.822 13.16 292.382 13.16C295.166 13.16 297.502 13.768 299.39 14.984C301.31 16.2 302.654 17.96 303.422 20.264C304.286 17.896 305.678 16.12 307.598 14.936C309.55 13.752 311.886 13.16 314.606 13.16ZM359.563 21.944V47H357.211V41.096C356.219 43.048 354.827 44.552 353.035 45.608C351.243 46.664 349.211 47.192 346.939 47.192C344.603 47.192 342.491 46.648 340.603 45.56C338.715 44.472 337.227 42.968 336.139 41.048C335.083 39.128 334.555 36.936 334.555 34.472C334.555 32.008 335.083 29.816 336.139 27.896C337.227 25.944 338.715 24.44 340.603 23.384C342.491 22.296 344.603 21.752 346.939 21.752C349.179 21.752 351.179 22.28 352.939 23.336C354.731 24.392 356.139 25.864 357.163 27.752V21.944H359.563ZM347.083 45.032C349.003 45.032 350.715 44.584 352.219 43.688C353.755 42.792 354.955 41.544 355.819 39.944C356.715 38.344 357.163 36.52 357.163 34.472C357.163 32.424 356.715 30.6 355.819 29C354.955 27.4 353.755 26.152 352.219 25.256C350.715 24.36 349.003 23.912 347.083 23.912C345.163 23.912 343.435 24.36 341.899 25.256C340.395 26.152 339.195 27.4 338.299 29C337.435 30.6 337.003 32.424 337.003 34.472C337.003 36.52 337.435 38.344 338.299 39.944C339.195 41.544 340.395 42.792 341.899 43.688C343.435 44.584 345.163 45.032 347.083 45.032ZM376.21 47.192C374.098 47.192 372.482 46.6 371.362 45.416C370.242 44.2 369.682 42.536 369.682 40.424V11.384H372.082V40.136C372.082 41.768 372.45 43.016 373.186 43.88C373.922 44.712 375.026 45.128 376.498 45.128C377.33 45.128 378.13 44.968 378.898 44.648L379.09 46.664C378.194 47.016 377.234 47.192 376.21 47.192ZM405.782 21.944V47H403.43V41.096C402.438 43.048 401.046 44.552 399.254 45.608C397.462 46.664 395.43 47.192 393.158 47.192C390.822 47.192 388.71 46.648 386.822 45.56C384.934 44.472 383.446 42.968 382.358 41.048C381.302 39.128 380.774 36.936 380.774 34.472C380.774 32.008 381.302 29.816 382.358 27.896C383.446 25.944 384.934 24.44 386.822 23.384C388.71 22.296 390.822 21.752 393.158 21.752C395.398 21.752 397.398 22.28 399.158 23.336C400.95 24.392 402.358 25.864 403.382 27.752V21.944H405.782ZM393.302 45.032C395.222 45.032 396.934 44.584 398.438 43.688C399.974 42.792 401.174 41.544 402.038 39.944C402.934 38.344 403.382 36.52 403.382 34.472C403.382 32.424 402.934 30.6 402.038 29C401.174 27.4 399.974 26.152 398.438 25.256C396.934 24.36 395.222 23.912 393.302 23.912C391.382 23.912 389.654 24.36 388.118 25.256C386.614 26.152 385.414 27.4 384.518 29C383.654 30.6 383.222 32.424 383.222 34.472C383.222 36.52 383.654 38.344 384.518 39.944C385.414 41.544 386.614 42.792 388.118 43.688C389.654 44.584 391.382 45.032 393.302 45.032ZM454.973 21.944V35.768C454.973 39.544 454.093 42.392 452.333 44.312C450.573 46.232 447.981 47.192 444.557 47.192C442.189 47.192 440.237 46.712 438.701 45.752C437.165 44.76 436.029 43.224 435.293 41.144C434.589 43.224 433.469 44.76 431.933 45.752C430.397 46.712 428.429 47.192 426.029 47.192C422.605 47.192 420.013 46.232 418.253 44.312C416.493 42.392 415.613 39.544 415.613 35.768V21.944H418.013V35.624C418.013 38.824 418.669 41.192 419.981 42.728C421.293 44.264 423.309 45.032 426.029 45.032C428.749 45.032 430.765 44.248 432.077 42.68C433.421 41.112 434.093 38.696 434.093 35.432V21.944H436.493V35.432C436.493 38.728 437.149 41.16 438.461 42.728C439.773 44.264 441.805 45.032 444.557 45.032C447.277 45.032 449.293 44.264 450.605 42.728C451.917 41.192 452.573 38.824 452.573 35.624V21.944H454.973ZM464.838 21.944H467.238V47H464.838V21.944ZM466.038 15.848C465.494 15.848 465.03 15.672 464.646 15.32C464.262 14.936 464.07 14.472 464.07 13.928C464.07 13.384 464.262 12.92 464.646 12.536C465.03 12.152 465.494 11.96 466.038 11.96C466.582 11.96 467.046 12.152 467.43 12.536C467.814 12.888 468.006 13.336 468.006 13.88C468.006 14.424 467.814 14.888 467.43 15.272C467.046 15.656 466.582 15.848 466.038 15.848Z" fill="black"/>
<path d="M41.6122 52.2031C37.517 54.5883 32.8415 55.7935 28.1035 55.6852C13.7089 55.3857 2.28774 43.3548 2.59024 28.8153C2.89273 14.2759 14.8044 2.73043 29.1991 3.02992C33.9374 3.1188 38.5587 4.51743 42.5512 7.0709M58.7419 20.1065L60.8622 20.5786C63.1793 21.0877 64.3362 21.3456 65.2468 21.888C66.6502 22.7238 67.6928 24.0516 68.1719 25.6133C68.4834 26.6239 68.4586 27.8152 68.4093 30.1847C68.36 32.5542 68.3352 33.7455 67.9853 34.7424C67.4408 36.2833 66.3426 37.5667 64.9044 38.3428C63.9721 38.8469 62.8055 39.0563 60.4692 39.4687L58.3311 39.8522M51.9609 45.0434C51.0463 45.3273 50.5857 45.4692 50.2175 45.445C49.8368 45.4185 49.4719 45.2822 49.167 45.0527C48.8621 44.8231 48.6302 44.5102 48.4995 44.1516C48.3716 43.8065 48.3816 43.3261 48.4015 42.3717L48.9257 17.1761C48.9456 16.2185 48.9556 15.7413 49.0943 15.4018C49.2401 15.0485 49.4853 14.7451 49.8001 14.5284C50.115 14.3117 50.4859 14.191 50.868 14.181C51.2369 14.1722 51.6879 14.333 52.5932 14.6548C54.2632 15.2492 55.0999 15.5465 55.7722 15.9918C57.1771 16.9231 58.1713 18.3579 58.5498 20.0004C58.7277 20.7877 58.7093 21.6697 58.6726 23.4369L58.4003 36.5217C58.3636 38.289 58.3452 39.1743 58.1315 39.9501C57.6857 41.575 56.634 42.9671 55.1928 43.8398C54.5026 44.2568 53.6543 44.519 51.9609 45.0434Z" stroke="#008BC7" stroke-width="3.75" stroke-linecap="round" stroke-linejoin="round"/>
<path d="M17.4373 27.3069L22.9113 32.4284C23.0824 32.5879 23.2928 32.6989 23.521 32.75C23.7491 32.8012 23.9868 32.7907 24.2096 32.7195C24.4323 32.6484 24.6321 32.5192 24.7884 32.3453C24.9447 32.1714 25.0518 31.9589 25.0988 31.7299L26.0925 26.8515C26.1416 26.6098 26.2576 26.3866 26.4272 26.2076C26.5969 26.0286 26.8135 25.9008 27.0522 25.8388C27.291 25.7769 27.5424 25.7832 27.7777 25.8572C28.013 25.9312 28.2228 26.0697 28.3832 26.2571L33.7894 32.5856" stroke="#008BC7" stroke-width="3.75" stroke-linecap="round" stroke-linejoin="round"/>
</svg>
